<svg width="361" height="299" viewBox="0 0 361 299" fill="none" xmlns="http://www.w3.org/2000/svg">
<g clip-path="url(#clip0)">
<path d="M257.9 67.6914H255.335C254.829 67.6914 254.419 68.1007 254.419 68.6056V102.948C254.419 103.453 254.829 103.863 255.335 103.863H257.9C258.406 103.863 258.816 103.453 258.816 102.948V68.6056C258.816 68.1007 258.406 67.6914 257.9 67.6914Z" fill="#333533"/>
<path d="M241.196 0H125.286C116.673 0 109.691 6.969 109.691 15.5657V282.835C109.691 291.432 116.673 298.401 125.286 298.401H241.196C249.809 298.401 256.791 291.432 256.791 282.835V15.5657C256.791 6.969 249.809 0 241.196 0Z" fill="#333533"/>
<path d="M236.317 7.77246H219.443V9.79852C219.443 11.0597 219.194 12.3084 218.71 13.4735C218.227 14.6386 217.518 15.6971 216.624 16.5887C215.73 17.4802 214.67 18.1872 213.502 18.6694C212.335 19.1515 211.083 19.3993 209.82 19.3986H156.156C154.893 19.3993 153.641 19.1515 152.474 18.6694C151.306 18.1872 150.245 17.4802 149.352 16.5887C148.458 15.6971 147.749 14.6386 147.265 13.4735C146.782 12.3084 146.533 11.0597 146.533 9.79852V7.77246H130.734C127.636 7.77246 124.664 9.00102 122.473 11.1879C120.282 13.3747 119.051 16.3407 119.051 19.4334V278.988C119.051 282.081 120.282 285.047 122.473 287.234C124.664 289.42 127.636 290.649 130.734 290.649H236.317C239.415 290.649 242.387 289.42 244.578 287.234C246.769 285.047 248 282.081 248 278.988V19.4533C248.002 17.9203 247.702 16.4018 247.116 14.9848C246.53 13.5677 245.67 12.2798 244.585 11.1949C243.5 10.11 242.211 9.24926 240.792 8.662C239.374 8.07474 237.853 7.77246 236.317 7.77246Z" fill="white"/>
<path d="M188.045 8.91138H170.6C169.745 8.91138 169.052 9.60309 169.052 10.4564V11.5275C169.052 12.3808 169.745 13.0725 170.6 13.0725H188.045C188.9 13.0725 189.593 12.3808 189.593 11.5275V10.4564C189.593 9.60309 188.9 8.91138 188.045 8.91138Z" fill="#E6E8EC"/>
<path d="M195.068 13.3552C196.375 13.3552 197.435 12.2972 197.435 10.9922C197.435 9.6871 196.375 8.62915 195.068 8.62915C193.76 8.62915 192.7 9.6871 192.7 10.9922C192.7 12.2972 193.76 13.3552 195.068 13.3552Z" fill="#E6E8EC"/>
<path d="M184.139 180.639C199.508 180.639 211.967 168.204 211.967 152.864C211.967 137.524 199.508 125.089 184.139 125.089C168.771 125.089 156.312 137.524 156.312 152.864C156.312 168.204 168.771 180.639 184.139 180.639Z" fill="white"/>
<path d="M220.74 148.986C220.74 156.328 218.558 163.505 214.471 169.61C210.384 175.714 204.576 180.472 197.78 183.282C190.984 186.091 183.505 186.826 176.291 185.393C169.076 183.961 162.45 180.425 157.248 175.233C152.047 170.041 148.505 163.427 147.07 156.225C145.635 149.024 146.372 141.56 149.187 134.777C152.003 127.994 156.77 122.196 162.886 118.117C169.002 114.039 176.193 111.862 183.549 111.862C188.433 111.862 193.27 112.822 197.782 114.688C202.294 116.554 206.394 119.288 209.847 122.736C213.301 126.183 216.04 130.275 217.909 134.779C219.778 139.283 220.74 144.111 220.74 148.986ZM179.25 168.635L206.839 141.098C207.062 140.876 207.239 140.612 207.36 140.321C207.481 140.03 207.543 139.719 207.543 139.404C207.543 139.089 207.481 138.778 207.36 138.487C207.239 138.196 207.062 137.932 206.839 137.71L203.444 134.346C203.222 134.124 202.958 133.947 202.667 133.826C202.376 133.706 202.064 133.644 201.749 133.644C201.434 133.644 201.122 133.706 200.832 133.826C200.541 133.947 200.277 134.124 200.054 134.346L177.553 156.806L167.046 146.295C166.595 145.847 165.985 145.596 165.349 145.596C164.713 145.596 164.103 145.847 163.652 146.295L160.257 149.703C159.809 150.153 159.557 150.762 159.557 151.397C159.557 152.032 159.809 152.641 160.257 153.091L175.856 168.655C176.079 168.878 176.343 169.055 176.635 169.176C176.926 169.296 177.238 169.358 177.553 169.358C177.869 169.358 178.181 169.296 178.472 169.176C178.763 169.055 179.028 168.878 179.251 168.655L179.25 168.635Z" fill="#FFEE32"/>
<path d="M114.297 58.8281H113.912C113.406 58.8281 112.996 59.2374 112.996 59.7423V68.6183C112.996 69.1232 113.406 69.5325 113.912 69.5325H114.297C114.803 69.5325 115.213 69.1232 115.213 68.6183V59.7423C115.213 59.2374 114.803 58.8281 114.297 58.8281Z" fill="#3F3D56"/>
<path d="M114.497 78.429H113.831C113.325 78.429 112.915 78.8383 112.915 79.3432V96.1449C112.915 96.6498 113.325 97.0591 113.831 97.0591H114.497C115.003 97.0591 115.413 96.6498 115.413 96.1449V79.3432C115.413 78.8383 115.003 78.429 114.497 78.429Z" fill="#3F3D56"/>
<path d="M114.417 103.578H113.871C113.365 103.578 112.955 103.987 112.955 104.492V121.454C112.955 121.959 113.365 122.368 113.871 122.368H114.417C114.923 122.368 115.333 121.959 115.333 121.454V104.492C115.333 103.987 114.923 103.578 114.417 103.578Z" fill="#3F3D56"/>
<path d="M83.4902 153.266C83.5537 153.327 83.6354 153.366 83.723 153.377C83.8107 153.388 83.8996 153.371 83.9766 153.328C83.8123 153.33 83.6485 153.309 83.4902 153.266Z" fill="url(#paint0_linear)"/>
<path d="M101.874 160.443L101.394 163.052L101.024 165.049L100.35 168.7L93.8189 173.264C93.8189 173.264 93.2301 172.761 92.259 171.968C89.5824 169.768 83.9568 165.289 79.8259 162.884C78.7633 162.208 77.6137 161.68 76.4086 161.313L101.874 160.443Z" fill="#FEB9B9"/>
<path d="M97.0827 162.385C97.0827 162.385 104.698 163.689 105.144 160.443C105.59 157.197 101.224 155.443 97.5243 155.225C93.8246 155.006 71.619 156.529 71.619 156.529C71.619 156.529 67.7021 161.743 81.8483 162.616L97.0827 162.385Z" fill="#202020"/>
<path d="M113.736 55.2703H73.8987V102.42H113.736V55.2703Z" fill="#2F2E41"/>
<path opacity="0.1" d="M113.736 55.4844H73.8987V102.634H113.736V55.4844Z" fill="#202020"/>
<path d="M27.21 135.984C26.554 136.149 25.7157 136.783 24.7833 137.699C20.7684 141.666 15.0181 150.977 15.0181 150.977C7.6662 142.236 15.8016 135.33 19.2693 132.956C20.1125 132.382 20.6788 132.066 20.6788 132.066L27.21 135.984Z" fill="#FEB9B9"/>
<path d="M101.437 70.1514C101.437 70.1514 103.397 83.8391 110.145 87.0984C116.893 90.3576 101.437 96.449 101.437 96.449L80.3229 88.621C80.3229 88.621 92.2964 84.7086 89.9006 73.1923L101.437 70.1514Z" fill="#FEB9B9"/>
<path d="M78.7973 152.5L78.3198 155.1L77.9318 157.104L77.2583 160.755L70.7271 165.315C70.7271 165.315 70.1384 164.816 69.1673 164.023C66.4907 161.824 60.8655 157.344 56.7282 154.94C55.6661 154.263 54.5164 153.734 53.3108 153.368L78.7973 152.5Z" fill="#FEB9B9"/>
<path d="M73.1476 155.706C73.1476 155.706 79.9819 155.755 80.3931 152.499C80.8043 149.244 76.6686 147.499 73.1476 147.281C69.6267 147.062 48.2339 148.687 48.2339 148.687C48.2339 148.687 45.1989 154.835 58.6551 155.706L73.1476 155.706Z" fill="#202020"/>
<path d="M121.065 206.845C120.766 206.698 120.467 206.547 120.173 206.4L119.37 205.389L108.837 192.058V192.289C108.766 194.516 108.008 212.157 102.092 213.787C95.7799 215.524 88.1649 215.96 84.6935 204.227C81.2222 192.494 74.8795 166.855 68.3659 165.333L78.0552 157.403C78.0552 157.403 84.4703 164.892 87.0841 172.061C86.9862 171.616 82.5561 150.955 86.1918 147.3H117.979C117.979 147.3 122.887 161.25 126.25 168.161C128.869 173.526 132.799 186.212 135.329 194.797C137.834 203.274 129.033 210.759 121.065 206.845Z" fill="#333533"/>
<path opacity="0.1" d="M120.16 151.195C115.253 154.094 93.7102 152.914 86.7019 152.442L84.7925 152.304C84.5873 152.304 84.8237 152.188 84.8237 152.188L85.0201 150.215L90.2441 136.964L118.215 120.774C117.648 122.479 117.461 125.088 117.506 128.076C117.635 137.676 120.16 151.195 120.16 151.195Z" fill="#202020"/>
<path d="M120.16 150.54C115.253 153.439 93.7102 152.259 86.7019 151.787L84.7925 151.653L84.4757 151.627L84.8237 151.538L86.5455 151.093L90.2437 136.318L118.214 120.133C117.648 121.838 117.46 124.448 117.505 127.435C117.635 137.026 120.16 150.54 120.16 150.54Z" fill="#EFEFEF"/>
<path opacity="0.1" d="M117.488 127.426C111.8 128.735 99.2825 132.576 94.4732 141.853C91.2659 148.029 88.5669 150.678 86.6842 151.787L84.7747 151.653C84.7873 151.615 84.7977 151.576 84.8059 151.537L86.5278 151.092L90.2259 136.318L118.197 120.133C117.637 121.829 117.443 124.438 117.488 127.426Z" fill="#202020"/>
<path opacity="0.1" d="M20.6787 132.075L27.2098 135.985C26.5539 136.15 25.7155 136.783 24.7832 137.699C24.2389 136.114 20.8235 133.901 19.2692 132.957C20.112 132.391 20.6787 132.075 20.6787 132.075Z" fill="#202020"/>
<path opacity="0.1" d="M83.6106 151.907C83.539 151.945 83.4576 151.959 83.3777 151.948C83.2977 151.936 83.2233 151.901 83.1647 151.845C83.3095 151.888 83.4597 151.909 83.6106 151.907Z" fill="#202020"/>
<path d="M98.3903 86.23C98.3903 86.23 92.5107 86.88 88.3754 82.5344C88.3754 82.5344 70.9767 87.5347 65.0843 98.8311C59.192 110.128 19.1353 132.293 19.1353 132.293C19.1353 132.293 26.1036 136.203 25.4477 138.157L51.7901 122.947C51.7901 122.947 61.1582 116.214 63.7592 114.692C66.3602 113.169 80.7424 103.827 83.7893 129.248C86.8363 154.668 83.7893 151.627 83.7893 151.627C83.7893 151.627 88.1434 153.15 94.4558 140.981C100.768 128.811 120.357 125.988 120.357 125.988L121.445 113.173C121.445 113.173 125.331 104.677 122.337 101.151C121.43 100.107 120.827 98.8349 120.593 97.473C120.098 94.2181 120.593 88.7946 127.525 84.2886C138.192 77.3334 142.327 71.6875 142.327 71.6875C142.327 71.6875 142.545 67.5556 136.015 65.6006C129.484 63.6456 102.927 52.9995 102.927 52.9995L102.035 56.6951L122.988 71.456C122.988 71.456 112.541 79.9159 104.252 79.7111C104.252 79.7111 105.791 86.0117 98.3903 86.23Z" fill="#FFD100"/>
<path opacity="0.1" d="M102.423 76.1089C101.908 74.3673 101.506 72.5944 101.219 70.8013L89.6822 73.8433C90.1908 76.0415 90.0999 78.3356 89.4191 80.4868C91.7777 81.115 94.2695 81.0347 96.5827 80.256C98.8958 79.4772 100.927 78.0347 102.423 76.1089Z" fill="#202020"/>
<path d="M92.8406 80.2547C99.6924 80.2547 105.247 74.7106 105.247 67.8716C105.247 61.0326 99.6924 55.4885 92.8406 55.4885C85.9888 55.4885 80.4343 61.0326 80.4343 67.8716C80.4343 74.7106 85.9888 80.2547 92.8406 80.2547Z" fill="#FEB9B9"/>
<path opacity="0.1" d="M106.335 167.598C106.335 167.598 113.518 181.723 111.341 186.064L106.335 167.598Z" fill="#202020"/>
<path d="M99.4382 39.2719C102.882 39.6639 106.152 41.1374 109.543 41.9435C110.39 42.2064 111.292 42.2401 112.157 42.0413C113.473 41.636 114.543 40.2603 115.909 40.3003C116.748 40.327 117.492 40.8971 118.184 41.4444C119.292 42.2916 120.336 43.2204 121.306 44.223C123.644 46.7565 125.093 50.1674 127.226 52.9237C129.358 55.6799 132.399 58.912 135.428 57.6481C133.367 65.6629 126.94 70.6767 119.638 71.1758C116.725 71.3754 113.74 70.7705 110.921 71.6209C110.219 71.9083 109.477 72.0883 108.721 72.155C107.097 72.155 105.79 70.6679 104.777 69.2208C102.404 65.819 100.526 61.9585 97.8539 58.8549C96.9616 57.8265 95.9312 56.8512 94.6821 56.6644C93.433 56.4776 92.2867 57.074 91.176 57.6485C89.3425 58.597 87.4691 59.5763 86.046 61.2108C84.6229 62.8452 83.7261 65.2581 84.3149 67.4446C84.6317 68.6291 85.3548 69.6978 85.3676 70.9354C85.3944 72.9124 83.6457 74.3552 83.3022 76.2786C83.2246 77.0866 83.1963 77.8985 83.2174 78.7099C83.0658 81.3448 81.3375 83.5006 79.5377 85.1617C78.8329 85.8029 78.0578 86.4975 77.8514 87.4904C77.713 88.1715 77.8514 88.8877 77.7622 89.5787C77.499 91.2886 75.7903 92.1569 74.278 92.3797C72.5111 92.6408 70.7064 92.4272 69.0496 91.7609C71.1643 90.7628 72.467 87.9228 71.9762 85.3801C71.3027 81.8534 67.7517 79.3199 68.0565 75.7313C68.2234 74.6302 68.5542 73.5602 69.038 72.5567C69.8118 70.6174 70.3742 68.6006 70.7155 66.5412C70.9831 64.9515 71.1127 63.264 70.6127 61.7457C70.1667 60.3652 69.2344 59.2657 68.4445 58.0988C67.374 56.5113 66.5289 54.7836 65.9331 52.9648C65.7171 52.4253 65.6348 51.8418 65.6931 51.2637C65.872 50.581 66.2529 49.968 66.7862 49.5047C68.7269 47.4687 70.8011 45.3548 73.4021 44.7715C74.6431 44.5659 75.9052 44.518 77.1582 44.629C79.3375 44.6973 81.5189 44.6049 83.6845 44.3528C85.4688 44.1436 88.4842 44.1703 89.9969 43.017C91.4064 41.9391 92.2007 40.5857 93.9358 39.9002C95.6929 39.2501 97.5818 39.0347 99.4406 39.2723L99.4382 39.2719Z" fill="#202020"/>
<path d="M329.96 297.66C339.9 297.66 347.957 296.3 347.957 294.622C347.957 292.944 339.9 291.584 329.96 291.584C320.021 291.584 311.964 292.944 311.964 294.622C311.964 296.3 320.021 297.66 329.96 297.66Z" fill="#FFD100"/>
<path d="M337.403 289.655C338.224 288.985 338.821 288.083 339.118 287.068C339.341 286.045 338.903 284.832 337.918 284.437C336.817 284.017 335.638 284.781 334.749 285.549C333.86 286.317 332.833 287.197 331.665 287.032C332.266 286.49 332.717 285.801 332.972 285.033C333.227 284.265 333.279 283.444 333.121 282.65C333.069 282.321 332.928 282.012 332.714 281.756C332.105 281.104 330.994 281.381 330.266 281.899C327.938 283.53 327.29 286.69 327.276 289.524C327.039 288.502 327.24 287.434 327.231 286.397C327.222 285.361 326.941 284.162 326.05 283.614C325.5 283.32 324.883 283.175 324.259 283.194C323.212 283.154 322.048 283.261 321.333 284.025C320.437 284.972 320.679 286.563 321.449 287.599C322.219 288.635 323.396 289.301 324.479 290.02C325.345 290.536 326.083 291.24 326.639 292.08C326.706 292.197 326.759 292.322 326.799 292.451H333.338C334.812 291.706 336.179 290.766 337.402 289.656L337.403 289.655Z" fill="#FFD100"/>
<path d="M85.2787 299C91.8381 299 97.1555 298.103 97.1555 296.995C97.1555 295.888 91.8381 294.99 85.2787 294.99C78.7194 294.99 73.402 295.888 73.402 296.995C73.402 298.103 78.7194 299 85.2787 299Z" fill="#EFEFEF"/>
<path d="M90.1903 293.717C90.7316 293.275 91.1259 292.68 91.3215 292.01C91.4076 291.674 91.376 291.318 91.2321 291.003C91.0881 290.687 90.8404 290.43 90.5299 290.273C89.8032 289.996 89.0264 290.501 88.4389 291.008C87.8513 291.515 87.1746 292.095 86.4038 291.987C86.8005 291.628 87.0975 291.174 87.2657 290.667C87.434 290.16 87.4677 289.618 87.3637 289.095C87.3291 288.877 87.2363 288.674 87.095 288.505C86.695 288.075 85.9606 288.257 85.4795 288.599C83.9436 289.677 83.5152 291.759 83.5064 293.632C83.35 292.957 83.4828 292.252 83.4768 291.568C83.4708 290.884 83.2849 290.094 82.6969 289.732C82.3342 289.537 81.9267 289.442 81.5154 289.455C80.8242 289.428 80.0563 289.499 79.5835 290.003C78.9928 290.628 79.1523 291.678 79.6603 292.362C80.1683 293.046 80.945 293.485 81.6602 293.959C82.2318 294.298 82.7194 294.762 83.0869 295.316C83.1311 295.394 83.1668 295.476 83.1932 295.561H87.5085C88.4815 295.069 89.3836 294.448 90.1903 293.715V293.717Z" fill="#EFEFEF"/>
<path d="M18.1107 299C24.67 299 29.9874 298.103 29.9874 296.995C29.9874 295.888 24.67 294.99 18.1107 294.99C11.5514 294.99 6.23397 295.888 6.23397 296.995C6.23397 298.103 11.5514 299 18.1107 299Z" fill="#EFEFEF"/>
<path d="M23.0227 293.717C23.5639 293.275 23.9583 292.68 24.1538 292.01C24.2399 291.674 24.2084 291.318 24.0644 291.003C23.9205 290.687 23.6727 290.43 23.3622 290.273C22.6355 289.996 21.8587 290.501 21.2712 291.008C20.6836 291.515 20.0069 292.095 19.2362 291.987C19.6329 291.628 19.9298 291.174 20.0981 290.667C20.2663 290.16 20.3001 289.618 20.1961 289.095C20.1615 288.877 20.0686 288.674 19.9273 288.505C19.5273 288.075 18.793 288.257 18.3118 288.599C16.7759 289.677 16.3476 291.759 16.3388 293.632C16.1824 292.957 16.3152 292.252 16.3092 291.568C16.3032 290.884 16.1172 290.094 15.5292 289.732C15.1666 289.537 14.7591 289.442 14.3477 289.455C13.6566 289.428 12.8886 289.499 12.4159 290.003C11.8251 290.628 11.9847 291.678 12.4926 292.362C13.0006 293.046 13.7773 293.485 14.4925 293.959C15.0641 294.298 15.5518 294.762 15.9192 295.316C15.9635 295.394 15.9991 295.476 16.0256 295.561H20.3409C21.3139 295.069 22.216 294.448 23.0227 293.715V293.717Z" fill="#EFEFEF"/>
<path d="M361 297.855H0V298.582H361V297.855Z" fill="#202020"/>
<path d="M343.379 20.1703C343.379 20.1703 305.693 17.9007 310.133 44.2582C310.133 44.2582 309.238 48.9176 313.481 51.0307C313.481 51.0307 313.548 49.0785 317.348 49.744C318.701 49.9677 320.075 50.0337 321.443 49.9404C323.289 49.8192 325.045 49.1027 326.447 47.8988C326.447 47.8988 337.041 43.5297 341.158 26.2501C341.158 26.2501 344.206 22.4798 344.085 21.5101L337.726 24.2216C337.726 24.2216 339.901 28.8007 338.173 32.6053C338.173 32.6053 337.967 24.3853 336.746 24.5642C336.5 24.6001 333.443 26.1499 333.443 26.1499C333.443 26.1499 337.18 34.124 334.36 39.9231C334.36 39.9231 335.43 30.095 332.274 26.7264L327.799 29.3353C327.799 29.3353 332.167 37.5733 329.204 44.2966C329.204 44.2966 329.964 33.9858 326.854 29.9697L322.799 33.1279C322.799 33.1279 326.903 41.2449 324.402 46.8212C324.402 46.8212 324.075 34.8218 321.922 33.9152C321.922 33.9152 318.372 37.0423 317.831 38.3198C317.831 38.3198 320.642 44.2167 318.896 47.3259C318.896 47.3259 317.827 39.3294 316.949 39.2847C316.949 39.2847 313.413 44.5828 313.046 48.2193C313.046 48.2193 313.198 42.8182 316.094 38.7845C316.094 38.7845 312.674 39.3698 310.678 41.5791C310.678 41.5791 311.229 37.8355 316.967 37.505C316.967 37.505 319.889 33.4844 320.668 33.2433C320.668 33.2433 314.966 32.7642 311.506 34.2976C311.506 34.2976 314.55 30.7641 321.715 32.3722L325.721 29.1065C325.721 29.1065 318.211 28.0833 315.024 29.2139C315.024 29.2139 318.69 26.0868 326.8 28.3652L331.16 25.765C331.16 25.765 324.755 24.3889 320.941 24.8716C320.941 24.8716 324.97 22.705 332.439 25.0548L335.572 23.6575C335.572 23.6575 330.882 22.7373 329.508 22.59C328.133 22.4427 328.062 22.0674 328.062 22.0674C331.034 21.5729 334.085 21.9116 336.875 23.0459C336.875 23.0459 343.491 20.5859 343.379 20.1703Z" fill="#FFD100"/>
<path d="M291.743 6.21633C291.743 6.21633 274.736 5.19313 276.723 17.1031C276.723 17.1031 276.323 19.2074 278.236 20.1632C278.236 20.1632 278.267 19.2697 279.985 19.5779C280.596 19.6805 281.216 19.7105 281.834 19.6674C282.669 19.6122 283.462 19.2858 284.094 18.738C284.094 18.738 288.883 16.7634 290.745 8.95461C290.745 8.95461 292.119 7.25272 292.065 6.81477L289.191 8.03879C289.191 8.03879 290.172 10.1072 289.402 11.827C289.402 11.827 289.308 8.11424 288.757 8.19967C288.645 8.19967 287.262 8.91828 287.262 8.91828C287.262 8.91828 288.954 12.5233 287.679 15.1414C287.679 15.1414 288.162 10.7008 286.734 9.17737L284.711 10.375C284.711 10.375 286.685 14.0962 285.347 17.1343C285.347 17.1343 285.691 12.475 284.286 10.6613L282.455 12.0909C282.455 12.0909 284.308 15.7586 283.18 18.2789C283.18 18.2789 283.028 12.8554 282.057 12.4446C282.057 12.4446 280.455 13.8563 280.208 14.4371C280.208 14.4371 281.479 17.1175 280.692 18.5068C280.692 18.5068 280.208 14.8926 279.797 14.8739C279.797 14.8739 278.199 17.2692 278.033 18.8945C278.113 17.3783 278.588 15.9093 279.412 14.6328C278.49 14.8071 277.639 15.2465 276.964 15.8971C276.964 15.8971 277.215 14.204 279.806 14.0567C279.806 14.0567 281.149 12.2386 281.48 12.1268C281.48 12.1268 278.902 11.9124 277.34 12.6059C277.34 12.6059 278.714 11.011 281.95 11.7348L283.74 10.2605C283.74 10.2605 280.344 9.80934 278.904 10.3068C278.904 10.3068 280.56 8.89512 284.226 9.92272L286.195 8.74781C286.195 8.74781 283.3 8.12702 281.577 8.34859C281.577 8.34859 283.398 7.37009 286.773 8.42843L288.183 7.79845C288.183 7.79845 286.063 7.38286 285.439 7.31579C284.815 7.24872 284.786 7.07905 284.786 7.07905C286.129 6.85596 287.508 7.01065 288.769 7.52579C288.769 7.52579 291.796 6.40237 291.743 6.21633Z" fill="#FFD100"/>
<path d="M29.4667 188.037C29.4667 188.037 12.4592 187.014 14.4462 198.924C14.4462 198.924 14.0462 201.028 15.9589 201.984C15.9589 201.984 15.9901 201.091 17.7088 201.399C18.3192 201.501 18.9396 201.531 19.557 201.488C20.3919 201.433 21.1857 201.107 21.8173 200.559C21.8173 200.559 26.6061 198.584 28.468 190.775C28.468 190.775 29.8419 189.074 29.7879 188.636L26.9145 189.86C26.9145 189.86 27.8948 191.928 27.1249 193.648C27.1249 193.648 27.0309 189.935 26.4805 190.02C26.3685 190.02 24.9854 190.739 24.9854 190.739C24.9854 190.739 26.6773 194.344 25.4018 196.962C25.4018 196.962 25.885 192.522 24.4575 190.998L22.4344 192.196C22.4344 192.196 24.4083 195.917 23.07 198.955C23.07 198.955 23.4148 194.296 22.0093 192.482L20.1786 193.912C20.1786 193.912 22.0316 197.579 20.9037 200.1C20.9037 200.1 20.7518 194.676 19.7802 194.265C19.7802 194.265 18.1779 195.677 17.9316 196.258C17.9316 196.258 19.2027 198.938 18.4151 200.328C18.4151 200.328 17.9316 196.713 17.52 196.695C17.52 196.695 15.9221 199.09 15.7565 200.715C15.8365 199.199 16.3118 197.73 17.1352 196.454C16.2131 196.628 15.3622 197.067 14.687 197.718C14.687 197.718 14.9378 196.025 17.5292 195.877C17.5292 195.877 18.8719 194.059 19.2031 193.948C19.2031 193.948 16.6253 193.733 15.063 194.427C15.063 194.427 16.4369 192.832 19.673 193.556L21.4633 192.081C21.4633 192.081 18.0675 191.63 16.6277 192.128C16.6277 192.128 18.2835 190.716 21.9493 191.744L23.9187 190.569C23.9187 190.569 21.0229 189.948 19.2999 190.169C19.2999 190.169 21.1213 189.191 24.4963 190.249L25.9062 189.619C25.9062 189.619 23.7863 189.204 23.1624 189.137C22.5384 189.07 22.5088 188.9 22.5088 188.9C23.8524 188.677 25.2317 188.831 26.4921 189.347C26.4921 189.347 29.5191 188.223 29.4667 188.037Z" fill="#FFD100"/>
</g>
<defs>
<linearGradient id="paint0_linear" x1="83.7358" y1="153.381" x2="83.7358" y2="153.266" gradientUnits="userSpaceOnUse">
<stop stop-color="#808080" stop-opacity="0.251"/>
<stop offset="0.54" stop-color="#808080" stop-opacity="0.122"/>
<stop offset="1" stop-color="#808080" stop-opacity="0.102"/>
</linearGradient>
<clipPath id="clip0">
<rect width="361" height="299" fill="white"/>
</clipPath>
</defs>
</svg>
