<svg width="200" height="100" viewBox="0 0 200 100" fill="none" xmlns="http://www.w3.org/2000/svg">
<rect width="200" height="100" rx="10" fill="#C4C4C4"/>
<path d="M186.154 6.66667H143.077C138.829 6.66667 135.385 10.3976 135.385 15V38.3333C135.385 42.9357 138.829 46.6667 143.077 46.6667H186.154C190.402 46.6667 193.846 42.9357 193.846 38.3333V15C193.846 10.3976 190.402 6.66667 186.154 6.66667Z" fill="black"/>
<path d="M164.092 22.5H163.077L160.785 27.8167L158.462 22.5H155.385V29.55L152.431 22.5H149.508L146.154 30.8333H148.446L149.138 28.9833H152.738L153.477 30.8333H157.308V24.8167L159.877 30.8333H161.738L164.092 25.3167V30.8333H166.154V22.5H164.092ZM149.862 27.0833L150.892 24.3167L151.985 27.0833H149.862Z" fill="white"/>
<path d="M183.077 22.5H180.369L178.185 25L176.046 22.5H167.569V30.8333H175.877L178.154 28.2L180.369 30.8333H183.077L179.523 26.6667L183.077 22.5ZM173.846 30V28.9167H169.554V27.6H173.846V25.7167H169.554V24.4H173.846V23.15L176.815 26.6667L173.846 30Z" fill="white"/>
<path d="M56.9231 53.3333H13.8462C9.59783 53.3333 6.15387 57.0643 6.15387 61.6667V85C6.15387 89.6024 9.59783 93.3333 13.8462 93.3333H56.9231C61.1714 93.3333 64.6154 89.6024 64.6154 85V61.6667C64.6154 57.0643 61.1714 53.3333 56.9231 53.3333Z" fill="black"/>
<path d="M121.538 53.3333H78.4615C74.2132 53.3333 70.7692 57.0643 70.7692 61.6667V85C70.7692 89.6024 74.2132 93.3333 78.4615 93.3333H121.538C125.787 93.3333 129.231 89.6024 129.231 85V61.6667C129.231 57.0643 125.787 53.3333 121.538 53.3333Z" fill="black"/>
<path d="M186.154 53.3333H143.077C138.829 53.3333 135.385 57.0643 135.385 61.6667V85C135.385 89.6024 138.829 93.3333 143.077 93.3333H186.154C190.402 93.3333 193.846 89.6024 193.846 85V61.6667C193.846 57.0643 190.402 53.3333 186.154 53.3333Z" fill="black"/>
<path d="M24.0923 67.45C23.8862 67.7392 23.6199 67.9715 23.3151 68.1279C23.0103 68.2843 22.6756 68.3604 22.3385 68.35C22.301 67.63 22.5277 66.9231 22.9693 66.3833C23.4107 65.8285 24.0342 65.4817 24.7077 65.4167C24.7525 66.1551 24.532 66.8837 24.0923 67.45ZM24.6923 68.5C23.7231 68.5 22.9077 69.1 22.4462 69.1C21.9846 69.1 21.2769 68.5333 20.5077 68.55C20.0101 68.5606 19.5238 68.7124 19.0973 68.9903C18.6708 69.2681 18.319 69.6622 18.0769 70.1333C17.6874 71.1829 17.5508 72.3226 17.68 73.4451C17.8092 74.5677 18.1999 75.6362 18.8154 76.55C19.3077 77.3333 19.9077 78.2167 20.6769 78.2167C21.4462 78.2167 21.7077 77.7 22.6 77.7C23.4923 77.7 23.7539 78.2167 24.5385 78.2C25.3231 78.1833 25.8462 77.4167 26.3385 76.6333C26.6925 76.0813 26.9674 75.4744 27.1539 74.8333C26.6951 74.6088 26.306 74.2456 26.0331 73.7874C25.7602 73.3291 25.6152 72.7953 25.6154 72.25C25.6224 71.765 25.7415 71.2897 25.9619 70.8675C26.1823 70.4453 26.4969 70.0897 26.8769 69.8333C26.6334 69.4555 26.312 69.1443 25.9381 68.9244C25.5643 68.7045 25.1483 68.582 24.7231 68.5667L24.6923 68.5ZM30.3077 66.3833V78.05H32V74.0333H34.3231C34.8008 74.0617 35.2787 73.9815 35.7261 73.7978C36.1735 73.6142 36.5805 73.3313 36.921 72.9671C37.2615 72.603 37.5279 72.1657 37.7031 71.6835C37.8783 71.2012 37.9585 70.6845 37.9385 70.1667C37.9628 69.6541 37.8875 69.1418 37.7175 68.6627C37.5475 68.1837 37.2866 67.7487 36.9516 67.3858C36.6166 67.0229 36.2151 66.7402 35.7729 66.556C35.3307 66.3719 34.8577 66.2903 34.3846 66.3167L30.3077 66.3833ZM32 67.9167H33.8462C34.1446 67.8739 34.4481 67.9035 34.7347 68.0034C35.0213 68.1033 35.2838 68.271 35.5032 68.4943C35.7226 68.7177 35.8934 68.991 36.0033 69.2947C36.1131 69.5983 36.1593 69.9246 36.1385 70.25C36.1597 70.5769 36.1133 70.9049 36.0026 71.2099C35.8918 71.515 35.7196 71.7893 35.4984 72.013C35.2772 72.2366 35.0127 72.4039 34.7242 72.5025C34.4356 72.6012 34.1304 72.6288 33.8308 72.5833H31.9693L32 67.9167ZM41.0154 78.2167C41.5151 78.2337 42.0096 78.1031 42.4459 77.8389C42.8823 77.5746 43.244 77.1867 43.4923 76.7167V78.1167H45.0308V72.2833C45.0308 70.6167 43.7846 69.4833 41.8462 69.4833C41.1187 69.407 40.3922 69.6385 39.8187 70.1294C39.2452 70.6202 38.8691 71.3323 38.7693 72.1167H40.3077C40.4036 71.7593 40.6072 71.4469 40.8861 71.2294C41.1649 71.012 41.5029 70.9019 41.8462 70.9167C42.8769 70.9167 43.3846 71.4333 43.3846 72.4V73.05L41.2769 73.1833C39.3231 73.3167 38.2 74.1833 38.2 75.6833C38.2106 76.0524 38.294 76.4148 38.4448 76.746C38.5956 77.0772 38.8101 77.3696 39.074 77.6034C39.3379 77.8371 39.645 78.0069 39.9746 78.1012C40.3042 78.1955 40.6486 78.2121 40.9846 78.15L41.0154 78.2167ZM41.4769 76.8167C40.5693 76.8167 39.9385 76.35 39.9385 75.6333C39.9385 74.9167 40.4923 74.4667 41.4769 74.4L43.3539 74.2667V74.9333C43.3146 75.4447 43.0939 75.9196 42.7381 76.2583C42.3824 76.5971 41.9193 76.7733 41.4462 76.75L41.4769 76.8167ZM47.1693 81.3167C48.8154 81.3167 49.5846 80.6333 50.2462 78.5833L53.2 69.6H51.4769L49.4923 76.5333L47.5077 69.6H45.7077L48.5693 78.15L48.4154 78.6667C48.3626 79.0257 48.1885 79.3507 47.927 79.5786C47.6654 79.8065 47.3351 79.9211 47 79.9H46.5077V81.3C46.7188 81.3012 46.9298 81.2845 47.1385 81.25L47.1693 81.3167Z" fill="white"/>
<path d="M121.538 6.66667H78.4615C74.2132 6.66667 70.7692 10.3976 70.7692 15V38.3333C70.7692 42.9357 74.2132 46.6667 78.4615 46.6667H121.538C125.787 46.6667 129.231 42.9357 129.231 38.3333V15C129.231 10.3976 125.787 6.66667 121.538 6.66667Z" fill="black"/>
<path d="M121.538 6.66667H78.4615C74.2132 6.66667 70.7692 10.3976 70.7692 15V38.3333C70.7692 42.9357 74.2132 46.6667 78.4615 46.6667H121.538C125.787 46.6667 129.231 42.9357 129.231 38.3333V15C129.231 10.3976 125.787 6.66667 121.538 6.66667Z" fill="black"/>
<path d="M98.6307 20.1333C97.533 19.3195 96.251 18.8457 94.9229 18.763C93.5949 18.6804 92.2713 18.992 91.0947 19.6642C89.9181 20.3365 88.9332 21.3439 88.2462 22.5779C87.5591 23.8119 87.196 25.2256 87.196 26.6667C87.196 28.1077 87.5591 29.5215 88.2462 30.7554C88.9332 31.9894 89.9181 32.9969 91.0947 33.6691C92.2713 34.3414 93.5949 34.653 94.9229 34.5703C96.251 34.4876 97.533 34.0138 98.6307 33.2C97.1629 31.3951 96.3531 29.0721 96.3531 26.6667C96.3531 24.2612 97.1629 21.9383 98.6307 20.1333Z" fill="white"/>
<path d="M105.477 34.5833C109.513 34.5833 112.785 31.0389 112.785 26.6667C112.785 22.2944 109.513 18.75 105.477 18.75C101.441 18.75 98.1693 22.2944 98.1693 26.6667C98.1693 31.0389 101.441 34.5833 105.477 34.5833Z" fill="white"/>
<path d="M56.9231 6.66667H13.8462C9.59783 6.66667 6.15387 10.3976 6.15387 15V38.3333C6.15387 42.9357 9.59783 46.6667 13.8462 46.6667H56.9231C61.1714 46.6667 64.6154 42.9357 64.6154 38.3333V15C64.6154 10.3976 61.1714 6.66667 56.9231 6.66667Z" fill="black"/>
<path d="M30.4 20.9332L25.9846 32.4166H23.077L20.9385 23.3332C20.9212 23.1177 20.8526 22.9107 20.7393 22.7325C20.6261 22.5543 20.4721 22.411 20.2923 22.3166C19.4395 21.8741 18.5408 21.5439 17.6154 21.3332V20.9999H22.2308C22.5363 21.0038 22.8306 21.1248 23.0615 21.3414C23.2924 21.558 23.4451 21.8563 23.4923 22.1832L24.6308 28.8499L27.4616 21.0332L30.4 20.9332ZM41.677 28.6666C41.677 25.6499 37.8308 25.4832 37.8616 24.1166C37.8616 23.7166 38.2308 23.2666 39.0154 23.1666C39.9381 23.0653 40.8688 23.2382 41.7077 23.6666L42.1846 21.2332C41.3662 20.9089 40.5023 20.7397 39.6308 20.7332C36.9385 20.7332 35.0154 22.2832 35.0154 24.5332C35.0154 26.1999 36.3693 27.0999 37.4 27.6499C38.4308 28.1999 38.8154 28.5832 38.8154 29.0832C38.8154 29.8499 37.9693 30.1832 37.1846 30.1999C36.2098 30.2277 35.2449 29.9808 34.3846 29.4832L33.8462 31.9999C34.8276 32.4087 35.8717 32.6122 36.9231 32.5999C39.7846 32.5999 41.6462 31.0666 41.6616 28.6666H41.677ZM48.7693 32.4166H51.277L49.0923 20.9332H46.7846C46.5338 20.9329 46.2886 21.0137 46.0804 21.1651C45.8721 21.3165 45.7102 21.5317 45.6154 21.7832L41.5385 32.4166H44.4L44.9539 30.7499H48.4462L48.7693 32.4166ZM45.6923 28.3499L47.1385 24.0499L48 28.3332L45.6923 28.3499ZM34.2462 20.9332L32 32.4166H29.3231L31.5693 20.9332H34.2462Z" fill="white"/>
<g clip-path="url(#clip0)">
<path d="M98.3616 72.7673V77.4281H97.048V65.918H100.532C100.948 65.9082 101.361 65.9913 101.748 66.1623C102.135 66.3333 102.489 66.589 102.788 66.9145C103.09 67.2202 103.33 67.5952 103.492 68.0142C103.655 68.4332 103.736 68.8865 103.73 69.3436C103.739 69.8032 103.659 70.2594 103.496 70.6811C103.334 71.1028 103.092 71.4798 102.788 71.7865C102.178 72.4404 101.427 72.767 100.532 72.7664H98.3616V72.7673ZM98.3616 67.3351V71.353H100.564C100.806 71.3611 101.046 71.3123 101.27 71.2098C101.494 71.1074 101.696 70.9534 101.864 70.7579C102.031 70.5751 102.164 70.3564 102.255 70.1148C102.345 69.8733 102.392 69.6137 102.392 69.3514C102.392 69.0891 102.345 68.8295 102.255 68.588C102.164 68.3464 102.031 68.1277 101.864 67.9449C101.698 67.7453 101.497 67.5876 101.273 67.4823C101.049 67.377 100.807 67.3265 100.564 67.3342H98.3616V67.3351Z" fill="white"/>
<path d="M106.757 69.2963C107.728 69.2963 108.494 69.5884 109.056 70.1725C109.618 70.7566 109.898 71.5574 109.898 72.575V77.4286H108.641V76.3357H108.584C108.04 77.2358 107.317 77.6858 106.414 77.6858C105.643 77.6858 104.999 77.4286 104.48 76.9143C104.231 76.6783 104.032 76.3827 103.897 76.049C103.762 75.7154 103.696 75.3521 103.701 74.9857C103.701 74.1708 103.975 73.5227 104.522 73.0415C105.069 72.5603 105.8 72.319 106.714 72.3178C107.494 72.3178 108.136 72.4785 108.641 72.8V72.462C108.642 72.2122 108.594 71.9652 108.5 71.7388C108.407 71.5125 108.269 71.3125 108.098 71.1533C107.751 70.8005 107.298 70.608 106.83 70.6142C106.097 70.6142 105.516 70.9626 105.088 71.6593L103.931 70.8392C104.568 69.8106 105.51 69.2963 106.757 69.2963ZM105.057 75.0179C105.056 75.206 105.096 75.3917 105.171 75.5595C105.247 75.7272 105.357 75.8721 105.493 75.9822C105.784 76.2394 106.144 76.3757 106.514 76.3679C107.068 76.3668 107.599 76.1185 107.991 75.6773C108.426 75.2162 108.644 74.6753 108.644 74.0545C108.234 73.6871 107.663 73.5034 106.931 73.5034C106.397 73.5034 105.952 73.6482 105.596 73.9378C105.236 74.2317 105.057 74.589 105.057 75.0179Z" fill="white"/>
<path d="M117.11 69.5534L112.724 80.9001H111.368L112.996 76.9299L110.112 69.5534H111.539L113.624 75.2107H113.652L115.68 69.5534H117.11Z" fill="white"/>
<path d="M93.0535 71.7628C93.054 71.3122 93.0202 70.8624 92.9524 70.4183H87.4127V72.965H90.5856C90.5206 73.3717 90.3832 73.7594 90.1816 74.1048C89.9799 74.4501 89.7183 74.7459 89.4123 74.9744V76.6275H91.306C92.4147 75.4767 93.0535 73.775 93.0535 71.7628Z" fill="white"/>
<path d="M87.4127 78.2251C88.9979 78.2251 90.3326 77.6392 91.306 76.6289L89.4124 74.9759C88.8853 75.3781 88.2065 75.6077 87.4127 75.6077C85.8805 75.6077 84.58 74.445 84.1149 72.8783H82.1642V74.5819C82.6531 75.677 83.4028 76.5977 84.3296 77.241C85.2564 77.8843 86.3238 78.225 87.4127 78.2251Z" fill="white"/>
<path d="M84.1155 72.878C83.8697 72.057 83.8697 71.1679 84.1155 70.3469V68.6433H82.1648C81.7535 69.5646 81.5393 70.5814 81.5393 71.6125C81.5393 72.6436 81.7535 73.6603 82.1648 74.5816L84.1155 72.878Z" fill="white"/>
<path d="M87.4127 67.6167C88.2504 67.6013 89.0599 67.9576 89.6661 68.6086L91.3427 66.7213C90.2795 65.5973 88.8711 64.9801 87.4127 64.9993C86.3238 64.9994 85.2564 65.3401 84.3296 65.9834C83.4028 66.6268 82.6531 67.5474 82.1642 68.6426L84.1149 70.3462C84.58 68.7794 85.8805 67.6167 87.4127 67.6167Z" fill="white"/>
</g>
<path d="M144.615 76.2182H147.485C147.485 76.3407 147.478 76.4577 147.487 76.5738C147.54 77.2571 147.823 77.5635 148.488 77.5814C149.135 77.5987 149.785 77.5821 150.432 77.5526C150.92 77.5302 151.224 77.2011 151.246 76.7034C151.256 76.475 151.253 76.2382 151.205 76.0166C151.139 75.7089 150.929 75.5128 150.618 75.4792C150.013 75.4134 149.405 75.3652 148.798 75.3086C148.017 75.2359 147.228 75.2251 146.466 75.0035C146.017 74.8729 145.601 74.6758 145.281 74.3083C144.98 73.9633 144.839 73.5443 144.768 73.0991C144.622 72.1939 144.625 71.2897 144.808 70.3886C144.989 69.4996 145.559 68.9887 146.359 68.705C147.013 68.4733 147.696 68.4475 148.376 68.4316C149.139 68.4139 149.904 68.4143 150.667 68.4343C151.21 68.4485 151.753 68.4998 152.272 68.6874C153.15 69.0039 153.637 69.6622 153.807 70.5786C153.863 70.8761 153.868 71.1839 153.887 71.4875C153.898 71.6663 153.889 71.8465 153.889 72.0399H151.042C151.022 71.8336 151.006 71.6324 150.983 71.4319C150.95 71.1462 150.804 70.9457 150.533 70.8676C150.338 70.812 150.138 70.7638 149.937 70.7486C149.383 70.7068 148.829 70.7109 148.28 70.829C147.919 70.907 147.707 71.1306 147.666 71.5041C147.642 71.7155 147.629 71.935 147.657 72.1444C147.716 72.5837 147.946 72.7955 148.402 72.8375C149.004 72.8935 149.608 72.9271 150.21 72.977C150.932 73.0367 151.66 73.0482 152.365 73.2471C152.921 73.4041 153.427 73.6491 153.776 74.1509C154.009 74.4861 154.118 74.8644 154.158 75.2712C154.241 76.1076 154.231 76.9412 154.101 77.7714C153.938 78.808 153.311 79.4275 152.365 79.7081C151.921 79.8401 151.453 79.914 150.991 79.9483C149.888 80.0301 148.782 80.0117 147.68 79.913C147.213 79.8713 146.738 79.801 146.291 79.6616C145.448 79.3987 144.92 78.7957 144.778 77.8932C144.691 77.3453 144.668 76.7865 144.615 76.2182Z" fill="white"/>
<path d="M186.113 79.9817H183.036C182.936 79.6401 182.834 79.2916 182.732 78.9432C182.652 78.6677 182.573 78.3918 182.496 78.1153C182.471 78.0251 182.433 77.9779 182.328 77.9782C181.058 77.9833 179.788 77.9847 178.518 77.9806C178.4 77.9803 178.36 78.0206 178.33 78.1319C178.168 78.7467 177.997 79.3591 177.827 79.981H174.679C174.752 79.7279 174.824 79.4772 174.897 79.2268C175.827 76.0409 176.757 72.855 177.687 69.6691C177.805 69.264 177.929 68.8606 178.043 68.4545C178.07 68.3595 178.112 68.3337 178.205 68.334C179.645 68.3374 181.086 68.3388 182.526 68.3333C182.655 68.333 182.693 68.3897 182.725 68.4976C183.271 70.348 183.82 72.1978 184.367 74.0479C184.935 75.9683 185.502 77.889 186.069 79.81C186.084 79.863 186.096 79.9173 186.113 79.9817ZM181.848 75.704C181.375 74.0337 180.907 72.3793 180.439 70.725C180.425 70.726 180.411 70.7267 180.396 70.7277C179.943 72.3824 179.489 74.0371 179.032 75.704H181.848ZM166.362 68.3364H166.542C168.374 68.3364 170.205 68.3296 172.037 68.3401C172.651 68.3435 173.268 68.3561 173.862 68.5576C174.972 68.9332 175.623 69.7315 175.812 70.897C176.016 72.1591 175.997 73.4321 175.783 74.6929C175.584 75.8692 174.777 76.6791 173.629 76.8633C173.208 76.9309 172.775 76.9363 172.348 76.9448C171.408 76.9634 170.468 76.9655 169.528 76.975C169.49 76.9753 169.453 76.9804 169.398 76.9848V79.979H166.362C166.362 76.1016 166.362 72.2307 166.362 68.3364ZM169.412 70.8885C169.402 70.9309 169.395 70.9469 169.395 70.9628C169.394 72.0312 169.394 73.0996 169.391 74.168C169.391 74.2712 169.438 74.2912 169.522 74.2892C170.357 74.2685 171.192 74.2627 172.026 74.2247C172.476 74.204 172.686 73.9804 172.76 73.5244C172.846 72.9972 172.848 72.4648 172.786 71.9369C172.697 71.18 172.377 70.9 171.628 70.8892C171.227 70.8834 170.825 70.8885 170.424 70.8885H169.412Z" fill="white"/>
<path d="M165.551 69.8558C164.091 68.5607 162.4 68.0793 160.522 68.4599C158.605 68.8481 157.214 69.9871 156.381 71.8182C156.336 71.9169 156.285 71.9492 156.183 71.9471C155.853 71.9414 155.523 71.9485 155.193 71.9427C155.087 71.9407 155.028 71.9682 154.981 72.0771C154.819 72.454 154.643 72.8238 154.474 73.1974C154.401 73.3579 154.332 73.5204 154.248 73.7148H155.906V74.6485C155.682 74.6485 155.464 74.6533 155.245 74.6465C155.148 74.6434 155.099 74.677 155.059 74.7686C154.909 75.114 154.75 75.455 154.595 75.798C154.505 75.9955 154.416 76.1933 154.319 76.4098H154.525C155.092 76.4098 155.658 76.4114 156.225 76.4087C156.315 76.4084 156.37 76.4277 156.416 76.5221C157.449 78.6328 159.122 79.7585 161.408 79.9041C162.621 79.9811 163.747 79.6591 164.782 78.9999C164.882 78.9357 164.925 78.8709 164.923 78.7468C164.916 78.2833 164.92 77.8195 164.92 77.356V76.7168C164.035 77.7225 162.972 78.2422 161.678 78.1812C160.385 78.1201 159.374 77.5155 158.612 76.4623C158.617 76.445 158.623 76.4277 158.628 76.4104H158.817C160.065 76.4104 161.314 76.4081 162.562 76.4145C162.694 76.4152 162.754 76.3721 162.804 76.2523C162.911 75.9928 163.034 75.74 163.15 75.4838C163.271 75.2144 163.392 74.9444 163.525 74.6492H163.321C161.594 74.6489 159.867 74.6489 158.141 74.6485C158.097 74.6485 158.048 74.6604 158.01 74.6448C157.968 74.6275 157.905 74.5858 157.904 74.5532C157.896 74.278 157.899 74.0022 157.899 73.705H158.1C160.003 73.7053 161.906 73.7046 163.808 73.709C163.92 73.7094 163.977 73.6714 164.021 73.572C164.244 73.0688 164.472 72.5677 164.697 72.0652C164.712 72.0326 164.718 71.996 164.736 71.9349H158.483C159.692 69.7696 163.021 69.073 164.992 71.5312C165.205 71.0612 165.403 70.609 165.616 70.1649C165.681 70.0268 165.661 69.9531 165.551 69.8558Z" fill="white"/>
<defs>
<clipPath id="clip0">
<rect width="35.5692" height="15.9" fill="white" transform="translate(81.5385 65)"/>
</clipPath>
</defs>
</svg>
