<svg width="188" height="78" viewBox="0 0 188 78" fill="none" xmlns="http://www.w3.org/2000/svg">
<path d="M163.263 0H24.7368C11.0751 0 0 7.27537 0 16.25V61.75C0 70.7246 11.0751 78 24.7368 78H163.263C176.925 78 188 70.7246 188 61.75V16.25C188 7.27537 176.925 0 163.263 0Z" fill="black"/>
<path d="M151.629 14H150.462L147.825 20.38L145.154 14H141.615V22.46L138.218 14H134.857L131 24H133.636L134.432 21.78H138.572L139.422 24H143.827V16.78L146.782 24H148.922L151.629 17.38V24H154V14H151.629ZM135.264 19.5L136.449 16.18L137.705 19.5H135.264Z" fill="white"/>
<path d="M173 14H169.857L167.321 17L164.839 14H155V24H164.643L167.286 20.84L169.857 24H173L168.875 19L173 14ZM162.286 23V21.7H157.304V20.12H162.286V17.86H157.304V16.28H162.286V14.78L165.732 19L162.286 23Z" fill="white"/>
<path d="M23.0721 52.0333C22.8783 52.3226 22.628 52.5549 22.3414 52.7113C22.0549 52.8677 21.7404 52.9438 21.4234 52.9333C21.3882 52.2133 21.6013 51.5064 22.0164 50.9667C22.4313 50.4118 23.0175 50.0651 23.6505 50C23.6927 50.7384 23.4854 51.467 23.0721 52.0333V52.0333ZM23.6361 53.0833C22.725 53.0833 21.9585 53.6833 21.5247 53.6833C21.0908 53.6833 20.4256 53.1167 19.7025 53.1333C19.2348 53.144 18.7777 53.2958 18.3767 53.5736C17.9758 53.8514 17.6451 54.2456 17.4176 54.7167C17.0514 55.7662 16.923 56.9059 17.0444 58.0285C17.1659 59.151 17.5332 60.2195 18.1118 61.1333C18.5745 61.9167 19.1385 62.8 19.8616 62.8C20.5847 62.8 20.8305 62.2833 21.6693 62.2833C22.5081 62.2833 22.7539 62.8 23.4914 62.7833C24.229 62.7667 24.7207 62 25.1834 61.2167C25.5162 60.6646 25.7746 60.0578 25.9499 59.4167C25.5187 59.1921 25.1529 58.8289 24.8964 58.3707C24.6399 57.9125 24.5035 57.3787 24.5038 56.8333C24.5103 56.3484 24.6223 55.873 24.8294 55.4508C25.0366 55.0286 25.3323 54.6731 25.6896 54.4167C25.4607 54.0388 25.1585 53.7276 24.8071 53.5077C24.4557 53.2879 24.0646 53.1654 23.665 53.15L23.6361 53.0833ZM28.9145 50.9667V62.6333H30.5053V58.6167H32.689C33.138 58.645 33.5873 58.5648 34.0078 58.3812C34.4284 58.1976 34.811 57.9146 35.131 57.5505C35.4511 57.1863 35.7015 56.7491 35.8662 56.2668C36.0309 55.7845 36.1063 55.2678 36.0874 54.75C36.1103 54.2375 36.0395 53.7251 35.8797 53.2461C35.7199 52.767 35.4747 52.332 35.1598 51.9691C34.8449 51.6062 34.4674 51.3235 34.0518 51.1394C33.6361 50.9552 33.1916 50.8737 32.7468 50.9L28.9145 50.9667ZM30.5053 52.5H32.2407C32.5212 52.4572 32.8065 52.4868 33.0759 52.5868C33.3453 52.6867 33.592 52.8544 33.7982 53.0777C34.0045 53.301 34.1651 53.5744 34.2683 53.878C34.3716 54.1817 34.415 54.508 34.3954 54.8333C34.4154 55.1603 34.3718 55.4883 34.2677 55.7933C34.1636 56.0983 34.0016 56.3727 33.7937 56.5963C33.5858 56.8199 33.3372 56.9872 33.066 57.0859C32.7948 57.1846 32.5079 57.2122 32.2262 57.1667H30.4764L30.5053 52.5ZM38.9798 62.8C39.4494 62.8171 39.9143 62.6865 40.3245 62.4222C40.7346 62.158 41.0747 61.77 41.3081 61.3V61.3V62.7H42.7542V56.8667C42.7542 55.2 41.5828 54.0667 39.7607 54.0667C39.0768 53.9904 38.3939 54.2219 37.8548 54.7127C37.3157 55.2035 36.9623 55.9156 36.8684 56.7H38.3145C38.4047 56.3426 38.5961 56.0303 38.8582 55.8128C39.1203 55.5953 39.438 55.4852 39.7607 55.5C40.7296 55.5 41.2068 56.0167 41.2068 56.9833V57.6333L39.2256 57.7667C37.389 57.9 36.3333 58.7667 36.3333 60.2667C36.3432 60.6358 36.4217 60.9982 36.5634 61.3294C36.7051 61.6606 36.9068 61.9529 37.1549 62.1867C37.4029 62.4205 37.6916 62.5902 38.0014 62.6845C38.3112 62.7788 38.635 62.7955 38.9508 62.7333L38.9798 62.8ZM39.4136 61.4C38.5604 61.4 37.9674 60.9333 37.9674 60.2167C37.9674 59.5 38.4881 59.05 39.4136 58.9833L41.1779 58.85V59.5167C41.141 60.028 40.9335 60.5029 40.5991 60.8417C40.2647 61.1804 39.8294 61.3567 39.3847 61.3333L39.4136 61.4ZM44.7644 65.9C46.3118 65.9 47.0348 65.2167 47.6567 63.1667L50.4333 54.1833H48.8136L46.9481 61.1167L45.0825 54.1833H43.3905L46.0804 62.7333L45.9357 63.25C45.8861 63.6091 45.7225 63.9341 45.4766 64.162C45.2308 64.3899 44.9203 64.5044 44.6053 64.4833H44.1425V65.8833C44.341 65.8845 44.5392 65.8678 44.7354 65.8333L44.7644 65.9Z" fill="white"/>
<path d="M92.7486 12.3833C91.7167 11.5695 90.5116 11.0957 89.2633 11.013C88.0149 10.9304 86.7707 11.242 85.6647 11.9142C84.5587 12.5865 83.6329 13.5939 82.9871 14.8279C82.3413 16.0619 82 17.4756 82 18.9167C82 20.3577 82.3413 21.7715 82.9871 23.0054C83.6329 24.2394 84.5587 25.2468 85.6647 25.9191C86.7707 26.5914 88.0149 26.903 89.2633 26.8203C90.5116 26.7376 91.7167 26.2638 92.7486 25.45C91.3689 23.6451 90.6077 21.3221 90.6077 18.9167C90.6077 16.5112 91.3689 14.1883 92.7486 12.3833V12.3833Z" fill="white"/>
<path d="M99.1841 26.8333C102.978 26.8333 106.053 23.2889 106.053 18.9167C106.053 14.5444 102.978 11 99.1841 11C95.3903 11 92.3148 14.5444 92.3148 18.9167C92.3148 23.2889 95.3903 26.8333 99.1841 26.8333Z" fill="white"/>
<g clip-path="url(#clip0)">
<path d="M92.9188 58.8391V62.943H91.4416V52.8083H95.3593C95.8269 52.7997 96.2919 52.8728 96.7273 53.0234C97.1627 53.174 97.56 53.3991 97.8962 53.6857C98.2358 53.9549 98.506 54.285 98.6888 54.654C98.8716 55.0229 98.9626 55.422 98.9559 55.8245C98.9656 56.2292 98.8759 56.6309 98.693 57.0022C98.5101 57.3735 98.2383 57.7055 97.8962 57.9755C97.2111 58.5513 96.3655 58.8389 95.3593 58.8383H92.9188V58.8391ZM92.9188 54.056V57.5938H95.396C95.6676 57.6009 95.9378 57.558 96.1895 57.4678C96.4412 57.3775 96.6687 57.242 96.8576 57.0698C97.0454 56.9089 97.1947 56.7163 97.2967 56.5036C97.3987 56.2909 97.4512 56.0623 97.4512 55.8314C97.4512 55.6005 97.3987 55.3719 97.2967 55.1592C97.1947 54.9465 97.0454 54.7539 96.8576 54.593C96.6711 54.4172 96.4443 54.2783 96.1924 54.1856C95.9404 54.0929 95.6689 54.0485 95.396 54.0552H92.9188V54.056Z" fill="white"/>
<path d="M102.36 55.783C103.452 55.783 104.313 56.0401 104.945 56.5544C105.577 57.0687 105.893 57.7738 105.892 58.6698V62.9435H104.479V61.9812H104.415C103.803 62.7737 102.99 63.1699 101.974 63.1699C101.108 63.1699 100.383 62.9435 99.799 62.4906C99.519 62.2828 99.2951 62.0225 99.1437 61.7287C98.9923 61.435 98.9171 61.1151 98.9237 60.7925C98.9237 60.075 99.2314 59.5043 99.8467 59.0806C100.462 58.6569 101.284 58.4445 102.311 58.4434C103.188 58.4434 103.911 58.5849 104.478 58.8679V58.5703C104.48 58.3504 104.426 58.1329 104.321 57.9336C104.215 57.7343 104.06 57.5582 103.868 57.418C103.477 57.1074 102.968 56.9379 102.442 56.9434C101.617 56.9434 100.964 57.2501 100.483 57.8636L99.1825 57.1415C99.8981 56.2358 100.957 55.783 102.36 55.783ZM100.449 60.8208C100.448 60.9865 100.492 61.15 100.577 61.2977C100.662 61.4454 100.786 61.573 100.939 61.6699C101.265 61.8964 101.671 62.0163 102.086 62.0095C102.71 62.0086 103.307 61.7899 103.748 61.4014C104.237 60.9955 104.482 60.5192 104.482 59.9725C104.021 59.6491 103.379 59.4873 102.555 59.4873C101.955 59.4873 101.455 59.6148 101.054 59.8698C100.65 60.1286 100.449 60.4432 100.449 60.8208V60.8208Z" fill="white"/>
<path d="M114.003 56.0093L109.07 66H107.545L109.376 62.5043L106.132 56.0093H107.738L110.082 60.9905H110.114L112.394 56.0093H114.003Z" fill="white"/>
<path d="M86.9495 57.9546C86.9501 57.5578 86.912 57.1618 86.8357 56.7708H80.606V59.0131H84.1741C84.1011 59.3713 83.9465 59.7126 83.7198 60.0167C83.493 60.3208 83.1988 60.5813 82.8547 60.7824V62.238H84.9842C86.2311 61.2247 86.9495 59.7263 86.9495 57.9546Z" fill="white"/>
<path d="M80.6059 63.6447C82.3886 63.6447 83.8897 63.1288 84.9842 62.2393L82.8547 60.7837C82.262 61.1379 81.4987 61.34 80.6059 61.34C78.8829 61.34 77.4204 60.3163 76.8974 58.9368H74.7037V60.4368C75.2535 61.4011 76.0966 62.2117 77.1389 62.7782C78.1811 63.3446 79.3815 63.6446 80.6059 63.6447V63.6447Z" fill="white"/>
<path d="M76.898 58.9367C76.6215 58.2138 76.6215 57.4309 76.898 56.708V55.208H74.7043C74.2417 56.0192 74.0009 56.9145 74.0009 57.8223C74.0009 58.7302 74.2417 59.6255 74.7043 60.4367L76.898 58.9367Z" fill="white"/>
<path d="M80.6059 54.3039C81.548 54.2903 82.4583 54.6041 83.1401 55.1772L85.0255 53.5155C83.8299 52.5258 82.2461 51.9824 80.6059 51.9993C79.3815 51.9993 78.1811 52.2993 77.1389 52.8658C76.0966 53.4323 75.2535 54.2429 74.7037 55.2072L76.8974 56.7072C77.4204 55.3276 78.8829 54.3039 80.6059 54.3039Z" fill="white"/>
</g>
<path d="M131 60.1103H133.766C133.766 60.2362 133.759 60.3566 133.768 60.476C133.819 61.1788 134.092 61.494 134.733 61.5125C135.357 61.5303 135.983 61.5132 136.607 61.4828C137.077 61.4598 137.37 61.1213 137.391 60.6093C137.401 60.3744 137.398 60.1308 137.352 59.903C137.289 59.5864 137.086 59.3847 136.786 59.3502C136.202 59.2825 135.616 59.2329 135.032 59.1746C134.279 59.0999 133.518 59.0888 132.784 58.8609C132.351 58.7265 131.95 58.5238 131.641 58.1458C131.351 57.7909 131.216 57.3599 131.147 56.902C131.006 55.9709 131.009 55.0409 131.186 54.114C131.36 53.1996 131.909 52.6741 132.681 52.3823C133.311 52.144 133.969 52.1174 134.625 52.101C135.361 52.0829 136.097 52.0832 136.833 52.1038C137.356 52.1185 137.88 52.1712 138.381 52.3642C139.226 52.6898 139.696 53.3668 139.86 54.3094C139.914 54.6155 139.919 54.932 139.937 55.2444C139.947 55.4283 139.939 55.6136 139.939 55.8125H137.195C137.176 55.6003 137.16 55.3934 137.138 55.1871C137.106 54.8933 136.966 54.687 136.704 54.6068C136.516 54.5495 136.323 54.5 136.13 54.4843C135.596 54.4413 135.061 54.4455 134.533 54.567C134.184 54.6472 133.98 54.8772 133.94 55.2615C133.918 55.4789 133.905 55.7047 133.932 55.92C133.988 56.3719 134.211 56.5897 134.65 56.633C135.23 56.6905 135.812 56.7251 136.393 56.7764C137.088 56.8378 137.79 56.8497 138.47 57.0542C139.006 57.2158 139.493 57.4677 139.83 57.9839C140.054 58.3287 140.16 58.7178 140.199 59.1362C140.278 59.9965 140.268 60.8539 140.143 61.7079C139.986 62.7741 139.382 63.4113 138.47 63.6999C138.042 63.8357 137.591 63.9117 137.146 63.947C136.083 64.0311 135.016 64.0123 133.954 63.9107C133.504 63.8678 133.046 63.7955 132.615 63.6521C131.803 63.3816 131.294 62.7615 131.157 61.8332C131.073 61.2696 131.051 60.6948 131 60.1103V60.1103Z" fill="white"/>
<path d="M171 63.9814H168.034C167.938 63.6299 167.839 63.2715 167.741 62.9131C167.664 62.6297 167.588 62.346 167.514 62.0616C167.49 61.9688 167.453 61.9203 167.352 61.9206C166.128 61.9258 164.904 61.9272 163.679 61.923C163.566 61.9227 163.527 61.9642 163.498 62.0787C163.342 62.7111 163.177 63.341 163.014 63.9807H159.978C160.049 63.7203 160.118 63.4624 160.189 63.2049C161.085 59.9279 161.981 56.6509 162.878 53.374C162.992 52.9573 163.112 52.5423 163.222 52.1246C163.247 52.0269 163.288 52.0004 163.377 52.0007C164.766 52.0042 166.154 52.0056 167.543 52C167.667 51.9997 167.704 52.0579 167.735 52.1689C168.261 54.0723 168.79 55.9749 169.317 57.878C169.865 59.8532 170.411 61.8288 170.958 63.8048C170.972 63.8592 170.984 63.9151 171 63.9814V63.9814ZM166.889 59.5814C166.433 57.8633 165.982 56.1616 165.531 54.46C165.517 54.461 165.504 54.4617 165.49 54.4628C165.053 56.1648 164.615 57.8668 164.174 59.5814H166.889ZM151.962 52.0031H152.136C153.901 52.0031 155.667 51.9962 157.432 52.007C158.024 52.0105 158.619 52.0234 159.192 52.2307C160.261 52.617 160.889 53.4382 161.071 54.6369C161.268 55.9352 161.249 57.2446 161.043 58.5414C160.851 59.7513 160.073 60.5843 158.967 60.7738C158.561 60.8433 158.144 60.8489 157.732 60.8576C156.826 60.8768 155.919 60.8789 155.013 60.8887C154.977 60.889 154.941 60.8942 154.889 60.8988V63.9786H151.962C151.962 59.9904 151.962 56.0088 151.962 52.0031ZM154.902 54.6282C154.892 54.6718 154.885 54.6882 154.885 54.7046C154.884 55.8036 154.885 56.9025 154.882 58.0015C154.881 58.1076 154.927 58.1282 155.008 58.1261C155.813 58.1048 156.618 58.0989 157.422 58.0598C157.855 58.0385 158.057 57.8085 158.129 57.3395C158.212 56.7972 158.214 56.2496 158.154 55.7066C158.068 54.928 157.76 54.6401 157.038 54.6289C156.651 54.623 156.264 54.6282 155.877 54.6282H154.902Z" fill="white"/>
<path d="M151.181 53.5659C149.773 52.2339 148.143 51.7387 146.332 52.1302C144.485 52.5295 143.144 53.701 142.341 55.5845C142.298 55.686 142.248 55.7192 142.15 55.7171C141.832 55.7112 141.514 55.7185 141.196 55.7125C141.094 55.7105 141.037 55.7387 140.991 55.8507C140.836 56.2385 140.666 56.6189 140.503 57.0031C140.433 57.1682 140.366 57.3353 140.285 57.5353H141.884V58.4957C141.667 58.4957 141.457 58.5006 141.246 58.4936C141.153 58.4905 141.105 58.525 141.067 58.6192C140.922 58.9745 140.769 59.3252 140.619 59.6781C140.533 59.8812 140.447 60.0846 140.354 60.3073H140.552C141.098 60.3073 141.644 60.309 142.19 60.3062C142.277 60.3059 142.33 60.3258 142.375 60.4228C143.37 62.5938 144.983 63.7518 147.187 63.9015C148.356 63.9807 149.441 63.6495 150.439 62.9714C150.536 62.9055 150.577 62.8388 150.575 62.7111C150.568 62.2344 150.572 61.7573 150.572 61.2806V60.6231C149.719 61.6575 148.694 62.1922 147.447 62.1293C146.201 62.0665 145.226 61.4446 144.492 60.3614C144.497 60.3436 144.502 60.3258 144.507 60.308H144.689C145.893 60.308 147.096 60.3055 148.299 60.3122C148.426 60.3129 148.484 60.2685 148.532 60.1454C148.635 59.8784 148.754 59.6184 148.866 59.3549C148.983 59.0778 149.099 58.8 149.227 58.4964H149.031C147.366 58.4961 145.702 58.4961 144.037 58.4957C143.995 58.4957 143.948 58.5079 143.911 58.4919C143.871 58.4741 143.81 58.4311 143.809 58.3976C143.801 58.1146 143.805 57.8309 143.805 57.5252H143.998C145.832 57.5255 147.666 57.5248 149.5 57.5294C149.608 57.5297 149.663 57.4906 149.706 57.3884C149.921 56.8708 150.14 56.3554 150.357 55.8385C150.371 55.805 150.377 55.7673 150.395 55.7045H144.367C145.533 53.4773 148.741 52.7608 150.641 55.2892C150.847 54.8059 151.038 54.3407 151.243 53.8839C151.306 53.7418 151.287 53.6661 151.181 53.5659V53.5659Z" fill="white"/>
<path d="M30.0175 15.2L25.8671 26.6833H23.1338L21.1237 17.6C21.1075 17.3844 21.0429 17.1774 20.9365 16.9992C20.83 16.821 20.6852 16.6777 20.5163 16.5833C19.7147 16.1408 18.8699 15.8107 18 15.6V15.2667H22.3385C22.6256 15.2706 22.9022 15.3916 23.1193 15.6082C23.3364 15.8248 23.4799 16.123 23.5243 16.45L24.5945 23.1167L27.2554 15.3L30.0175 15.2ZM40.6178 22.9333C40.6178 19.9167 37.0025 19.75 37.0314 18.3833C37.0314 17.9833 37.3785 17.5333 38.116 17.4333C38.9833 17.3321 39.8582 17.505 40.6468 17.9333L41.0951 15.5C40.3257 15.1756 39.5137 15.0065 38.6945 15C36.1637 15 34.356 16.55 34.356 18.8C34.356 20.4667 35.6286 21.3667 36.5975 21.9167C37.5665 22.4667 37.928 22.85 37.928 23.35C37.928 24.1167 37.1326 24.45 36.3951 24.4667C35.4787 24.4945 34.5718 24.2475 33.7631 23.75L33.2569 26.2667C34.1795 26.6754 35.1609 26.879 36.1492 26.8667C38.8391 26.8667 40.5889 25.3333 40.6034 22.9333H40.6178ZM47.2846 26.6833H49.6418L47.5883 15.2H45.4191C45.1833 15.1997 44.9528 15.2804 44.7571 15.4318C44.5613 15.5832 44.4091 15.7985 44.32 16.05L40.4877 26.6833H43.1775L43.6982 25.0167H46.9809L47.2846 26.6833ZM44.3923 22.6167L45.7517 18.3167L46.5615 22.6L44.3923 22.6167ZM33.6329 15.2L31.5215 26.6833H29.0052L31.1166 15.2H33.6329Z" fill="white"/>
<defs>
<clipPath id="clip0">
<rect width="40" height="14" fill="white" transform="translate(74 52)"/>
</clipPath>
</defs>
</svg>
