<svg width="188" height="78" viewBox="0 0 188 78" fill="none" xmlns="http://www.w3.org/2000/svg">
<path d="M163.263 0H24.7368C11.0751 0 0 7.27537 0 16.25V61.75C0 70.7246 11.0751 78 24.7368 78H163.263C176.925 78 188 70.7246 188 61.75V16.25C188 7.27537 176.925 0 163.263 0Z" fill="black"/>
<path d="M163.263 0H24.7368C11.0751 0 0 7.27537 0 16.25V61.75C0 70.7246 11.0751 78 24.7368 78H163.263C176.925 78 188 70.7246 188 61.75V16.25C188 7.27537 176.925 0 163.263 0Z" fill="black"/>
<path d="M82.4688 10C69.6094 10 60.001 14.9022 60.001 19.2849C60.001 23.6678 69.6094 28.57 82.4688 28.57C95.3281 28.57 104.937 23.6678 104.937 19.2849C104.937 14.9022 95.3281 10 82.4688 10Z" fill="white"/>
<path d="M60.0001 56.4267C60.0001 60.8095 69.6086 65.7116 82.4679 65.7116C84.3446 65.7116 86.1513 65.6064 87.8699 65.4146C86.421 63.6196 85.2231 61.6277 84.326 59.4885C83.7094 59.5085 83.0909 59.5223 82.4677 59.5223C75.1199 59.5223 68.1614 58.1184 62.8746 55.5692C61.8336 55.0674 60.8757 54.5281 60.0001 53.9573V56.4267Z" fill="white"/>
<path d="M82.468 47.1416C75.1202 47.1416 68.1619 45.7377 62.8749 43.1886C61.8337 42.6867 60.8755 42.1474 60 41.5768V44.046C60 48.429 69.6084 53.3311 82.4678 53.3311C82.5337 53.3311 82.5988 53.3301 82.6645 53.3299C82.5326 52.3154 82.4639 51.2821 82.4639 50.2337C82.4639 49.1857 82.5322 48.153 82.664 47.1393C82.5988 47.1395 82.5339 47.1416 82.468 47.1416Z" fill="white"/>
<path d="M82.468 34.7608C75.1202 34.7608 68.1619 33.3569 62.8749 30.8078C61.8337 30.3057 60.8755 29.7666 60 29.1958V31.6652C60 36.048 69.6084 40.9499 82.4678 40.9499C83.1047 40.9499 83.7333 40.9375 84.3535 40.914C85.3502 38.5566 86.7117 36.3792 88.3723 34.4482C86.4502 34.6527 84.4746 34.7608 82.468 34.7608Z" fill="white"/>
<path d="M92.0983 39.9732C90.7093 41.9868 89.717 44.2752 89.2288 46.7344C89.0039 47.868 88.8846 49.0375 88.8846 50.2334C88.8846 51.1326 88.9525 52.0167 89.0813 52.882C89.3974 55.0078 90.0881 57.0179 91.0866 58.849C92.1345 60.7706 93.5204 62.4948 95.169 63.9466C98.5954 66.964 103.152 68.8069 108.146 68.8069C118.767 68.8069 127.407 60.4748 127.407 50.2334C127.407 39.9918 118.767 31.6599 108.146 31.6599C107.048 31.6599 105.972 31.7503 104.924 31.9212C99.5848 32.7919 94.9858 35.7882 92.0983 39.9732ZM109.145 41.054C112.542 41.054 114.915 43.0063 114.915 45.8014C114.915 46.7866 114.305 47.3749 113.283 47.3749C112.156 47.3749 111.651 46.6871 111.651 46.0053C111.651 44.2746 109.915 44.0879 109.169 44.0879C107.452 44.0879 106.687 44.896 106.687 46.7082V47.3333H109.803C110.599 47.3333 111.271 47.9916 111.271 48.7711C111.271 49.5511 110.613 50.1857 109.803 50.1857H106.687V50.7112H109.803C110.599 50.7112 111.271 51.3697 111.271 52.1487C111.271 52.9288 110.613 53.5634 109.803 53.5634H106.687V53.8488C106.687 55.551 107.506 56.3786 109.192 56.3786C109.932 56.3786 111.651 56.1872 111.651 54.4155C111.651 54.3992 111.651 54.3831 111.652 54.3668C111.691 53.7471 112.14 53.0234 113.283 53.0234C114.305 53.0234 114.915 53.6117 114.915 54.5969C114.915 57.4321 112.542 59.4124 109.145 59.4124C107.193 59.4124 105.67 58.7935 104.688 57.6678C104.043 56.9298 103.631 55.9736 103.484 54.8293C103.444 54.516 103.423 54.1894 103.423 53.8488V53.5634H102.821C101.998 53.5634 101.378 52.9552 101.378 52.1487C101.378 51.3427 102.012 50.7112 102.821 50.7112H103.423V50.1857H102.821C102.01 50.1857 101.396 49.5939 101.379 48.8043C101.379 48.7929 101.378 48.7822 101.378 48.7711C101.378 47.965 102.012 47.3333 102.821 47.3333H103.245H103.423V47.1545V46.7082C103.423 44.9022 103.95 43.4838 104.936 42.519C105.912 41.5643 107.337 41.054 109.145 41.054Z" fill="white"/>
</svg>
