<svg width="140" height="100" viewBox="0 0 140 100" fill="none" xmlns="http://www.w3.org/2000/svg">
<rect width="140" height="100" rx="10" fill="#C4C4C4" fill-opacity="0.2"/>
<path d="M117.758 10H22.2417C12.8217 10 5.1852 17.3065 5.1852 26.3194V72.0139C5.1852 81.0269 12.8217 88.3333 22.2417 88.3333H117.758C127.178 88.3333 134.815 81.0269 134.815 72.0139V26.3194C134.815 17.3065 127.178 10 117.758 10Z" fill="black"/>
<path d="M67.4071 20C54.5478 20 44.9393 24.9022 44.9393 29.2849C44.9393 33.6678 54.5478 38.57 67.4071 38.57C80.2664 38.57 89.8751 33.6678 89.8751 29.2849C89.8753 24.9022 80.2664 20 67.4071 20Z" fill="white"/>
<path d="M44.9385 66.4268C44.9385 70.8095 54.5469 75.7117 67.4062 75.7117C69.2829 75.7117 71.0897 75.6064 72.8082 75.4147C71.3593 73.6197 70.1615 71.6278 69.2643 69.4885C68.6477 69.5085 68.0292 69.5224 67.406 69.5224C60.0582 69.5224 53.0997 68.1184 47.8129 65.5693C46.7719 65.0674 45.814 64.5281 44.9385 63.9573V66.4268Z" fill="white"/>
<path d="M67.4063 57.1416C60.0585 57.1416 53.1002 55.7376 47.8132 53.1885C46.772 52.6866 45.8139 52.1474 44.9383 51.5767V54.046C44.9383 58.4289 54.5468 63.3311 67.4061 63.3311C67.472 63.3311 67.5371 63.33 67.6028 63.3298C67.471 62.3153 67.4023 61.282 67.4023 60.2336C67.4023 59.1857 67.4705 58.153 67.6024 57.1393C67.5371 57.1395 67.4722 57.1416 67.4063 57.1416Z" fill="white"/>
<path d="M67.4063 44.7609C60.0585 44.7609 53.1002 43.3569 47.8132 40.8078C46.772 40.3057 45.8139 39.7667 44.9383 39.1959V41.6653C44.9383 46.048 54.5468 50.95 67.4061 50.95C68.043 50.95 68.6716 50.9376 69.2918 50.9141C70.2885 48.5567 71.6501 46.3793 73.3106 44.4482C71.3885 44.6527 69.4129 44.7609 67.4063 44.7609Z" fill="white"/>
<path d="M77.0366 49.9733C75.6477 51.9868 74.6553 54.2753 74.1671 56.7344C73.9422 57.868 73.823 59.0375 73.823 60.2335C73.823 61.1326 73.8908 62.0167 74.0197 62.882C74.3358 65.0079 75.0264 67.018 76.025 68.8491C77.0728 70.7706 78.4588 72.4949 80.1073 73.9467C83.5337 76.9641 88.0899 78.807 93.0844 78.807C103.705 78.807 112.346 70.4749 112.346 60.2335C112.346 49.9918 103.705 41.66 93.0844 41.66C91.9865 41.66 90.9104 41.7504 89.8622 41.9212C84.5231 42.7919 79.9241 45.7882 77.0366 49.9733ZM94.0838 51.054C97.4807 51.054 99.8533 53.0063 99.8533 55.8014C99.8533 56.7866 99.2431 57.375 98.2214 57.375C97.094 57.375 96.5895 56.6872 96.5895 56.0053C96.5895 54.2747 94.8536 54.0879 94.1072 54.0879C92.3908 54.0879 91.625 54.8961 91.625 56.7082V57.3333H94.7417C95.5372 57.3333 96.2092 57.9916 96.2092 58.7711C96.2092 59.5512 95.5509 60.1858 94.7417 60.1858H91.625V60.7112H94.7417C95.5372 60.7112 96.2092 61.3698 96.2092 62.1488C96.2092 62.9289 95.5509 63.5635 94.7417 63.5635H91.625V63.8489C91.625 65.5511 92.4447 66.3786 94.1307 66.3786C94.8699 66.3786 96.5893 66.1873 96.5893 64.4156C96.5893 64.3993 96.5897 64.3832 96.5908 64.3669C96.6289 63.7472 97.0785 63.0234 98.2212 63.0234C99.2429 63.0234 99.853 63.6118 99.853 64.597C99.853 67.4321 97.4805 69.4125 94.0836 69.4125C92.1311 69.4125 90.6086 68.7936 89.6261 67.6678C88.9817 66.9298 88.5697 65.9737 88.4227 64.8294C88.3825 64.5161 88.3613 64.1894 88.3613 63.8489V63.5635H87.7597C86.9366 63.5635 86.3159 62.9553 86.3159 62.1488C86.3159 61.3427 86.95 60.7112 87.7597 60.7112H88.3613V60.1858H87.7597C86.9481 60.1858 86.3345 59.5939 86.3174 58.8043C86.3174 58.793 86.3159 58.7823 86.3159 58.7711C86.3159 57.965 86.95 57.3333 87.7597 57.3333H88.1836H88.3611V57.1546V56.7082C88.3611 54.9023 88.8884 53.4839 89.8739 52.5191C90.8498 51.5644 92.275 51.054 94.0838 51.054Z" fill="white"/>
</svg>
