<svg width="21" height="17" viewBox="0 0 21 17" fill="none" xmlns="http://www.w3.org/2000/svg">
<path d="M21 7.5H19.5V1.5H8.25V0H19.5C19.8977 0.000397108 20.279 0.15856 20.5602 0.439779C20.8414 0.720997 20.9996 1.1023 21 1.5V7.5Z" fill="black"/>
<path d="M17.25 11.25H15.75V5.25H4.5V3.75H15.75C16.1477 3.7504 16.529 3.90856 16.8102 4.18978C17.0914 4.471 17.2496 4.8523 17.25 5.25V11.25Z" fill="black"/>
<path d="M12 16.5H1.5C1.1023 16.4996 0.720997 16.3414 0.439778 16.0602C0.15856 15.779 0.000397108 15.3977 0 15V9C0.000397108 8.6023 0.15856 8.221 0.439778 7.93978C0.720997 7.65856 1.1023 7.5004 1.5 7.5H12C12.3977 7.5004 12.779 7.65856 13.0602 7.93978C13.3414 8.221 13.4996 8.6023 13.5 9V15C13.4996 15.3977 13.3414 15.779 13.0602 16.0602C12.779 16.3414 12.3977 16.4996 12 16.5ZM1.5 9V15H12.0007L12 9H1.5Z" fill="black"/>
</svg>
