<svg width="140" height="100" viewBox="0 0 140 100" fill="none" xmlns="http://www.w3.org/2000/svg">
<rect width="140" height="100" rx="10" fill="#C4C4C4"/>
<path d="M117.758 10H22.2417C12.8216 10 5.18518 17.3065 5.18518 26.3194V72.0139C5.18518 81.0269 12.8216 88.3333 22.2417 88.3333H117.758C127.178 88.3333 134.815 81.0269 134.815 72.0139V26.3194C134.815 17.3065 127.178 10 117.758 10Z" fill="black"/>
<path d="M40.3885 43.5096C39.7117 42.8757 38.8974 42.391 38.003 42.0896C37.1085 41.7882 36.1556 41.6776 35.2114 41.7654H28.067C27.8329 41.7631 27.6059 41.8419 27.4282 41.9872C27.2504 42.1324 27.134 42.3343 27.1006 42.5552L24.2014 59.9646C24.1919 60.0451 24.1998 60.1265 24.2245 60.2039C24.2493 60.2814 24.2904 60.3531 24.3454 60.4148C24.4004 60.4765 24.468 60.5268 24.5442 60.5625C24.6204 60.5983 24.7034 60.6188 24.7882 60.6228H28.2396C28.4487 60.624 28.6525 60.5605 28.8206 60.4418C28.9886 60.3231 29.1117 60.1557 29.1714 59.9646L29.9653 55.2256C29.9987 55.0046 30.1151 54.8028 30.2928 54.6575C30.4706 54.5123 30.6976 54.4334 30.9317 54.4357H33.1751C34.1665 54.5401 35.1699 54.4501 36.1235 54.1713C37.0771 53.8924 37.9609 53.4306 38.7205 52.8142C39.4801 52.1977 40.0995 51.4397 40.5407 50.5867C40.9818 49.7337 41.2354 48.8036 41.2858 47.8537C41.4808 47.1113 41.5014 46.337 41.3463 45.5861C41.1912 44.8351 40.8641 44.1261 40.3885 43.5096V43.5096ZM36.0052 48.0841C35.6256 50.5194 33.6583 50.5194 31.7945 50.5194H30.7246L31.4494 45.945C31.473 45.811 31.5442 45.6889 31.651 45.599C31.7578 45.5091 31.8938 45.457 32.0361 45.4513H32.5538C33.8308 45.4513 35.0388 45.4513 35.6601 46.1753C35.8639 46.4485 36.0007 46.7619 36.0604 47.0923C36.1202 47.4227 36.1013 47.7616 36.0052 48.0841ZM56.5065 48.0841H53.0551C52.9825 48.0796 52.9098 48.0889 52.841 48.1113C52.7722 48.1337 52.7087 48.1689 52.6542 48.2147C52.5997 48.2606 52.5552 48.3163 52.5233 48.3786C52.4914 48.4409 52.4728 48.5086 52.4684 48.5778V49.4992L52.2268 49.1701C51.7193 48.6573 51.0927 48.265 50.3974 48.025C49.702 47.7849 48.9573 47.7037 48.2231 47.7879C46.3328 47.8228 44.5195 48.5083 43.1177 49.718C41.7159 50.9277 40.8201 52.5799 40.5956 54.3699C40.421 55.2475 40.4446 56.1506 40.6648 57.0188C40.885 57.887 41.2967 58.7006 41.8726 59.4051C42.4055 59.9764 43.0678 60.4244 43.8094 60.7152C44.5509 61.006 45.3521 61.132 46.1523 61.0836C47.0324 61.0912 47.905 60.929 48.7177 60.6066C49.5303 60.2842 50.2661 59.8084 50.8807 59.2077V60.0963C50.8654 60.1775 50.8692 60.261 50.8917 60.3408C50.9143 60.4205 50.9551 60.4945 51.0112 60.5574C51.0673 60.6203 51.1373 60.6706 51.2161 60.7047C51.295 60.7388 51.3809 60.7558 51.4675 60.7545H54.5392C54.7733 60.7567 55.0003 60.6779 55.178 60.5327C55.3558 60.3874 55.4722 60.1855 55.5056 59.9646L57.3348 48.7423C57.4053 48.6334 57.4344 48.5047 57.4174 48.3778C57.4004 48.2508 57.3382 48.1333 57.2413 48.0448C57.1445 47.9562 57.0187 47.902 56.8849 47.8912C56.7512 47.8804 56.6176 47.9136 56.5065 47.9854V48.0841ZM51.7436 54.3699C51.6092 55.2506 51.1423 56.0542 50.4306 56.6299C49.7188 57.2055 48.8111 57.5137 47.878 57.4964C47.4527 57.5213 47.0269 57.4544 46.6324 57.3005C46.238 57.1467 45.8851 56.9099 45.6001 56.6078C45.3394 56.2844 45.1551 55.9111 45.0598 55.5135C44.9644 55.1159 44.9604 54.7034 45.0479 54.3041C45.1498 53.4021 45.597 52.5677 46.3038 51.9605C47.0107 51.3533 47.9275 51.016 48.8789 51.0131C49.3067 50.9946 49.7334 51.0678 50.1276 51.2272C50.5218 51.3867 50.8735 51.6284 51.1568 51.9346C51.4436 52.2706 51.6456 52.6649 51.7473 53.0872C51.849 53.5094 51.8478 53.9482 51.7436 54.3699ZM74.6608 47.9854H71.2094C71.0445 47.9834 70.8819 48.0216 70.7369 48.0965C70.5919 48.1714 70.4694 48.2804 70.3811 48.4132L65.6527 54.9952L63.6509 48.5778C63.5859 48.3806 63.4577 48.2079 63.2843 48.0839C63.111 47.9599 62.9011 47.8909 62.6845 47.8866H59.2331C59.1376 47.8881 59.0438 47.9106 58.9589 47.9522C58.874 47.9939 58.8003 48.0536 58.7435 48.1268C58.6868 48.2001 58.6485 48.2848 58.6316 48.3744C58.6148 48.464 58.6198 48.5561 58.6464 48.6436L62.4429 59.3064L58.9915 64.1113C58.9274 64.1953 58.8891 64.2947 58.8809 64.3983C58.8727 64.502 58.8949 64.6057 58.9451 64.698C58.9952 64.7902 59.0713 64.8673 59.1649 64.9207C59.2584 64.974 59.3657 65.0014 59.4747 64.9998H62.9261C63.0873 65.0025 63.2468 64.968 63.391 64.8992C63.5352 64.8305 63.6599 64.7295 63.7544 64.6049L75.144 48.7752C75.1831 48.6937 75.201 48.6044 75.1963 48.5149C75.1916 48.4254 75.1645 48.3383 75.1171 48.2609C75.0698 48.1835 75.0036 48.118 74.9242 48.0701C74.8448 48.0221 74.7545 47.9931 74.6608 47.9854V47.9854ZM91.193 43.5096C90.5162 42.8757 89.702 42.391 88.8075 42.0896C87.913 41.7882 86.9601 41.6776 86.0159 41.7654H78.8715C78.6374 41.7631 78.4104 41.8419 78.2327 41.9872C78.055 42.1324 77.9386 42.3343 77.9051 42.5552L75.0405 59.9646C75.0252 60.0459 75.0289 60.1294 75.0515 60.2091C75.0741 60.2889 75.1148 60.3628 75.1709 60.4258C75.227 60.4887 75.297 60.539 75.3759 60.573C75.4548 60.6071 75.5406 60.6241 75.6272 60.6228H79.2857C79.4483 60.6237 79.6054 60.5669 79.7266 60.4635C79.8478 60.3601 79.9243 60.2175 79.9414 60.0633L80.7698 55.0939C80.8032 54.873 80.9196 54.6712 81.0974 54.5259C81.2751 54.3806 81.5021 54.3018 81.7362 54.3041H84.0141C85.0046 54.4037 86.006 54.3103 86.9576 54.0295C87.9091 53.7488 88.7909 53.2867 89.5494 52.6712C90.3079 52.0556 90.9273 51.2995 91.37 50.4488C91.8128 49.598 92.0696 48.6704 92.1249 47.7221C92.2874 46.9969 92.2884 46.2472 92.1278 45.5215C91.9673 44.7959 91.6488 44.1105 91.193 43.5096V43.5096ZM86.8442 48.1828C86.4301 50.6182 84.4973 50.6182 82.599 50.6182H81.5291L82.2884 46.0437C82.2928 45.9745 82.3115 45.9068 82.3434 45.8445C82.3753 45.7822 82.4197 45.7265 82.4742 45.6807C82.5288 45.6348 82.5922 45.5997 82.661 45.5772C82.7298 45.5548 82.8026 45.5456 82.8751 45.55H83.3583C84.6354 45.55 85.8779 45.55 86.4991 46.2741C86.6879 46.5352 86.8163 46.8316 86.8758 47.1437C86.9353 47.4558 86.9245 47.7763 86.8442 48.0841V48.1828ZM107.311 48.1828H103.86C103.715 48.1819 103.576 48.2317 103.467 48.3228C103.359 48.4139 103.29 48.5398 103.273 48.6765V49.598L103.031 49.2689C102.517 48.7554 101.884 48.3632 101.183 48.1233C100.482 47.8834 99.7326 47.8024 98.9931 47.8866C97.1071 47.9351 95.3015 48.6253 93.9026 49.8324C92.5037 51.0395 91.6038 52.684 91.3656 54.4686C91.191 55.3463 91.2146 56.2493 91.4348 57.1175C91.655 57.9858 92.0667 58.7993 92.6426 59.5039C93.1808 60.0777 93.849 60.5271 94.5965 60.8179C95.3441 61.1087 96.1512 61.2333 96.9568 61.1823C97.8369 61.19 98.7096 61.0277 99.5222 60.7053C100.335 60.3829 101.071 59.9071 101.685 59.3064V60.195C101.67 60.2763 101.674 60.3598 101.696 60.4395C101.719 60.5192 101.76 60.5932 101.816 60.6561C101.872 60.719 101.942 60.7693 102.021 60.8034C102.1 60.8375 102.185 60.8545 102.272 60.8532H105.344C105.578 60.8555 105.805 60.7767 105.983 60.6314C106.16 60.4861 106.277 60.2843 106.31 60.0633L107.967 48.6436C107.977 48.5576 107.967 48.4705 107.939 48.3885C107.91 48.3064 107.862 48.2314 107.8 48.1686C107.737 48.1059 107.661 48.057 107.577 48.0253C107.492 47.9936 107.402 47.98 107.311 47.9854V48.1828ZM102.548 54.3699C102.429 55.2508 101.971 56.0582 101.263 56.6358C100.555 57.2133 99.6482 57.52 98.717 57.4964C98.2863 57.524 97.8546 57.4584 97.4541 57.3045C97.0537 57.1507 96.6949 56.9125 96.4046 56.6078C96.1478 56.2828 95.9684 55.9083 95.879 55.5105C95.7896 55.1126 95.7923 54.7009 95.8869 54.3041C95.9808 53.405 96.4208 52.5709 97.122 51.9631C97.8232 51.3552 98.7358 51.0168 99.6834 51.0131C100.121 50.9839 100.559 51.0544 100.962 51.2187C101.365 51.383 101.721 51.6364 102.001 51.958C102.281 52.2796 102.477 52.6601 102.572 53.068C102.667 53.476 102.659 53.8997 102.548 54.3041V54.3699ZM115.215 41.6667H111.763C111.626 41.6707 111.494 41.7181 111.387 41.8015C111.281 41.8849 111.207 41.9995 111.177 42.1274L108.415 59.9646C108.4 60.0459 108.404 60.1294 108.426 60.2091C108.449 60.2889 108.49 60.3628 108.546 60.4258C108.602 60.4887 108.672 60.539 108.751 60.573C108.83 60.6071 108.916 60.6241 109.002 60.6228H111.936C112.17 60.6251 112.397 60.5463 112.575 60.401C112.752 60.2558 112.869 60.0539 112.902 59.833L115.801 42.2919C115.806 42.2141 115.795 42.1362 115.768 42.0626C115.741 41.989 115.699 41.9213 115.644 41.8632C115.59 41.8051 115.524 41.7578 115.45 41.7241C115.376 41.6904 115.296 41.6709 115.215 41.6667V41.6667Z" fill="white"/>
</svg>
