<svg width="188" height="78" viewBox="0 0 188 78" fill="none" xmlns="http://www.w3.org/2000/svg">
<path d="M163.263 0H24.7368C11.0751 0 0 7.27537 0 16.25V61.75C0 70.7246 11.0751 78 24.7368 78H163.263C176.925 78 188 70.7246 188 61.75V16.25C188 7.27537 176.925 0 163.263 0Z" fill="black"/>
<path d="M64.191 28.843C63.5142 28.209 62.6999 27.7243 61.8054 27.4229C60.911 27.1216 59.9581 27.0109 59.0139 27.0987H51.8695C51.6354 27.0964 51.4084 27.1753 51.2307 27.3205C51.0529 27.4658 50.9365 27.6676 50.9031 27.8886L48.0039 45.298C47.9944 45.3784 48.0023 45.4598 48.027 45.5373C48.0518 45.6147 48.0929 45.6865 48.1479 45.7482C48.2029 45.8098 48.2705 45.8601 48.3467 45.8959C48.4228 45.9317 48.5059 45.9522 48.5907 45.9562H52.0421C52.2512 45.9574 52.455 45.8938 52.623 45.7752C52.7911 45.6565 52.9142 45.489 52.9739 45.298L53.7678 40.5589C53.8012 40.338 53.9176 40.1361 54.0953 39.9909C54.2731 39.8456 54.5001 39.7668 54.7341 39.7691H56.9776C57.969 39.8735 58.9723 39.7835 59.926 39.5046C60.8796 39.2258 61.7634 38.764 62.523 38.1475C63.2826 37.5311 63.902 36.7731 64.3432 35.92C64.7843 35.067 65.0379 34.137 65.0883 33.1871C65.2833 32.4446 65.3039 31.6703 65.1488 30.9194C64.9937 30.1685 64.6666 29.4595 64.191 28.843V28.843ZM59.8077 33.4174C59.428 35.8528 57.4608 35.8528 55.597 35.8528H54.5271L55.2519 31.2783C55.2755 31.1443 55.3467 31.0222 55.4535 30.9323C55.5603 30.8425 55.6963 30.7903 55.8386 30.7847H56.3563C57.6333 30.7847 58.8413 30.7846 59.4626 31.5087C59.6664 31.7819 59.8032 32.0952 59.8629 32.4256C59.9227 32.756 59.9038 33.095 59.8077 33.4174ZM80.309 33.4174H76.8576C76.785 33.413 76.7123 33.4222 76.6435 33.4447C76.5747 33.4671 76.5112 33.5022 76.4567 33.5481C76.4022 33.594 76.3577 33.6496 76.3258 33.7119C76.2939 33.7742 76.2752 33.8419 76.2708 33.9111V34.8326L76.0293 34.5035C75.5217 33.9906 74.8952 33.5984 74.1998 33.3583C73.5045 33.1183 72.7598 33.0371 72.0256 33.1213C70.1353 33.1562 68.322 33.8417 66.9202 35.0513C65.5184 36.261 64.6226 37.9132 64.3981 39.7033C64.2235 40.5809 64.2471 41.4839 64.4673 42.3521C64.6875 43.2204 65.0992 44.0339 65.6751 44.7385C66.208 45.3097 66.8703 45.7577 67.6119 46.0485C68.3534 46.3393 69.1546 46.4653 69.9548 46.4169C70.8349 46.4246 71.7075 46.2623 72.5201 45.9399C73.3328 45.6176 74.0685 45.1417 74.6832 44.541V45.4296C74.6679 45.5109 74.6717 45.5944 74.6942 45.6741C74.7168 45.7538 74.7576 45.8278 74.8137 45.8907C74.8698 45.9537 74.9398 46.004 75.0186 46.038C75.0975 46.0721 75.1834 46.0891 75.2699 46.0878H78.3417C78.5758 46.0901 78.8028 46.0113 78.9805 45.866C79.1582 45.7207 79.2746 45.5189 79.3081 45.298L81.1373 34.0757C81.2077 33.9667 81.2369 33.8381 81.2199 33.7111C81.2029 33.5842 81.1407 33.4666 81.0438 33.3781C80.9469 33.2896 80.8211 33.2354 80.6874 33.2246C80.5537 33.2137 80.4201 33.247 80.309 33.3187V33.4174ZM75.5461 39.7033C75.4117 40.5839 74.9448 41.3875 74.2331 41.9632C73.5213 42.5389 72.6136 42.847 71.6805 42.8297C71.2551 42.8547 70.8294 42.7877 70.4349 42.6339C70.0405 42.48 69.6876 42.2432 69.4026 41.9411C69.1419 41.6178 68.9576 41.2445 68.8622 40.8469C68.7669 40.4493 68.7629 40.0367 68.8504 39.6374C68.9523 38.7355 69.3995 37.9011 70.1063 37.2938C70.8132 36.6866 71.73 36.3493 72.6814 36.3464C73.1092 36.3279 73.5359 36.4011 73.9301 36.5606C74.3243 36.72 74.676 36.9617 74.9593 37.2679C75.2461 37.604 75.4481 37.9983 75.5498 38.4205C75.6515 38.8427 75.6502 39.2816 75.5461 39.7033ZM98.4633 33.3187H95.0119C94.847 33.3167 94.6844 33.355 94.5394 33.4299C94.3944 33.5048 94.2719 33.6138 94.1836 33.7465L89.4552 40.3285L87.4534 33.9111C87.3884 33.714 87.2602 33.5412 87.0868 33.4172C86.9134 33.2933 86.7036 33.2243 86.487 33.22H83.0356C82.9401 33.2215 82.8463 33.2439 82.7614 33.2856C82.6765 33.3272 82.6028 33.387 82.546 33.4602C82.4893 33.5334 82.451 33.6181 82.4341 33.7077C82.4173 33.7973 82.4223 33.8895 82.4488 33.9769L86.2454 44.6398L82.794 49.4446C82.7299 49.5287 82.6916 49.6281 82.6833 49.7317C82.6751 49.8353 82.6974 49.9391 82.7475 50.0313C82.7977 50.1236 82.8738 50.2007 82.9674 50.254C83.0609 50.3073 83.1682 50.3347 83.2772 50.3332H86.7286C86.8898 50.3359 87.0493 50.3013 87.1935 50.2326C87.3377 50.1638 87.4624 50.0628 87.5569 49.9383L98.9465 34.1086C98.9856 34.027 99.0035 33.9378 98.9988 33.8483C98.9941 33.7588 98.967 33.6716 98.9196 33.5942C98.8723 33.5168 98.8061 33.4514 98.7267 33.4034C98.6473 33.3555 98.557 33.3264 98.4633 33.3187V33.3187ZM114.995 28.843C114.319 28.209 113.504 27.7243 112.61 27.4229C111.715 27.1216 110.763 27.0109 109.818 27.0987H102.674C102.44 27.0964 102.213 27.1753 102.035 27.3205C101.857 27.4658 101.741 27.6676 101.708 27.8886L98.843 45.298C98.8277 45.3792 98.8314 45.4627 98.854 45.5425C98.8765 45.6222 98.9173 45.6962 98.9734 45.7591C99.0295 45.822 99.0995 45.8723 99.1784 45.9064C99.2573 45.9405 99.3431 45.9575 99.4297 45.9562H103.088C103.251 45.957 103.408 45.9002 103.529 45.7969C103.65 45.6935 103.727 45.5509 103.744 45.3967L104.572 40.4273C104.606 40.2064 104.722 40.0045 104.9 39.8592C105.078 39.714 105.305 39.6352 105.539 39.6374H107.817C108.807 39.737 109.809 39.6436 110.76 39.3629C111.712 39.0822 112.593 38.62 113.352 38.0045C114.11 37.389 114.73 36.6329 115.173 35.7821C115.615 34.9314 115.872 34.0037 115.927 33.0554C116.09 32.3302 116.091 31.5805 115.93 30.8549C115.77 30.1293 115.451 29.4438 114.995 28.843V28.843ZM110.647 33.5162C110.233 35.9515 108.3 35.9515 106.402 35.9515H105.332L106.091 31.377C106.095 31.3078 106.114 31.2401 106.146 31.1779C106.178 31.1156 106.222 31.0599 106.277 31.014C106.331 30.9682 106.395 30.933 106.464 30.9106C106.532 30.8882 106.605 30.8789 106.678 30.8834H107.161C108.438 30.8834 109.68 30.8834 110.302 31.6074C110.49 31.8686 110.619 32.165 110.678 32.477C110.738 32.7891 110.727 33.1097 110.647 33.4174V33.5162ZM131.113 33.5162H127.662C127.518 33.5152 127.378 33.5651 127.27 33.6561C127.162 33.7472 127.092 33.8731 127.075 34.0098V34.9313L126.834 34.6022C126.319 34.0888 125.687 33.6966 124.986 33.4567C124.285 33.2168 123.535 33.1357 122.796 33.22C120.91 33.2684 119.104 33.9586 117.705 35.1657C116.306 36.3729 115.406 38.0174 115.168 39.802C114.993 40.6796 115.017 41.5826 115.237 42.4509C115.457 43.3191 115.869 44.1326 116.445 44.8372C116.983 45.411 117.651 45.8604 118.399 46.1512C119.147 46.4421 119.954 46.5667 120.759 46.5156C121.639 46.5233 122.512 46.3611 123.325 46.0387C124.137 45.7163 124.873 45.2404 125.488 44.6398V45.5283C125.472 45.6096 125.476 45.6931 125.499 45.7728C125.521 45.8526 125.562 45.9265 125.618 45.9895C125.674 46.0524 125.744 46.1027 125.823 46.1368C125.902 46.1708 125.988 46.1878 126.074 46.1865H129.146C129.38 46.1888 129.607 46.11 129.785 45.9647C129.963 45.8195 130.079 45.6176 130.113 45.3967L131.769 33.9769C131.78 33.8909 131.77 33.8039 131.741 33.7218C131.712 33.6397 131.665 33.5647 131.602 33.502C131.54 33.4392 131.464 33.3903 131.379 33.3586C131.295 33.327 131.204 33.3134 131.113 33.3187V33.5162ZM126.351 39.7033C126.231 40.5842 125.773 41.3916 125.066 41.9691C124.358 42.5467 123.451 42.8533 122.52 42.8297C122.089 42.8573 121.657 42.7917 121.257 42.6379C120.856 42.484 120.497 42.2458 120.207 41.9411C119.95 41.6162 119.771 41.2417 119.681 40.8438C119.592 40.4459 119.595 40.0342 119.689 39.6374C119.783 38.7383 120.223 37.9042 120.925 37.2964C121.626 36.6886 122.538 36.3501 123.486 36.3464C123.923 36.3172 124.361 36.3877 124.764 36.552C125.167 36.7163 125.524 36.9697 125.804 37.2913C126.083 37.6129 126.279 37.9934 126.374 38.4014C126.469 38.8093 126.461 39.233 126.351 39.6374V39.7033ZM139.017 27H135.566C135.428 27.004 135.296 27.0514 135.19 27.1348C135.084 27.2182 135.01 27.3328 134.979 27.4607L132.218 45.298C132.203 45.3792 132.206 45.4627 132.229 45.5425C132.252 45.6222 132.292 45.6962 132.348 45.7591C132.404 45.822 132.474 45.8723 132.553 45.9064C132.632 45.9405 132.718 45.9575 132.805 45.9562H135.738C135.972 45.9584 136.199 45.8796 136.377 45.7344C136.555 45.5891 136.671 45.3872 136.705 45.1663L139.604 27.6253C139.609 27.5475 139.597 27.4695 139.57 27.396C139.543 27.3224 139.501 27.2546 139.447 27.1965C139.392 27.1384 139.326 27.0912 139.252 27.0575C139.179 27.0237 139.099 27.0042 139.017 27V27Z" fill="white"/>
</svg>
