<svg width="22" height="19" viewBox="0 0 22 19" fill="none" xmlns="http://www.w3.org/2000/svg">
<path d="M21.7032 10.5795C21.5844 10.3878 21.4349 10.2258 21.2631 10.1027C21.0914 9.97968 20.9007 9.89801 20.7022 9.86242C20.5037 9.82683 20.3013 9.83801 20.1064 9.89533C19.9116 9.95265 19.7282 10.055 19.5669 10.1964L14.9959 14.1845H10.389C10.227 14.1845 10.0715 14.1083 9.95689 13.9726C9.84228 13.8369 9.77789 13.6528 9.77789 13.4609C9.77789 13.269 9.84228 13.0849 9.95689 12.9492C10.0715 12.8135 10.227 12.7373 10.389 12.7373H13.3775C13.9887 12.7373 14.5521 12.2457 14.6521 11.5338C14.6817 11.3259 14.6726 11.1129 14.6255 10.9096C14.5784 10.7064 14.4944 10.5177 14.3795 10.3567C14.2645 10.1958 14.1213 10.0665 13.9598 9.9778C13.7983 9.88911 13.6224 9.84318 13.4444 9.84321H7.33294C6.3022 9.84296 5.30269 10.2621 4.50183 11.0304L2.72569 12.7373H0.611142C0.449397 12.7386 0.294589 12.8152 0.180216 12.9507C0.0658421 13.0861 0.00110068 13.2694 0 13.4609V17.8027C0.00110068 17.9942 0.0658421 18.1775 0.180216 18.3129C0.294589 18.4483 0.449397 18.525 0.611142 18.5263H13.8653C14.713 18.5239 15.5382 18.2029 16.222 17.6095L21.3797 13.1063C21.7052 12.8217 21.9221 12.3958 21.9827 11.9221C22.0434 11.4484 21.9429 10.9656 21.7032 10.5795Z" fill="black"/>
<path d="M16.9824 0H4.43855C4.18272 0.000287316 3.93746 0.10204 3.75657 0.282934C3.57567 0.463828 3.47392 0.70909 3.47363 0.964912V7.7193C3.47392 7.97512 3.57567 8.22038 3.75657 8.40128C3.93746 8.58217 4.18272 8.68392 4.43855 8.68421H16.9824C17.2382 8.68392 17.4835 8.58217 17.6644 8.40128C17.8453 8.22038 17.947 7.97512 17.9473 7.7193V0.964912C17.947 0.70909 17.8453 0.463828 17.6644 0.282934C17.4835 0.10204 17.2382 0.000287316 16.9824 0ZM7.99696 7.7193L4.43855 4.60565V4.07856L7.99696 0.964912H13.424L16.9827 4.0788V4.60541L13.424 7.7193H7.99696ZM16.9825 2.79662L14.8892 0.964912H16.9824L16.9825 2.79662ZM6.5318 0.964912L4.43855 2.79644V0.964912H6.5318ZM4.43855 5.88777L6.53174 7.7193H4.43855V5.88777ZM16.9824 7.7193H14.8892L16.9828 5.88735L16.983 7.7193H16.9824ZM10.7105 1.92982C10.2334 1.92982 9.76698 2.0713 9.37028 2.33637C8.97359 2.60143 8.6644 2.97818 8.48182 3.41897C8.29924 3.85975 8.25147 4.34478 8.34455 4.81272C8.43762 5.28065 8.66737 5.71048 9.00474 6.04785C9.3421 6.38521 9.77193 6.61496 10.2399 6.70803C10.7078 6.80111 11.1928 6.75334 11.6336 6.57076C12.0744 6.38818 12.4511 6.07899 12.7162 5.6823C12.9813 5.2856 13.1228 4.81921 13.1228 4.34211C13.122 3.70255 12.8676 3.08941 12.4154 2.63718C11.9632 2.18494 11.35 1.93056 10.7105 1.92982ZM10.7105 5.78947C10.4242 5.78947 10.1444 5.70459 9.90636 5.54555C9.66834 5.38651 9.48283 5.16046 9.37328 4.89599C9.26373 4.63152 9.23507 4.3405 9.29092 4.05974C9.34676 3.77898 9.48461 3.52108 9.68703 3.31866C9.88945 3.11624 10.1473 2.97839 10.4281 2.92255C10.7089 2.8667 10.9999 2.89536 11.2644 3.00491C11.5288 3.11446 11.7549 3.29997 11.9139 3.53799C12.073 3.77601 12.1578 4.05584 12.1578 4.34211C12.1574 4.72584 12.0048 5.09373 11.7334 5.36507C11.4621 5.63641 11.0942 5.78904 10.7105 5.78947Z" fill="black"/>
</svg>
