<svg width="30" height="74" viewBox="0 0 60 74" fill="none" xmlns="http://www.w3.org/2000/svg">
<path d="M29.6 29.6C44.3112 29.6 59.2 24.5162 59.2 14.8C59.2 5.0838 44.3112 0 29.6 0C14.8888 0 0 5.0838 0 14.8C0 24.5162 14.8888 29.6 29.6 29.6Z" fill="black"/>
<path d="M0 29.6002C0 39.3164 14.8888 44.4002 29.6 44.4002C44.3112 44.4002 59.2 39.3164 59.2 29.6002V22.2002C59.2 31.9164 44.3112 37.0002 29.6 37.0002C14.8888 37.0002 0 31.9164 0 22.2002V29.6002Z" fill="black"/>
<path d="M0 44.4C0 54.1162 14.8888 59.2 29.6 59.2C44.3112 59.2 59.2 54.1162 59.2 44.4V37C59.2 46.7162 44.3112 51.8 29.6 51.8C14.8888 51.8 0 46.7162 0 37V44.4Z" fill="black"/>
<path d="M0 59.1998C0 68.916 14.8888 73.9998 29.6 73.9998C44.3112 73.9998 59.2 68.916 59.2 59.1998V51.7998C59.2 61.516 44.3112 66.5998 29.6 66.5998C14.8888 66.5998 0 61.516 0 51.7998V59.1998Z" fill="black"/>
</svg>
