<svg width="154" height="42" viewBox="0 0 154 42" fill="none" xmlns="http://www.w3.org/2000/svg">
<path d="M18.4794 0.00146518H6.50114C6.1046 0.00121506 5.721 0.142596 5.41947 0.400135C5.11793 0.657673 4.91829 1.01444 4.85651 1.40614L0.011969 32.1215C-0.0103029 32.2641 -0.00141852 32.4097 0.038006 32.5485C0.0774305 32.6873 0.146459 32.8158 0.240342 32.9254C0.334226 33.0349 0.450731 33.1228 0.581837 33.183C0.712943 33.2431 0.855533 33.2742 0.999792 33.274H6.71832C7.11512 33.2742 7.49892 33.1326 7.80049 32.8747C8.10206 32.6168 8.30154 32.2596 8.36294 31.8676L9.66953 23.5832C9.73089 23.1914 9.93011 22.8345 10.2313 22.5766C10.5325 22.3188 10.9159 22.177 11.3124 22.1767H15.1043C22.9947 22.1767 27.5485 18.3585 28.7377 10.7922C29.2737 7.48196 28.7605 4.88104 27.2104 3.05952C25.508 1.05935 22.4885 0.00146518 18.4794 0.00146518ZM19.8613 11.2196C19.2062 15.5177 15.9223 15.5177 12.7469 15.5177H10.9393L12.2074 7.49072C12.2445 7.25588 12.3642 7.042 12.545 6.88756C12.7258 6.73312 12.9557 6.64827 13.1935 6.64826H14.0219C16.185 6.64826 18.2254 6.64826 19.2798 7.88129C19.9086 8.61691 20.1012 9.70982 19.8613 11.2196ZM54.2845 11.0812H48.5485C48.3107 11.0812 48.0808 11.1661 47.9 11.3205C47.7193 11.4749 47.5996 11.6888 47.5624 11.9237L47.3085 13.528L46.9074 12.9465C45.6656 11.1443 42.8965 10.5418 40.1327 10.5418C33.7942 10.5418 28.3804 15.3425 27.326 22.0769C26.7778 25.4362 27.5572 28.6484 29.4628 30.8885C31.2108 32.9482 33.7119 33.8064 36.6876 33.8064C41.7949 33.8064 44.627 30.5224 44.627 30.5224L44.3713 32.1163C44.3485 32.2588 44.3569 32.4045 44.3958 32.5435C44.4348 32.6824 44.5034 32.8113 44.597 32.9212C44.6905 33.031 44.8068 33.1193 44.9378 33.1799C45.0687 33.2405 45.2113 33.272 45.3556 33.2722H50.5224C50.9192 33.2724 51.303 33.1308 51.6046 32.8729C51.9061 32.615 52.1056 32.2578 52.167 31.8658L55.2671 12.2337C55.2899 12.0915 55.2816 11.9461 55.2427 11.8074C55.2038 11.6687 55.1353 11.5402 55.0419 11.4306C54.9484 11.321 54.8324 11.233 54.7016 11.1727C54.5708 11.1124 54.4285 11.0812 54.2845 11.0812ZM46.2891 22.245C45.7356 25.522 43.1347 27.7219 39.8175 27.7219C38.1518 27.7219 36.8207 27.1877 35.966 26.1753C35.1183 25.17 34.796 23.739 35.0657 22.1452C35.5824 18.8962 38.2271 16.6246 41.4936 16.6246C43.1225 16.6246 44.4466 17.1658 45.3188 18.1869C46.1928 19.2185 46.5396 20.6582 46.2891 22.245ZM84.8335 11.0812H79.0695C78.7976 11.0816 78.53 11.1484 78.2898 11.2757C78.0496 11.4029 77.8441 11.5869 77.6911 11.8116L69.7412 23.5219L66.3714 12.2687C66.2679 11.9255 66.0567 11.6247 65.7691 11.4108C65.4814 11.197 65.1325 11.0814 64.774 11.0812H59.1098C58.9508 11.0808 58.794 11.1184 58.6525 11.1908C58.5109 11.2632 58.3887 11.3684 58.296 11.4975C58.2033 11.6267 58.1428 11.7762 58.1196 11.9335C58.0963 12.0908 58.1109 12.2513 58.1623 12.4018L64.5113 31.0339L58.5423 39.4602C58.4363 39.6096 58.3733 39.7853 58.3605 39.968C58.3476 40.1508 58.3853 40.3336 58.4694 40.4964C58.5535 40.6592 58.6808 40.7957 58.8373 40.8909C58.9938 40.9862 59.1735 41.0366 59.3568 41.0365H65.1138C65.3826 41.0368 65.6475 40.972 65.8857 40.8476C66.124 40.7231 66.3285 40.5427 66.4817 40.3219L85.6532 12.6488C85.7571 12.4991 85.8181 12.3238 85.8295 12.1419C85.8408 11.96 85.8022 11.7784 85.7178 11.6169C85.6333 11.4554 85.5063 11.3201 85.3504 11.2257C85.1945 11.1313 85.0158 11.0813 84.8335 11.0812Z" fill="black"/>
<path d="M103.919 0.00175134H91.9391C91.5429 0.0019185 91.1597 0.143488 90.8585 0.40099C90.5574 0.658491 90.358 1.01502 90.2963 1.40642L85.4517 32.1218C85.4292 32.2641 85.4378 32.4096 85.4769 32.5482C85.516 32.6869 85.5847 32.8154 85.6782 32.9249C85.7718 33.0345 85.888 33.1224 86.0188 33.1827C86.1496 33.243 86.292 33.2743 86.436 33.2743H92.5837C92.861 33.2739 93.1291 33.1745 93.3397 32.9941C93.5504 32.8136 93.6897 32.564 93.7326 32.29L95.1075 23.5834C95.1689 23.1917 95.3681 22.8348 95.6693 22.5769C95.9705 22.3191 96.3539 22.1772 96.7504 22.177H100.541C108.433 22.177 112.985 18.3588 114.176 10.7925C114.713 7.48225 114.197 4.88132 112.647 3.0598C110.946 1.05963 107.928 0.00175134 103.919 0.00175134ZM105.301 11.2199C104.648 15.518 101.364 15.518 98.1866 15.518H96.3809L97.6507 7.491C97.6871 7.25616 97.8063 7.0421 97.9869 6.88757C98.1674 6.73305 98.3973 6.64826 98.635 6.64855H99.4634C101.625 6.64855 103.667 6.64855 104.721 7.88158C105.35 8.61719 105.541 9.71011 105.301 11.2199ZM139.723 11.0815H133.99C133.752 11.0808 133.522 11.1655 133.342 11.3201C133.161 11.4747 133.042 11.689 133.006 11.924L132.752 13.5283L132.349 12.9468C131.107 11.1446 128.34 10.5421 125.576 10.5421C119.237 10.5421 113.825 15.3428 112.771 22.0772C112.225 25.4365 113 28.6487 114.906 30.8888C116.658 32.9485 119.155 33.8067 122.131 33.8067C127.238 33.8067 130.07 30.5227 130.07 30.5227L129.815 32.1166C129.792 32.2593 129.8 32.4054 129.839 32.5446C129.878 32.6838 129.947 32.8128 130.041 32.9228C130.135 33.0327 130.252 33.1209 130.383 33.1813C130.515 33.2417 130.658 33.2728 130.802 33.2725H135.967C136.364 33.2723 136.747 33.1305 137.048 32.8726C137.35 32.6148 137.549 32.2578 137.61 31.8661L140.712 12.234C140.734 12.0913 140.725 11.9456 140.685 11.8069C140.646 11.6681 140.576 11.5396 140.482 11.4301C140.388 11.3206 140.272 11.2327 140.141 11.1726C140.009 11.1124 139.867 11.0813 139.723 11.0815ZM131.727 22.2453C131.177 25.5223 128.573 27.7221 125.255 27.7221C123.593 27.7221 122.259 27.188 121.404 26.1756C120.556 25.1703 120.238 23.7393 120.504 22.1455C121.024 18.8965 123.665 16.6249 126.932 16.6249C128.56 16.6249 129.885 17.1661 130.757 18.1872C131.634 19.2188 131.981 20.6585 131.727 22.2453ZM146.485 0.844205L141.569 32.1218C141.546 32.2641 141.555 32.4096 141.594 32.5482C141.633 32.6869 141.702 32.8154 141.795 32.9249C141.889 33.0345 142.005 33.1224 142.136 33.1827C142.266 33.243 142.409 33.2743 142.553 33.2743H147.496C148.317 33.2743 149.014 32.6788 149.14 31.8679L153.988 1.15421C154.011 1.01184 154.002 0.866289 153.963 0.727555C153.924 0.588821 153.855 0.460197 153.762 0.350525C153.668 0.240853 153.552 0.152735 153.421 0.0922261C153.29 0.0317177 153.148 0.000255082 153.004 0H147.469C147.232 0.000841363 147.002 0.0862575 146.822 0.240948C146.641 0.395638 146.522 0.609494 146.485 0.844205Z" fill="black"/>
</svg>
