<svg width="150" height="44" viewBox="0 0 150 44" fill="none" xmlns="http://www.w3.org/2000/svg">
<path d="M9.24121 22.728L7.26367 34H0.825684L6.38477 2.00781L17.5908 2.02979C21.0479 2.02979 23.7651 2.98926 25.7427 4.9082C27.7202 6.82715 28.5845 9.33203 28.3354 12.4229C28.1011 15.5576 26.79 18.0625 24.4023 19.9375C22.0293 21.8125 18.9971 22.75 15.3057 22.75L9.24121 22.728ZM10.1421 17.3887L15.5034 17.4326C17.2319 17.4326 18.6675 16.9858 19.8101 16.0923C20.9526 15.1987 21.6338 13.9902 21.8535 12.4668C22.0732 10.9434 21.8242 9.72754 21.1064 8.81934C20.4033 7.91113 19.356 7.42773 17.9644 7.36914L11.8999 7.34717L10.1421 17.3887ZM42.3101 34C42.1196 33.3994 42.0391 32.6816 42.0684 31.8467C40.2812 33.6338 38.2598 34.498 36.0039 34.4395C33.9238 34.4102 32.1953 33.7363 30.8184 32.418C29.4561 31.085 28.8188 29.4443 28.9067 27.4961C29.0093 24.9033 30.0933 22.9185 32.1587 21.5415C34.2388 20.1499 37.022 19.4541 40.5083 19.4541L43.4087 19.498L43.7163 18.0698C43.8042 17.5864 43.8262 17.125 43.7822 16.6855C43.709 15.9971 43.4453 15.4624 42.9912 15.0815C42.5518 14.686 41.9658 14.481 41.2334 14.4663C40.2666 14.437 39.4463 14.6787 38.7725 15.1914C38.0986 15.6895 37.6665 16.4146 37.4761 17.3667L31.2578 17.3887C31.3604 15.1182 32.4004 13.2798 34.3779 11.8735C36.3701 10.4526 38.8237 9.75684 41.7388 9.78613C44.4341 9.84473 46.5435 10.6504 48.0669 12.2031C49.5903 13.7412 50.2275 15.7261 49.9785 18.1577L48.1548 29.5396L48.0449 30.9458C48.0156 31.9858 48.1401 32.8647 48.4185 33.5825L48.3965 34H42.3101ZM37.542 29.6274C39.3291 29.686 40.8892 28.9097 42.2222 27.2983L42.9912 23.1895L40.8379 23.1675C38.5527 23.2261 36.9048 23.9219 35.894 25.2549C35.5278 25.7383 35.3008 26.3315 35.2129 27.0347C35.0957 27.8257 35.2568 28.4556 35.6963 28.9243C36.1504 29.3784 36.7656 29.6128 37.542 29.6274ZM61.9316 24.9473L68.7212 10.2256H75.6206L61.7119 37.5815C60.7158 39.6763 59.5439 41.2144 58.1963 42.1958C56.8633 43.1772 55.3179 43.668 53.5601 43.668C52.8716 43.668 51.8755 43.5142 50.5718 43.2065L51.0332 38.3726L51.8901 38.4165C53.9116 38.4751 55.3911 37.7354 56.3286 36.1973L57.6909 33.6704L53.8018 10.2256H60.2178L61.9316 24.9473ZM93.9238 22.728L91.9463 34H85.5083L91.0674 2.00781L102.273 2.02979C105.73 2.02979 108.448 2.98926 110.425 4.9082C112.403 6.82715 113.267 9.33203 113.018 12.4229C112.784 15.5576 111.473 18.0625 109.085 19.9375C106.712 21.8125 103.68 22.75 99.9883 22.75L93.9238 22.728ZM94.8247 17.3887L100.186 17.4326C101.915 17.4326 103.35 16.9858 104.493 16.0923C105.635 15.1987 106.316 13.9902 106.536 12.4668C106.756 10.9434 106.507 9.72754 105.789 8.81934C105.086 7.91113 104.039 7.42773 102.647 7.36914L96.5825 7.34717L94.8247 17.3887ZM126.993 34C126.802 33.3994 126.722 32.6816 126.751 31.8467C124.964 33.6338 122.942 34.498 120.687 34.4395C118.606 34.4102 116.878 33.7363 115.501 32.418C114.139 31.085 113.501 29.4443 113.589 27.4961C113.692 24.9033 114.776 22.9185 116.841 21.5415C118.921 20.1499 121.705 19.4541 125.191 19.4541L128.091 19.498L128.399 18.0698C128.487 17.5864 128.509 17.125 128.465 16.6855C128.392 15.9971 128.128 15.4624 127.674 15.0815C127.234 14.686 126.648 14.481 125.916 14.4663C124.949 14.437 124.129 14.6787 123.455 15.1914C122.781 15.6895 122.349 16.4146 122.159 17.3667L115.94 17.3887C116.043 15.1182 117.083 13.2798 119.061 11.8735C121.053 10.4526 123.506 9.75684 126.421 9.78613C129.117 9.84473 131.226 10.6504 132.75 12.2031C134.273 13.7412 134.91 15.7261 134.661 18.1577L132.837 29.5396L132.728 30.9458C132.698 31.9858 132.823 32.8647 133.101 33.5825L133.079 34H126.993ZM122.225 29.6274C124.012 29.686 125.572 28.9097 126.905 27.2983L127.674 23.1895L125.521 23.1675C123.235 23.2261 121.587 23.9219 120.577 25.2549C120.21 25.7383 119.983 26.3315 119.896 27.0347C119.778 27.8257 119.939 28.4556 120.379 28.9243C120.833 29.3784 121.448 29.6128 122.225 29.6274ZM143.428 34H137.188L143.055 0.25H149.273L143.428 34Z" fill="black"/>
</svg>
