<svg width="186" height="69" viewBox="0 0 186 69" fill="none" xmlns="http://www.w3.org/2000/svg">
<path d="M35.6201 3.61442C34.4814 3.19993 33.2777 2.99194 32.0657 3.00024C28.1463 3.00024 25.3782 4.97247 25.3586 7.80359C25.3341 9.88349 27.3256 11.0556 28.8322 11.7505C30.3779 12.465 30.8948 12.9153 30.8899 13.5539C30.8801 14.5253 29.6552 14.9658 28.5162 14.9658C26.9509 14.9658 26.0959 14.748 24.7805 14.2023L24.293 13.9748L23.7369 17.2341C24.6898 17.6305 26.407 17.9706 28.1806 18C32.3474 18 35.0714 16.04 35.1032 13.0278C35.1375 11.3663 34.0597 10.1111 31.7913 9.07355C30.4122 8.40064 29.5573 7.9504 29.5573 7.26771C29.5573 6.66331 30.2897 6.01732 31.8207 6.01732C32.8397 5.99269 33.8523 6.18366 34.7921 6.57767L35.1596 6.74161L35.7156 3.5924L35.6201 3.61442ZM45.791 3.26451H42.7289C41.776 3.26451 41.0583 3.52633 40.6419 4.47085L34.7529 17.7969H38.9198L39.7526 15.6118L44.8381 15.6167C44.9581 16.1281 45.3256 17.7969 45.3256 17.7969H49L45.791 3.26451ZM19.722 3.14216H23.6928L21.2089 17.6819H17.243L19.722 3.13727V3.14216ZM9.64175 11.1559L10.0533 13.1746L13.9335 3.26451H18.1395L11.8905 17.7773H7.69429L4.26481 5.48878C4.20927 5.28615 4.07882 5.11213 3.89981 5.00184C2.66373 4.36401 1.35402 3.87998 0 3.56059L0.0538918 3.25472H6.44498C7.31215 3.28898 8.0103 3.56059 8.24301 4.48553L9.6393 11.1632V11.1559H9.64175ZM40.8917 12.6387L42.4742 8.57193C42.4546 8.61597 42.8 7.73263 43.0009 7.18696L43.2728 8.44224L44.1914 12.6363H40.8893V12.6387H40.8917Z" fill="white"/>
<path d="M113 53.0008L106.735 67H104.797L107.125 62.1011L103 52.9993H105.038L108.023 59.9756H108.062L110.953 52.9993L113 53.0008ZM86.97 57.3297V63.0011H85.001V49.0019H90.211C91.448 48.9679 92.653 49.4 93.586 50.2123C94.509 50.9698 95.016 52.0408 95.001 53.1733C95.007 53.7432 94.883 54.307 94.638 54.8215C94.393 55.3361 94.033 55.7876 93.586 56.1417C92.68 56.9382 91.555 57.3297 90.211 57.3297H86.97ZM86.963 50.7283V55.6107H90.259C90.977 55.6365 91.676 55.3783 92.205 54.8922C92.713 54.4392 92.994 53.8213 92.994 53.1808C92.994 52.5328 92.712 51.9148 92.205 51.4693C91.946 51.2229 91.641 51.0303 91.307 50.9028C90.973 50.7754 90.617 50.7156 90.259 50.7268L86.963 50.7283ZM98.946 53.0008C100.195 53.0008 101.188 53.3518 101.914 54.0478C102.64 54.7437 103 55.6962 103 56.9067V62.6951H101.375V61.3901H101.305C100.601 62.4611 99.672 62.9996 98.508 62.9996C97.507 62.9996 96.679 62.6951 96.007 62.0771C95.683 61.7901 95.425 61.4361 95.251 61.0396C95.077 60.6431 94.991 60.2136 94.999 59.7806C94.999 58.8117 95.35 58.0392 96.061 57.4602C96.765 56.8902 97.71 56.6007 98.889 56.6007C99.897 56.6007 100.724 56.7957 101.372 57.1782V56.7717C101.375 56.4766 101.314 56.1845 101.194 55.9149C101.073 55.6454 100.897 55.4046 100.676 55.2087C100.232 54.7926 99.644 54.5633 99.036 54.5682C98.091 54.5682 97.341 54.9822 96.786 55.8102L95.293 54.8412C96.114 53.6143 97.332 52.9978 98.941 52.9978L98.946 53.0008ZM96.751 59.8211C96.748 60.0434 96.797 60.2634 96.895 60.463C96.992 60.6627 97.136 60.8364 97.314 60.9701C97.689 61.2746 98.158 61.4396 98.634 61.4306C99.345 61.4306 100.032 61.1336 100.54 60.6101C101.078 60.1106 101.384 59.4071 101.384 58.6722C100.853 58.2342 100.119 58.0152 99.174 58.0152C98.478 58.0152 97.908 58.1877 97.447 58.5312C96.987 58.8822 96.751 59.3052 96.751 59.8196V59.8211ZM73.1661 49.0019C75.1856 48.9775 77.1385 49.7236 78.6274 51.0883L76.2994 53.3698C75.4491 52.5808 74.3259 52.1523 73.1661 52.1743C72.154 52.1792 71.1685 52.4994 70.3468 53.0903C69.525 53.6811 68.9077 54.5133 68.5807 55.4712C68.2372 56.4633 68.2372 57.5421 68.5807 58.5342C68.9077 59.492 69.525 60.3243 70.3468 60.9151C71.1685 61.506 72.154 61.8261 73.1661 61.8311C74.267 61.8311 75.2135 61.5581 75.947 61.0736C76.3689 60.7988 76.7306 60.441 77.0098 60.022C77.2891 59.6029 77.4802 59.1314 77.5714 58.6362H73.1646V55.5582H80.859C80.954 56.0967 81 56.6367 81 57.1827C81 59.6201 80.109 61.6826 78.5704 63.0731C77.2189 64.2926 75.368 65.002 73.1646 65.002C71.6606 65.0097 70.1836 64.6024 68.8962 63.8249C67.6087 63.0474 66.5607 61.9298 65.8674 60.5951C65.2973 59.4829 65 58.251 65 57.0012C65 55.7514 65.2973 54.5195 65.8674 53.4073C66.5599 52.0739 67.6065 50.9571 68.8922 50.1797C70.178 49.4022 71.6531 48.9942 73.1556 49.0004L73.1661 49.0019Z" fill="white"/>
<path d="M10.3168 50.7076C9.7175 51.4157 8.7627 51.9768 7.8095 51.8946C7.6836 50.9399 8.1586 49.9173 8.7069 49.2835C9.3046 48.5611 10.3503 48.0427 11.1982 48C11.2987 48.9974 10.9065 49.9773 10.3184 50.7076H10.3168ZM11.1887 52.0827C9.8035 51.9989 8.6145 52.8714 7.9578 52.8714C7.2867 52.8714 6.28092 52.1238 5.18588 52.1491C3.76568 52.1665 2.43792 52.971 1.71587 54.2655C0.21278 56.8404 1.32535 60.6528 2.76946 62.7518C3.47558 63.7887 4.32037 64.9252 5.43454 64.8936C6.48813 64.8509 6.91212 64.2028 8.1825 64.2028C9.4688 64.2028 9.8338 64.8936 10.956 64.8683C12.1084 64.8509 12.8384 63.8314 13.5445 62.7945C14.3495 61.617 14.681 60.4631 14.6985 60.4062C14.681 60.3809 12.4654 59.5337 12.4495 56.981C12.4319 54.8393 14.1917 53.8198 14.2666 53.7613C13.2783 52.2803 11.7179 52.1238 11.1871 52.0843L11.1887 52.0827ZM19.1839 49.1839V64.7608H21.5987V59.4357H24.938C27.9841 59.4357 30.1263 57.3367 30.1263 54.3066C30.1263 51.2703 28.0271 49.1855 25.0209 49.1855L19.1839 49.1839ZM21.5987 51.226H24.3801C26.4714 51.226 27.6685 52.3451 27.6685 54.313C27.6685 56.2808 26.4714 57.4094 24.3642 57.4094H21.5987V51.226ZM34.524 64.8762C36.043 64.8762 37.4457 64.1112 38.0865 62.8909H38.1375V64.7608H40.369V57.0047C40.369 54.7666 38.5774 53.3109 35.8119 53.3109C33.2552 53.3109 31.3616 54.784 31.2963 56.8008H33.4624C33.6457 55.8383 34.5256 55.2123 35.7466 55.2123C37.2241 55.2123 38.0466 55.9031 38.0466 57.1723V58.0274L35.042 58.2092C32.2351 58.3815 30.724 59.5258 30.724 61.5269C30.724 63.5437 32.2861 64.8778 34.5256 64.8778L34.524 64.8762ZM35.1807 63.0316C33.8928 63.0316 33.0719 62.4136 33.0719 61.4684C33.0719 60.4884 33.8609 59.9115 35.3624 59.8198L38.045 59.6554V60.5358C38.045 61.9947 36.8081 63.0316 35.1711 63.0316H35.1807ZM43.3497 69C45.6975 69 46.8037 68.0943 47.7665 65.3693L52 53.4658H49.5517L46.7129 62.6602H46.6619L43.8231 53.4658H41.2999L45.3851 64.8019L45.1684 65.4926C44.7938 66.6544 44.1976 67.1048 43.1345 67.1048C42.9432 67.1048 42.5782 67.0811 42.4284 67.0653V68.9352C42.5686 68.9747 43.168 68.9921 43.3417 68.9921L43.3497 69Z" fill="white"/>
<path fill-rule="evenodd" clip-rule="evenodd" d="M136.815 11.4934L134.711 5.5358L132.62 11.4934H136.815ZM156.975 17.9403L156.962 6.23986L152.509 17.9403H149.815L145.346 6.22792V17.9403H139.103L137.923 14.608H131.528L130.335 17.9403H127L132.5 3H137.061L142.284 17.1468V3H147.296L151.316 13.1342L155.007 3H160.122V17.9403H156.975ZM165.011 14.8854V11.9111H171.753V8.86217H165.011V6.14439H172.71L176.07 10.5L172.561 14.8854H165.011ZM185.818 18H181.826L178.045 13.0507L174.115 18H161.951V3.0537H174.303L178.081 7.95227L181.988 3.0537H186L180.031 10.5268L185.818 18Z" fill="white"/>
<path d="M157.86 48V65H162.201V60.6101H164.787L165.508 60.5841C166.93 60.5608 167.737 60.5323 167.927 60.4986C169.539 60.2758 170.606 59.4154 171.122 57.9227C171.383 57.1712 171.516 55.9299 171.516 54.2066C171.516 52.7735 171.395 51.698 171.159 50.9854C170.704 49.6274 169.812 48.7282 168.48 48.2902C167.9 48.0985 167.053 48.0026 165.945 48.0026L157.86 48ZM174.551 48L169.706 65H174.195L174.975 62.0613H180.776L181.605 64.9974H186L181.095 48.0026L174.551 48ZM151.593 48.0803C149.939 48.0753 148.323 48.5935 146.952 49.5678C145.64 50.4926 144.615 51.8039 144.005 53.3384H142.18L141.039 55.9195H143.421C143.389 56.3734 143.392 56.8293 143.432 57.2826H142.284L141.141 59.8611H144.061C144.71 61.3922 145.768 62.691 147.105 63.5989C148.443 64.5069 150.002 64.9847 151.593 64.9741C153.234 64.979 154.839 64.4703 156.205 63.5125L156.237 63.4892V60.2732L156.114 60.4183C155.548 61.1005 154.841 61.6371 154.048 61.987C153.254 62.3369 152.396 62.4908 151.537 62.4371C150.679 62.3833 149.844 62.1232 149.095 61.6767C148.347 61.2303 147.705 60.6092 147.22 59.8611H153.11L154.253 57.2826H146.269C146.211 56.8308 146.2 56.3736 146.239 55.9195H154.856L154.875 55.8755L155.952 53.4421L155.999 53.3384H147.045C147.549 52.4648 148.258 51.7422 149.103 51.2395C149.948 50.7368 150.901 50.4708 151.871 50.4671C153.577 50.4671 155.175 51.2704 156.254 52.6698L156.323 52.7605L157.329 50.493L157.291 50.4567C155.751 48.9234 153.712 48.0726 151.593 48.0803ZM133.893 48.0907C132.814 48.0907 131.835 48.1322 130.953 48.2151C129.896 48.3032 129.023 48.6038 128.342 49.1169C127.862 49.4742 127.508 49.9891 127.335 50.5811C127.123 51.2238 127.019 52.079 127.019 53.1466C127.019 54.546 127.214 55.5904 127.6 56.2823C128.04 57.096 128.92 57.6299 130.24 57.8916C130.744 57.9823 131.642 58.0756 132.929 58.1741C134.537 58.2881 135.437 58.3762 135.629 58.441C136.148 58.6043 136.405 59.0604 136.405 59.8093C136.413 60.0846 136.382 60.3596 136.314 60.6256C136.253 60.7993 136.155 60.9563 136.028 61.085C135.901 61.2136 135.749 61.3108 135.582 61.3694C135.375 61.4523 134.891 61.4938 134.134 61.4938H132.649C132.301 61.4951 131.957 61.4154 131.642 61.2605C131.238 61.0506 131.036 60.5764 131.036 59.8378V59.4854H127C127 60.8666 127.099 61.8566 127.29 62.4474C127.639 63.5151 128.36 64.2226 129.451 64.5724C130.341 64.8575 131.916 64.9974 134.176 64.9974C135.531 64.9974 136.536 64.9326 137.194 64.8031C138.768 64.4921 139.776 63.7561 140.226 62.5925C140.474 61.9576 140.597 60.9547 140.597 59.5864C140.597 58.9904 140.573 58.4591 140.516 57.9875C140.451 57.2592 140.142 56.5792 139.643 56.0698C139.023 55.4427 138.02 55.054 136.644 54.9088C136.209 54.8596 135.12 54.7741 133.375 54.6497L132.561 54.5901C132.26 54.5824 131.965 54.4989 131.701 54.3465C131.395 54.1521 131.245 53.7427 131.245 53.1259C131.245 52.4418 131.417 51.9986 131.757 51.7939C132.098 51.5892 132.797 51.4881 133.852 51.4881C134.936 51.4881 135.597 51.6643 135.837 52.0194C135.992 52.2578 136.071 52.7242 136.071 53.4239H140.108C140.133 53.0482 140.147 52.7683 140.147 52.5791C140.147 50.2883 139.269 48.8966 137.512 48.3991C136.791 48.1944 135.585 48.0907 133.89 48.0907H133.893ZM177.882 51.3819L179.915 58.7494H175.908L177.882 51.3819ZM162.199 51.7187H164.942C165.385 51.7187 165.664 51.7291 165.782 51.7447C166.372 51.8535 166.749 52.1515 166.903 52.6387C167.015 52.986 167.069 53.5198 167.069 54.2377C167.078 54.6816 167.051 55.1256 166.987 55.5645C166.901 56.0102 166.729 56.3082 166.471 56.4559C166.284 56.5648 165.763 56.6348 164.905 56.6684H162.201L162.199 51.7187Z" fill="white"/>
<path fill-rule="evenodd" clip-rule="evenodd" d="M84.471 17.5977C82.836 18.6535 80.913 19.2171 78.946 19.2171C76.3087 19.2144 73.7806 18.2012 71.916 16.3999C70.0515 14.5985 69.0027 12.1561 69 9.60853C69 7.70814 69.5833 5.85043 70.6761 4.27032C71.769 2.6902 73.3223 1.45866 75.1396 0.73141C76.9569 0.00416374 78.957 -0.186118 80.886 0.184629C82.469 0.488935 83.947 1.15999 85.195 2.13379C84.418 2.7401 83.736 3.4593 83.175 4.27032C82.082 5.85043 81.499 7.70814 81.499 9.60853C81.501 12.1561 82.55 14.5985 84.415 16.3999C84.664 16.6411 84.926 16.8682 85.198 17.0807C84.965 17.2631 84.722 17.4356 84.471 17.5977Z" fill="white"/>
<path d="M93.39 19.2171C98.6966 19.2171 102.999 14.9152 102.999 9.60855C102.999 4.30189 98.6966 0 93.39 0C88.0833 0 83.7814 4.30189 83.7814 9.60855C83.7814 14.9152 88.0833 19.2171 93.39 19.2171Z" fill="white"/>
</svg>
