<svg width="29" height="34" viewBox="0 0 29 34" fill="none" xmlns="http://www.w3.org/2000/svg">
<path d="M23.8115 17.8556C23.7956 15.0952 25.0222 13.0149 27.4993 11.4809C26.1139 9.45718 24.0179 8.34414 21.2551 8.12963C18.6392 7.91917 15.7771 9.68384 14.7291 9.68384C13.6216 9.68384 11.089 8.20248 9.09628 8.20248C4.98379 8.26724 0.613281 11.5457 0.613281 18.2158C0.613281 20.1869 0.966574 22.2227 1.67316 24.3193C2.61792 27.0796 6.02382 33.8429 9.57659 33.7336C11.4344 33.6891 12.7483 32.3898 15.1658 32.3898C17.5118 32.3898 18.7265 33.7336 20.7986 33.7336C24.3831 33.681 27.4635 27.5329 28.3607 24.7645C23.5535 22.4534 23.8115 17.9972 23.8115 17.8556ZM19.6395 5.51095C21.6521 3.07441 21.4695 0.856423 21.4099 0.0590816C19.6315 0.164314 17.5753 1.29354 16.4043 2.68181C15.1142 4.17126 14.356 6.01283 14.5187 8.08916C16.44 8.23891 18.1946 7.2311 19.6395 5.51095Z" fill="white"/>
</svg>
