<svg width="40" height="40" viewBox="0 0 40 40" fill="none" xmlns="http://www.w3.org/2000/svg">
<path d="M3.83398 5.30485L3.83398 35.2822C3.83418 35.3472 3.85358 35.4108 3.88975 35.4648C3.92591 35.5189 3.97723 35.5611 4.03726 35.5861C4.0973 35.6111 4.16339 35.6178 4.22723 35.6054C4.29108 35.593 4.34984 35.562 4.39615 35.5164L20.005 20.2943L4.39615 5.07068C4.34984 5.02501 4.29108 4.99404 4.22723 4.98164C4.16339 4.96924 4.0973 4.97597 4.03726 5.00098C3.97723 5.02599 3.92591 5.06817 3.88975 5.12222C3.85358 5.17628 3.83419 5.23981 3.83398 5.30485Z" fill="white"/>
<path d="M26.5492 14.0397L6.97773 3.25705L6.96553 3.25019C6.62838 3.06712 6.30801 3.52326 6.58414 3.78871L21.926 18.4585L26.5492 14.0397Z" fill="white"/>
<path d="M6.58503 36.8003C6.30738 37.0657 6.62775 37.5219 6.96642 37.3388L6.97862 37.3319L26.5486 26.5492L21.9253 22.1289L6.58503 36.8003Z" fill="white"/>
<path d="M34.4519 18.3879L28.9865 15.3779L23.8477 20.2948L28.9865 25.2094L34.4519 22.2018C35.9385 21.3803 35.9385 19.2094 34.4519 18.3879Z" fill="white"/>
</svg>
