<svg xmlns="http://www.w3.org/2000/svg" viewBox="0 0 20 20" fill="none">
<path d="M10 0C10.3797 0 10.6935 0.282154 10.7432 0.648229L10.75 0.75L10.7491 2.53771C14.2928 2.88757 17.1124 5.70719 17.4632 9.25253L17.5 9.25H19.25C19.6642 9.25 20 9.58579 20 10C20 10.3797 19.7178 10.6935 19.3518 10.7432L19.25 10.75L17.4617 10.749C17.1124 14.2928 14.2928 17.1124 10.7475 17.4632L10.75 17.5V19.25C10.75 19.6642 10.4142 20 10 20C9.6203 20 9.30651 19.7178 9.25685 19.3518L9.25 19.25L9.25096 17.4617C5.70719 17.1124 2.88757 14.2928 2.53678 10.7475L2.5 10.75H0.75C0.335786 10.75 0 10.4142 0 10C0 9.6203 0.282154 9.30651 0.648229 9.25685L0.75 9.25L2.53771 9.25093C2.88757 5.70719 5.70719 2.88757 9.25253 2.53678L9.25 2.5V0.75C9.25 0.335786 9.58579 0 10 0ZM10 4C6.68629 4 4 6.68629 4 10C4 13.3137 6.68629 16 10 16C13.3137 16 16 13.3137 16 10C16 6.68629 13.3137 4 10 4ZM10 6C12.2091 6 14 7.79086 14 10C14 12.2091 12.2091 14 10 14C7.79086 14 6 12.2091 6 10C6 7.79086 7.79086 6 10 6Z" fill="#202020"/>
</svg>