<svg width="30" height="38" viewBox="0 0 30 38" fill="none" xmlns="http://www.w3.org/2000/svg">
<path d="M5.4468 1.15623L8.05519 0.36999C10.5113 -0.370335 13.1354 0.8261 14.1872 3.16578L15.8109 6.77768C16.7074 8.77194 16.235 11.1157 14.6359 12.6068L11.7996 15.2518C11.7645 15.2844 11.7357 15.3233 11.7147 15.3664C11.418 15.9727 11.8676 17.5928 13.281 20.0411C14.8742 22.8004 16.1055 23.8924 16.6743 23.7229L20.3976 22.5845C22.488 21.9454 24.7533 22.7075 26.0323 24.4802L28.3384 27.6761C29.8354 29.7509 29.5662 32.6133 27.7085 34.3726L25.7253 36.2509C24.3244 37.5776 22.3628 38.1345 20.4737 37.7417C14.9468 36.5927 9.99495 32.1419 5.57666 24.4892C1.15401 16.8289 -0.222941 10.3097 1.55339 4.94578C2.15671 3.12398 3.60936 1.71008 5.4468 1.15623ZM6.12707 3.41307C5.0246 3.74538 4.15301 4.59373 3.79102 5.68681C2.26046 10.3086 3.50025 16.1784 7.618 23.3106C11.7318 30.4359 16.1908 34.4438 20.9535 35.4339C22.0869 35.6696 23.2639 35.3354 24.1044 34.5394L26.0877 32.6612C27.088 31.7139 27.233 30.1726 26.4269 29.0554L24.1208 25.8594C23.4321 24.9049 22.2123 24.4945 21.0867 24.8387L17.3555 25.9794C15.2904 26.595 13.3494 24.8739 11.2397 21.2196C9.45362 18.1261 8.8336 15.8916 9.59732 14.3305C9.74491 14.0288 9.9465 13.7567 10.1921 13.5278L13.0283 10.8829C13.8894 10.08 14.1438 8.81799 13.661 7.74416L12.0373 4.13226C11.471 2.87243 10.058 2.2282 8.73546 2.62684L6.12707 3.41307Z" fill="#666666"/>
</svg>
