<svg xmlns="http://www.w3.org/2000/svg" width="164" height="164" viewBox="0 0 164 164" fill="none">
<circle cx="82" cy="82" r="82" fill="#FFD100" fill-opacity="0.17"/>
<ellipse cx="81.5" cy="81" rx="58.5" ry="58" fill="#FFD100" fill-opacity="0.17"/>
<ellipse cx="81" cy="91.5" rx="33" ry="32.5" fill="#FFD100" fill-opacity="0.17"/>
<g style="mix-blend-mode:multiply" opacity="0.17">
<path d="M55.4414 131.697C55.4414 132.989 66.6543 134.037 80.486 134.037C94.3178 134.037 105.534 132.989 105.534 131.697C105.534 130.405 94.3209 129.357 80.486 129.357C66.6511 129.357 55.4414 130.405 55.4414 131.697Z" fill="black"/>
</g>
<path d="M93.5864 131.669C93.5864 128.22 87.6743 125.423 80.3787 125.423C73.083 125.423 67.1709 128.22 67.1709 131.669H93.5864Z" fill="#FFD100"/>
<path d="M117.576 91.4795C117.576 101.418 113.657 110.95 106.681 117.978C99.7056 125.006 90.2444 128.954 80.3793 128.954C70.5141 128.954 61.053 125.006 54.0773 117.978C47.1015 110.95 43.1826 101.418 43.1826 91.4795H117.576Z" fill="#FFD100"/>
<g style="mix-blend-mode:multiply" opacity="0.51">
<path d="M56.7938 91.4795H43.1826C43.1826 101.416 47.1005 110.945 54.0745 117.971C61.0484 124.997 70.5072 128.944 80.3698 128.944C83.6788 128.944 84.2272 129.112 87.2841 128.309C71.385 124.052 56.7938 108.843 56.7938 91.4795Z" fill="#D1D3D4"/>
</g>
<path d="M88.5757 51.2627C88.5757 52.4885 88.215 53.6867 87.539 54.7059C86.8631 55.7251 85.9023 56.5195 84.7782 56.9885C83.6542 57.4576 82.4173 57.5803 81.224 57.3412C80.0307 57.1021 78.9346 56.5118 78.0742 55.6451C77.2139 54.7783 76.628 53.674 76.3907 52.4718C76.1533 51.2696 76.2751 50.0235 76.7407 48.891C77.2063 47.7586 77.9948 46.7907 79.0064 46.1097C80.0181 45.4287 81.2074 45.0652 82.4241 45.0652C83.2321 45.0648 84.0322 45.2248 84.7787 45.5361C85.5253 45.8474 86.2036 46.3039 86.7749 46.8795C87.3462 47.4551 87.7993 48.1384 88.1083 48.8906C88.4173 49.6427 88.5762 50.4488 88.5757 51.2627V51.2627Z" stroke="white" stroke-width="2" stroke-miterlimit="10" stroke-dasharray="3 3"/>
<path d="M54.4275 32.536C54.43 34.0543 53.9854 35.5392 53.1499 36.8028C52.3145 38.0665 51.1257 39.052 49.7341 39.6348C48.3425 40.2176 46.8106 40.3714 45.3322 40.0767C43.8538 39.782 42.4953 39.0522 41.4288 37.9794C40.3623 36.9067 39.6356 35.5394 39.3406 34.0505C39.0457 32.5615 39.1958 31.0179 39.772 29.6149C40.3481 28.212 41.3244 27.0127 42.5773 26.1689C43.8302 25.3251 45.3034 24.8748 46.8104 24.8748C48.8284 24.8748 50.7639 25.6815 52.1921 27.1179C53.6202 28.5543 54.4242 30.5029 54.4275 32.536Z" stroke="white" stroke-width="2.48" stroke-miterlimit="10" stroke-dasharray="3.72 3.72"/>
<path d="M64.2755 56.539C64.2786 57.4219 64.0216 58.2859 63.5369 59.0216C63.0523 59.7573 62.3619 60.3315 61.5531 60.6716C60.7443 61.0116 59.8535 61.1022 58.9936 60.9319C58.1336 60.7616 57.3432 60.338 56.7224 59.7148C56.1016 59.0916 55.6783 58.2967 55.5062 57.431C55.334 56.5652 55.4208 55.6675 55.7555 54.8515C56.0901 54.0354 56.6576 53.3378 57.3861 52.8469C58.1146 52.3561 58.9713 52.094 59.8477 52.094C60.4284 52.0919 61.0038 52.2054 61.5409 52.4278C62.0781 52.6503 62.5663 52.9773 62.9777 53.3903C63.389 53.8033 63.7154 54.294 63.9381 54.8343C64.1609 55.3746 64.2755 55.9539 64.2755 56.539V56.539Z" stroke="white" stroke-width="1.44" stroke-miterlimit="10" stroke-dasharray="2.16 2.16"/>
<path d="M129.916 69.7883C129.916 70.7303 129.639 71.651 129.12 72.4342C128.6 73.2174 127.862 73.8278 126.998 74.1883C126.134 74.5487 125.184 74.6431 124.267 74.4593C123.35 74.2755 122.508 73.822 121.846 73.1559C121.185 72.4899 120.735 71.6413 120.553 70.7175C120.37 69.7936 120.464 68.8361 120.822 67.9658C121.18 67.0956 121.785 66.3518 122.563 65.8285C123.34 65.3052 124.254 65.0259 125.189 65.0259C126.443 65.0259 127.645 65.5276 128.532 66.4208C129.418 67.3139 129.916 68.5253 129.916 69.7883Z" stroke="white" stroke-width="1.54" stroke-miterlimit="10" stroke-dasharray="2.31 2.31"/>
<path d="M96.1175 26.7417C96.1175 27.6836 95.8402 28.6044 95.3208 29.3876C94.8014 30.1708 94.0631 30.7812 93.1993 31.1417C92.3355 31.5021 91.385 31.5964 90.468 31.4127C89.5511 31.2289 88.7088 30.7753 88.0476 30.1093C87.3865 29.4432 86.9363 28.5947 86.7539 27.6708C86.5715 26.747 86.6651 25.7894 87.0229 24.9192C87.3807 24.049 87.9866 23.3052 88.764 22.7819C89.5414 22.2586 90.4553 21.9792 91.3903 21.9792C92.644 21.9792 93.8464 22.481 94.7329 23.3741C95.6194 24.2673 96.1175 25.4786 96.1175 26.7417Z" stroke="white" stroke-width="1.54" stroke-miterlimit="10" stroke-dasharray="2.31 2.31"/>
<path d="M36.4125 49.3032C36.4125 50.1196 36.1723 50.9176 35.7221 51.5963C35.2719 52.2751 34.6321 52.8041 33.8835 53.1165C33.1349 53.4289 32.3111 53.5107 31.5164 53.3514C30.7217 53.1922 29.9917 52.799 29.4187 52.2218C28.8457 51.6446 28.4556 50.9091 28.2975 50.1085C28.1394 49.3078 28.2205 48.4779 28.5306 47.7237C28.8407 46.9695 29.3658 46.3249 30.0395 45.8714C30.7133 45.4179 31.5054 45.1758 32.3156 45.1758C33.4022 45.1758 34.4443 45.6106 35.2126 46.3847C35.9809 47.1587 36.4125 48.2086 36.4125 49.3032Z" stroke="white" stroke-width="1.33" stroke-miterlimit="10" stroke-dasharray="2 2"/>
<path d="M116.615 45.4524C116.615 46.2688 116.374 47.0668 115.924 47.7455C115.474 48.4243 114.834 48.9533 114.086 49.2657C113.337 49.5781 112.513 49.6598 111.719 49.5006C110.924 49.3413 110.194 48.9482 109.621 48.371C109.048 47.7937 108.658 47.0583 108.5 46.2576C108.342 45.457 108.423 44.6271 108.733 43.8729C109.043 43.1187 109.568 42.4741 110.242 42.0206C110.915 41.567 111.708 41.325 112.518 41.325C113.604 41.325 114.646 41.7598 115.415 42.5339C116.183 43.3079 116.615 44.3577 116.615 45.4524Z" stroke="white" stroke-width="1.33" stroke-miterlimit="10" stroke-dasharray="2 2"/>
<path d="M92.0495 106.453C93.327 106.453 94.3627 105.409 94.3627 104.122C94.3627 102.835 93.327 101.792 92.0495 101.792C90.772 101.792 89.7363 102.835 89.7363 104.122C89.7363 105.409 90.772 106.453 92.0495 106.453Z" fill="#202020"/>
<path d="M67.8239 106.453C69.1014 106.453 70.1371 105.409 70.1371 104.122C70.1371 102.835 69.1014 101.792 67.8239 101.792C66.5464 101.792 65.5107 102.835 65.5107 104.122C65.5107 105.409 66.5464 106.453 67.8239 106.453Z" fill="#202020"/>
<path d="M86.9915 114.466H75.0097C74.719 114.466 74.4834 114.704 74.4834 114.997V115C74.4834 115.293 74.719 115.53 75.0097 115.53H86.9915C87.2822 115.53 87.5178 115.293 87.5178 115V114.997C87.5178 114.704 87.2822 114.466 86.9915 114.466Z" fill="#202020"/>
<path d="M114.663 65.978L103.766 80.7861" stroke="#FFD100" stroke-width="3" stroke-miterlimit="10" stroke-linecap="round"/>
<path d="M81 77.4811V60.9998" stroke="#FFD100" stroke-width="3" stroke-miterlimit="10" stroke-linecap="round"/>
<path d="M56.1156 81.3481L42.7598 63.2" stroke="#FFD100" stroke-width="3" stroke-miterlimit="10" stroke-linecap="round"/>
</svg>