<svg xmlns="http://www.w3.org/2000/svg" version="1.1" xmlns:xlink="http://www.w3.org/1999/xlink" xmlns:svgjs="http://svgjs.com/svgjs" x="0" y="0" viewBox="0 0 512 512" style="enable-background:new 0 0 512 512" xml:space="preserve" class=""><g>
<path xmlns="http://www.w3.org/2000/svg" style="" d="M496.28,328.775H72.883c-8.646,0-15.72-7.074-15.72-15.72V82.492c0-8.646,7.074-15.72,15.72-15.72  H496.28c8.646,0,15.72,7.074,15.72,15.72v230.563C512,321.701,504.926,328.775,496.28,328.775z" fill="#317f46" data-original="#317f46"></path>
<path xmlns="http://www.w3.org/2000/svg" style="" d="M465.49,145.33c-13.436-4.65-24.054-16.289-28.285-31.017c-2.429-8.413-9.523-14.151-17.564-14.151  H317.589h-25.091H149.522c-8.04,0-15.134,5.738-17.564,14.151c-4.231,14.727-14.849,26.366-28.285,31.017  c-7.676,2.65-12.91,10.427-12.91,19.253v33.091v0.201v33.091c0,8.826,5.235,16.603,12.91,19.253  c13.436,4.65,24.054,16.289,28.285,31.017c2.429,8.413,9.523,14.151,17.564,14.151h142.975h25.091h102.053  c8.04,0,15.134-5.738,17.564-14.151c4.231-14.727,14.849-26.366,28.285-31.017c7.676-2.65,12.91-10.427,12.91-19.253v-33.091v-0.201  v-33.091C478.401,155.757,473.166,147.98,465.49,145.33z" fill="#4cba68" data-original="#4cba68"></path>
<path xmlns="http://www.w3.org/2000/svg" style="" d="M469.038,386.424H45.641c-8.646,0-15.72-7.074-15.72-15.72V140.141c0-8.646,7.074-15.72,15.72-15.72  h423.397c8.646,0,15.72,7.074,15.72,15.72v230.563C484.758,379.35,477.684,386.424,469.038,386.424z" fill="#368b4c" data-original="#368b4c" class=""></path>
<path xmlns="http://www.w3.org/2000/svg" id="SVGCleanerId_0" style="" d="M438.248,202.978c-13.436-4.65-24.054-16.289-28.285-31.017  c-2.429-8.413-9.523-14.151-17.564-14.151H290.346h-25.091H122.28c-8.04,0-15.134,5.738-17.564,14.151  c-4.231,14.727-14.849,26.366-28.285,31.017c-7.676,2.65-12.91,10.427-12.91,19.253v33.091v0.201v33.091  c0,8.826,5.235,16.603,12.91,19.253c13.436,4.65,24.053,16.289,28.285,31.017c2.429,8.413,9.523,14.151,17.564,14.151h142.975  h25.091H392.4c8.04,0,15.134-5.738,17.564-14.151c4.232-14.727,14.849-26.366,28.285-31.017c7.676-2.65,12.91-10.427,12.91-19.253  v-33.091v-0.201v-33.091C451.159,213.405,445.924,205.628,438.248,202.978z" fill="#64c37d" data-original="#64c37d"></path>
<g xmlns="http://www.w3.org/2000/svg">
	<path id="SVGCleanerId_0_1_" style="" d="M438.248,202.978c-13.436-4.65-24.054-16.289-28.285-31.017   c-2.429-8.413-9.523-14.151-17.564-14.151H290.346h-25.091H122.28c-8.04,0-15.134,5.738-17.564,14.151   c-4.231,14.727-14.849,26.366-28.285,31.017c-7.676,2.65-12.91,10.427-12.91,19.253v33.091v0.201v33.091   c0,8.826,5.235,16.603,12.91,19.253c13.436,4.65,24.053,16.289,28.285,31.017c2.429,8.413,9.523,14.151,17.564,14.151h142.975   h25.091H392.4c8.04,0,15.134-5.738,17.564-14.151c4.232-14.727,14.849-26.366,28.285-31.017c7.676-2.65,12.91-10.427,12.91-19.253   v-33.091v-0.201v-33.091C451.159,213.405,445.924,205.628,438.248,202.978z" fill="#64c37d" data-original="#64c37d"></path>
</g>
<path xmlns="http://www.w3.org/2000/svg" style="" d="M454.837,198.945v230.563c0,8.646-7.074,15.72-15.72,15.72H15.72c-8.646,0-15.72-7.074-15.72-15.72  V198.945c0-8.646,7.074-15.72,15.72-15.72h423.397C447.763,183.225,454.837,190.299,454.837,198.945z" fill="#368b4c" data-original="#368b4c" class=""></path>
<path xmlns="http://www.w3.org/2000/svg" style="" d="M454.837,198.945V423.22H37.728c-8.646,0-15.72-7.074-15.72-15.72V183.225h417.109  C447.763,183.225,454.837,190.299,454.837,198.945z" fill="#3fa45a" data-original="#3fa45a" class=""></path>
<path xmlns="http://www.w3.org/2000/svg" style="" d="M408.325,261.783c-13.436-4.65-24.054-16.289-28.285-31.017c-2.429-8.413-9.523-14.151-17.564-14.151  H260.424h-25.092H92.357c-8.04,0-15.134,5.738-17.564,14.151c-4.231,14.727-14.849,26.366-28.285,31.017  c-7.676,2.65-12.91,10.427-12.91,19.253v33.091v0.201v33.091c0,8.826,5.235,16.603,12.91,19.253  c13.436,4.65,24.053,16.289,28.285,31.017c2.429,8.413,9.523,14.151,17.564,14.151h142.975h25.092h102.053  c8.04,0,15.134-5.738,17.564-14.151c4.232-14.727,14.849-26.366,28.285-31.017c7.676-2.65,12.91-10.427,12.91-19.253v-33.091v-0.201  v-33.091C421.236,272.21,416.001,264.433,408.325,261.783z" fill="#95d6a6" data-original="#95d6a6" class=""></path>
<circle xmlns="http://www.w3.org/2000/svg" style="" cx="227.419" cy="314.225" r="60.587" fill="#368b4c" data-original="#368b4c" class=""></circle>
<path xmlns="http://www.w3.org/2000/svg" style="" d="M227.418,363.527c4.341,0,7.86-3.519,7.86-7.86v-5.113c8.663-3.178,14.86-11.507,14.86-21.258  c0-12.422-10.06-22.539-22.461-22.633l-0.156-0.006c-0.049-0.002-0.099-0.003-0.148-0.004c-3.676-0.076-6.782-3.398-6.782-7.25  c0-3.764,3.061-6.866,6.753-6.912l0.045-0.001c3.778,0.031,6.853,3.133,6.853,6.913c0,4.341,3.519,7.86,7.86,7.86  s7.86-3.519,7.86-7.86c0-9.629-6.107-17.889-14.686-21.141v-5.476c0-4.341-3.519-7.86-7.86-7.86c-4.341,0-7.86,3.519-7.86,7.86  v5.461c-8.555,3.245-14.687,11.524-14.687,21.154c0,12.38,9.903,22.664,22.09,22.966l0.231,0.009  c0.105,0.004,0.209,0.006,0.312,0.006c3.812,0,6.914,3.101,6.914,6.913s-3.101,6.913-6.937,6.913h-0.151  c-3.812,0-6.913-3.101-6.913-6.914c0-4.341-3.519-7.86-7.86-7.86s-7.86,3.519-7.86,7.86c0,9.746,6.193,18.073,14.86,21.254v5.117  C219.557,360.009,223.076,363.527,227.418,363.527z" fill="#2c733f" data-original="#2c733f"></path>
<g xmlns="http://www.w3.org/2000/svg">
</g>
<g xmlns="http://www.w3.org/2000/svg">
</g>
<g xmlns="http://www.w3.org/2000/svg">
</g>
<g xmlns="http://www.w3.org/2000/svg">
</g>
<g xmlns="http://www.w3.org/2000/svg">
</g>
<g xmlns="http://www.w3.org/2000/svg">
</g>
<g xmlns="http://www.w3.org/2000/svg">
</g>
<g xmlns="http://www.w3.org/2000/svg">
</g>
<g xmlns="http://www.w3.org/2000/svg">
</g>
<g xmlns="http://www.w3.org/2000/svg">
</g>
<g xmlns="http://www.w3.org/2000/svg">
</g>
<g xmlns="http://www.w3.org/2000/svg">
</g>
<g xmlns="http://www.w3.org/2000/svg">
</g>
<g xmlns="http://www.w3.org/2000/svg">
</g>
<g xmlns="http://www.w3.org/2000/svg">
</g>
</g></svg>