<svg width="387" height="278" viewBox="0 0 387 278" fill="none" xmlns="http://www.w3.org/2000/svg">
<path d="M358.33 277.669C381.043 277.669 394.79 254.411 381.446 237.871C381.16 237.522 380.873 237.182 380.551 236.842C372.389 227.593 359.968 224.319 349.04 219.121C346.006 217.69 342.955 216.026 340.843 213.342C337.889 209.612 337.182 204.397 337.791 199.584C340.341 179.493 362.259 167.113 365.803 147.182C368.487 132.109 359.243 116.768 346.74 108.824C334.238 100.881 319.14 98.8411 304.508 98.2596C289.876 97.6782 275.038 98.197 260.79 94.6278C257.04 93.7333 253.147 92.3288 250.597 89.2605C247.697 85.8255 247.089 80.8518 247.554 76.2897C248.789 64.0076 276.81 21.7226 262.768 7.81248C260.119 5.08895 256.899 2.98577 253.34 1.65406C249.781 0.322358 245.971 -0.204801 242.184 0.110467C234.64 0.870828 227.597 4.32376 221.001 8.21502C207.049 16.4269 158.355 70.8867 140.877 79.1164C123.667 87.1673 103.907 84.8236 85.0414 84.439C66.176 84.0543 45.2612 86.8453 32.9378 101.838C28.5705 107.125 25.5545 114.263 27.0223 121.088C27.9172 125.337 30.4857 129.023 33.3853 132.163C39.9989 139.319 48.5993 144.275 54.8639 151.78C61.1285 159.285 64.4308 171.219 58.5421 179.055C56.26 182.096 52.9398 184.055 49.6822 185.889C31.497 196.14 11.0833 206.66 3.14519 226.626C-0.908894 236.824 -0.8373 248.095 2.17865 258.651C5.3736 269.86 16.5872 277.705 29.4386 277.705L358.33 277.669Z" fill="#FFEE32" fill-opacity="0.4"/>
<g style="mix-blend-mode:multiply" opacity="0.41">
<path d="M380.569 236.839C372.408 227.589 359.986 224.315 349.058 219.118C346.025 217.687 342.973 216.023 340.861 213.339C337.907 209.609 337.2 204.394 337.809 199.581C340.36 179.49 362.277 167.109 365.821 147.179C368.506 132.106 359.261 116.765 346.758 108.821C334.256 100.878 319.141 98.838 304.508 98.2565C289.876 97.6751 275.038 98.1939 260.79 94.6247C257.04 93.7301 253.147 92.3257 250.597 89.2574C247.697 85.8224 247.089 80.8487 247.554 76.2866C248.789 64.0045 276.81 21.7195 262.768 7.80935C258.112 3.06743 251.824 0.275219 245.183 0C254.051 2.41526 260.531 7.47837 255.814 17.8908C244.923 41.8109 143.786 121.515 214.826 129.396C285.867 137.276 168.182 200.413 221.798 204.779C262.705 208.097 178.796 255.991 136.841 277.666H358.33C381.044 277.666 394.79 254.408 381.446 237.868C381.16 237.519 380.874 237.179 380.569 236.839Z" fill="#FFEE32"/>
</g>
<path d="M58.2088 66.3031C58.2088 66.3031 131.854 91.6455 164.6 32.4089C197.346 -26.8277 -3.54218 44.2973 58.2088 66.3031Z" fill="#FFEE32" fill-opacity="0.4"/>
<g style="mix-blend-mode:multiply" opacity="0.41">
<path d="M148.724 9.38379C153.941 12.8457 154.989 19.0896 149.52 28.9564C126.359 70.8657 82.722 70.4363 59.176 66.6077C67.7675 69.2913 134.047 87.7457 164.636 32.4093C173.657 16.0481 164.887 9.63426 148.724 9.38379Z" fill="#FFEE32"/>
</g>
<path d="M34.0487 250.373C34.0487 250.373 31.3638 247.868 33.1537 238.341C34.9436 228.814 39.5347 219.681 37.2884 209.358C35.0421 199.035 17.4385 172.986 17.3759 171.26C17.3132 169.533 11.9436 201.549 21.0452 214.198C30.1467 226.846 31.2475 231.194 30.8895 237.822C30.5315 244.451 30.979 249.8 31.9814 251.339L34.0487 250.373Z" fill="#FFD100"/>
<path d="M32.3352 231.23C31.2792 235.479 30.6438 246.125 32.3352 248.674C32.4874 248.907 32.7201 248.772 32.9975 248.334C32.4874 246.545 32.1026 243.486 33.1228 238.342C34.9127 228.824 39.5037 219.682 37.2574 209.359C35.0111 199.036 17.4076 172.987 17.345 171.26C17.345 171.26 20.0298 192.953 28.9792 207.883C35.3333 218.582 33.4002 226.981 32.3352 231.23Z" fill="#FFEE32"/>
<path d="M37.2123 249.711C37.2123 249.711 32.0395 236.803 40.792 225.63C49.5446 214.457 63.5773 200.1 63.8726 194.42C63.8726 194.42 67.4524 221.408 56.0687 229.047C44.685 236.687 36.6574 237.912 38.6352 249.667L37.2123 249.711Z" fill="#FFD100"/>
<path d="M49.5283 223.626C36.8112 232.876 35.7641 243.539 37.7419 248.486C37.8138 248.665 37.9264 248.826 38.0708 248.955C38.2152 249.084 38.3875 249.177 38.5742 249.228C36.8648 237.885 44.8388 236.597 56.0703 229.047C67.3018 221.497 63.8742 194.42 63.8742 194.42C63.8742 194.42 62.2544 214.368 49.5283 223.626Z" fill="#FFEE32"/>
<path d="M28.6778 250.007C29.6851 245.34 29.9449 240.542 29.4475 235.793C28.5525 228.413 20.856 224.262 13.6518 216.471C9.9467 212.454 8.84593 191.254 11.1459 189.277C11.1459 189.277 -1.58015 204.69 0.406621 215.97C2.39339 227.25 23.1382 234.585 25.0981 240.042C26.2568 243.26 26.8619 246.65 26.888 250.07L28.6778 250.007Z" fill="#FFEE32"/>
<path d="M6.88584 195.341C2.67962 206.729 6.98429 220.514 20.9543 229.075C31.2372 235.336 27.9617 248.477 27.9617 248.477L29.6442 243.307C29.819 240.802 29.765 238.287 29.4831 235.793C28.5882 228.413 20.8917 224.262 13.6874 216.47C10.1076 212.597 8.96211 192.738 10.9489 189.572C9.49325 191.422 8.13699 193.347 6.88584 195.341Z" fill="#FFD100"/>
<path d="M10.9446 189.572L11.1773 189.277C11.0843 189.362 11.0057 189.462 10.9446 189.572Z" fill="#49B4D6"/>
<path d="M39.8813 249.148C39.8813 249.148 42.8615 238.091 50.2358 236.624C57.6101 235.157 66.0763 224.244 66.5327 222.106C66.5327 222.088 65.2887 242.627 39.8813 249.148Z" fill="#FFD100"/>
<path d="M49.8161 240.256C45.2967 242.52 43.4173 245.552 42.7461 248.307C65.3702 241.035 66.5337 222.079 66.5337 222.079C66.2629 222.852 65.8767 223.578 65.3881 224.235C63.1687 228.135 57.799 236.267 49.8161 240.256Z" fill="#FFEE32"/>
<path d="M55.8408 245.078H17.2688L21.8509 273.873C22.0147 274.938 22.5575 275.908 23.3796 276.605C24.2017 277.302 25.2478 277.679 26.3256 277.666H46.8108C47.8887 277.679 48.9348 277.302 49.7569 276.605C50.579 275.908 51.1218 274.938 51.2855 273.873L55.8408 245.078Z" fill="#202020"/>
<path d="M55.0797 249.846L55.8404 245.078H17.2773L18.0291 249.846H55.0797Z" fill="#202020"/>
<path d="M46.4982 245.078L41.9161 273.873C41.7523 274.938 41.2095 275.908 40.3874 276.605C39.5653 277.302 38.5192 277.679 37.4414 277.666H46.8114C47.8893 277.679 48.9354 277.302 49.7575 276.605C50.5796 275.908 51.1224 274.938 51.2862 273.873L55.8683 245.078H46.4982Z" fill="#202020"/>
<path d="M207.685 212.096H199.657V277.729H207.685V212.096Z" fill="white"/>
<path d="M207.683 212.096H204.532V277.72H207.683V212.096Z" fill="#E8F2FC"/>
<path d="M226.729 272.344H182.877C182.165 272.344 181.482 272.626 180.979 273.13C180.475 273.633 180.192 274.315 180.192 275.027C180.192 275.739 180.475 276.421 180.979 276.925C181.482 277.428 182.165 277.711 182.877 277.711H226.729C227.441 277.711 228.124 277.428 228.628 276.925C229.131 276.421 229.414 275.739 229.414 275.027C229.414 274.315 229.131 273.633 228.628 273.13C228.124 272.626 227.441 272.344 226.729 272.344Z" fill="white"/>
<path d="M226.726 272.344H182.873C182.409 272.345 181.953 272.467 181.55 272.698C181.147 272.928 180.81 273.259 180.573 273.658H218.582C219.055 273.661 219.52 273.788 219.929 274.028C220.337 274.268 220.675 274.612 220.907 275.024C221.14 275.436 221.259 275.903 221.253 276.377C221.247 276.85 221.116 277.313 220.873 277.72H226.753C227.465 277.72 228.147 277.437 228.651 276.934C229.154 276.43 229.437 275.748 229.437 275.036C229.437 274.324 229.154 273.642 228.651 273.138C228.147 272.635 227.465 272.352 226.753 272.352L226.726 272.344Z" fill="#E8F2FC"/>
<path d="M207.685 212.096H199.657V217.938H207.685V212.096Z" fill="#E8F2FC"/>
<path d="M249.271 120.62C248.101 120.105 246.836 119.84 245.557 119.842H200.363C198.222 119.843 196.149 120.589 194.5 121.953C192.85 123.316 191.727 125.211 191.324 127.311L177.157 201.317C176.938 202.47 176.938 203.653 177.157 204.806C177.162 204.829 177.162 204.854 177.157 204.877H164.628C163.666 204.924 162.759 205.339 162.095 206.036C161.431 206.733 161.061 207.659 161.061 208.621C161.061 209.583 161.431 210.509 162.095 211.206C162.759 211.903 163.666 212.318 164.628 212.365H205.24V212.248H231.417C233.558 212.247 235.631 211.501 237.28 210.138C238.93 208.775 240.053 206.88 240.456 204.779L254.614 130.773C255.002 128.727 254.684 126.609 253.714 124.765C252.744 122.922 251.178 121.461 249.271 120.62Z" fill="#FF9933"/>
<path d="M254.59 130.746L240.441 204.752C240.039 206.852 238.918 208.746 237.27 210.11C235.622 211.473 233.55 212.219 231.411 212.221H205.225V212.337H164.621C164.114 212.362 163.607 212.284 163.131 212.107C162.655 211.93 162.22 211.658 161.852 211.308C161.485 210.958 161.192 210.537 160.992 210.07C160.792 209.604 160.688 209.101 160.688 208.594C160.688 208.086 160.792 207.584 160.992 207.117C161.192 206.65 161.485 206.229 161.852 205.879C162.22 205.529 162.655 205.257 163.131 205.081C163.607 204.904 164.114 204.825 164.621 204.85H177.151C177.147 204.823 177.147 204.796 177.151 204.769H222.685C225.63 204.77 228.483 203.745 230.753 201.871C233.023 199.997 234.569 197.39 235.125 194.5L249.274 120.62C251.174 121.46 252.733 122.918 253.698 124.757C254.663 126.595 254.978 128.706 254.59 130.746Z" fill="#E8F2FC"/>
<path d="M235.217 194.062L235.128 194.509C234.572 197.399 233.026 200.006 230.756 201.88C228.486 203.754 225.633 204.779 222.688 204.778H177.154C177.15 204.805 177.15 204.832 177.154 204.859H164.624C163.73 204.859 162.866 205.18 162.188 205.762C161.51 206.345 161.063 207.151 160.928 208.034V197.908C160.928 197.908 160.928 197.854 160.928 197.828C160.873 197.349 160.921 196.865 161.069 196.407C161.216 195.948 161.46 195.527 161.784 195.17C162.107 194.814 162.504 194.53 162.946 194.339C163.388 194.148 163.865 194.053 164.347 194.062H235.217Z" fill="white"/>
<path d="M249.269 120.62L235.129 194.536C234.575 197.427 233.031 200.034 230.763 201.91C228.494 203.786 225.642 204.813 222.698 204.814H177.154C176.935 203.662 176.935 202.478 177.154 201.326L191.321 127.32C191.725 125.219 192.848 123.324 194.497 121.961C196.147 120.598 198.22 119.852 200.36 119.851H245.555C246.833 119.846 248.098 120.108 249.269 120.62Z" fill="white"/>
<path d="M142.173 102.855H65.2084C64.7871 102.854 64.3706 102.944 63.9872 103.119C63.6039 103.294 63.2626 103.549 62.9867 103.867C62.7108 104.185 62.5066 104.559 62.3881 104.963C62.2695 105.367 62.2395 105.792 62.2998 106.209L68.9492 151.419C69.0484 152.117 69.3964 152.756 69.9292 153.218C70.462 153.679 71.1436 153.933 71.8489 153.933H148.814C149.235 153.934 149.651 153.843 150.034 153.669C150.417 153.494 150.758 153.239 151.033 152.92C151.308 152.602 151.512 152.228 151.629 151.824C151.747 151.419 151.775 150.995 151.713 150.578L145.127 105.359C145.024 104.654 144.668 104.01 144.124 103.549C143.58 103.087 142.886 102.841 142.173 102.855Z" fill="#FFEE32"/>
<path d="M131.407 102.855H65.2345C64.8132 102.855 64.3967 102.945 64.0133 103.12C63.63 103.294 63.2887 103.549 63.0128 103.868C62.7369 104.186 62.5327 104.56 62.4142 104.964C62.2957 105.368 62.2656 105.793 62.3259 106.21L65.2435 126.194C72.7105 129.431 80.7669 131.087 88.9057 131.06C111.011 131.06 123.97 119.342 131.407 102.855Z" fill="#FFD100"/>
<path d="M107.27 137.366H92.7006C92.4046 137.364 92.1117 137.426 91.842 137.548C91.5723 137.67 91.3322 137.849 91.1383 138.072C90.9444 138.296 90.8013 138.559 90.7187 138.843C90.6362 139.127 90.6162 139.426 90.6602 139.718L95.0722 169.998C95.0631 170.094 95.0631 170.189 95.0722 170.285L95.2691 171.483C95.3343 171.978 95.5772 172.433 95.9525 172.762C96.3279 173.091 96.8102 173.272 97.3096 173.272H111.682L107.27 137.366Z" fill="#202020"/>
<path d="M128.536 171.126C128.529 170.578 128.307 170.054 127.916 169.669C127.526 169.284 127 169.068 126.451 169.068H115.434C114.65 169.069 113.891 168.786 113.299 168.272C112.707 167.757 112.321 167.045 112.213 166.268L108.982 142.679H110.897C111.193 142.678 111.485 142.614 111.754 142.491C112.023 142.367 112.263 142.187 112.456 141.964C112.649 141.74 112.793 141.477 112.876 141.193C112.959 140.909 112.98 140.611 112.938 140.318L112.741 139.128C112.676 138.633 112.433 138.179 112.057 137.85C111.682 137.52 111.2 137.339 110.7 137.339H106.879C106.468 137.338 106.062 137.425 105.688 137.593C105.314 137.762 104.981 138.009 104.71 138.318C104.44 138.626 104.239 138.989 104.12 139.382C104.002 139.775 103.969 140.188 104.024 140.595L108.051 170.607C108.149 171.33 108.505 171.994 109.055 172.474C109.605 172.954 110.31 173.219 111.04 173.219H126.451C126.728 173.219 127.002 173.164 127.258 173.057C127.513 172.95 127.744 172.793 127.938 172.596C128.133 172.399 128.285 172.165 128.388 171.908C128.491 171.651 128.541 171.376 128.536 171.099V171.126Z" fill="#202020"/>
<path d="M120.612 147.403C120.612 147.675 120.531 147.942 120.379 148.168C120.228 148.395 120.013 148.571 119.761 148.676C119.509 148.78 119.232 148.807 118.965 148.754C118.697 148.701 118.452 148.57 118.259 148.377C118.066 148.184 117.935 147.939 117.882 147.672C117.829 147.405 117.856 147.128 117.96 146.876C118.064 146.624 118.241 146.409 118.468 146.258C118.694 146.106 118.961 146.025 119.233 146.025C119.599 146.025 119.95 146.171 120.208 146.429C120.466 146.687 120.612 147.038 120.612 147.403Z" fill="#202020"/>
<path d="M127.705 147.403C127.705 147.675 127.624 147.942 127.473 148.168C127.321 148.395 127.106 148.571 126.854 148.676C126.602 148.78 126.325 148.807 126.058 148.754C125.79 148.701 125.545 148.57 125.352 148.377C125.159 148.184 125.028 147.939 124.975 147.672C124.922 147.405 124.949 147.128 125.053 146.876C125.158 146.624 125.334 146.409 125.561 146.258C125.788 146.106 126.054 146.025 126.327 146.025C126.692 146.025 127.043 146.171 127.301 146.429C127.56 146.687 127.705 147.038 127.705 147.403Z" fill="#202020"/>
<path d="M132.535 148.781C133.296 148.781 133.913 148.164 133.913 147.403C133.913 146.642 133.296 146.025 132.535 146.025C131.774 146.025 131.157 146.642 131.157 147.403C131.157 148.164 131.774 148.781 132.535 148.781Z" fill="#202020"/>
<path d="M140.679 123.823L144.697 151.42C144.799 152.119 145.148 152.757 145.683 153.219C146.217 153.681 146.9 153.934 147.606 153.934H148.76C149.181 153.934 149.598 153.844 149.981 153.669C150.364 153.495 150.704 153.239 150.98 152.921C151.255 152.602 151.458 152.228 151.576 151.824C151.693 151.42 151.722 150.995 151.66 150.579L145.073 105.36C144.972 104.664 144.623 104.027 144.091 103.567C143.558 103.107 142.878 102.854 142.174 102.855H141.01C140.59 102.856 140.174 102.947 139.792 103.122C139.41 103.298 139.07 103.553 138.795 103.871C138.52 104.189 138.316 104.563 138.198 104.966C138.08 105.37 138.05 105.794 138.111 106.21L140.679 123.823Z" fill="#202020"/>
<path d="M111.571 107.792H84.7223C84.5679 107.791 84.4152 107.824 84.275 107.888C84.1347 107.953 84.0103 108.047 83.9104 108.165C83.8106 108.283 83.7378 108.421 83.6972 108.57C83.6565 108.718 83.649 108.874 83.6752 109.026L83.8542 110.136C83.8927 110.385 84.0196 110.613 84.2117 110.777C84.4039 110.941 84.6485 111.031 84.9013 111.03H111.75C111.904 111.031 112.057 110.998 112.198 110.934C112.338 110.869 112.463 110.775 112.564 110.658C112.664 110.54 112.738 110.402 112.78 110.253C112.821 110.104 112.83 109.948 112.806 109.796L112.627 108.687C112.586 108.436 112.457 108.208 112.264 108.044C112.07 107.88 111.824 107.791 111.571 107.792Z" fill="#202020"/>
<path d="M220.643 121.568C219.793 115.02 210.199 118.079 213.796 111.987C217.126 106.343 213.251 103.847 208.668 102.97C202.833 101.843 206.145 99.5442 203.299 94.0965C199.719 87.1817 194.117 89.2302 194.117 89.2302C194.117 89.2302 187.136 85.4373 180.021 91.4397C172.522 97.7641 174.159 103.355 178.169 111.03C180.2 114.912 177.703 118.374 175.931 125.513C173.801 134.074 184.38 151.302 207.004 139.664C215.765 135.165 221.09 125.039 220.643 121.568Z" fill="#202020"/>
<path d="M189.381 123.357C189.381 123.357 185.926 123.724 182.418 127.239C180.055 129.601 168.484 152.617 168.484 152.617L157.807 119.931L149.994 120.539C149.994 120.539 158.792 173.103 165.638 173.201C172.117 173.29 192.683 139.262 192.683 139.262L189.381 123.357Z" fill="#FFD100"/>
<path d="M211.46 137.133L218.307 162.752L177.837 166.053L178.025 173.362C178.025 173.362 224.679 173.567 233.467 173.478C239.32 173.415 228.303 127.087 221.269 121.782C215.711 117.596 200.336 118.714 200.336 118.714L189.382 123.357C189.382 123.357 176.683 135.934 184.263 147.769C190.241 157.09 182.607 175.187 182.607 175.187L208.48 176.725L231.579 176.94L211.46 137.133Z" fill="#FFD100"/>
<path d="M185.638 165.419L187.088 165.15C188.475 159.094 188.717 150.838 185.558 146.848C179.293 138.967 185.746 127.517 189.37 123.384C188.789 123.965 176.841 136.221 184.269 147.769C187.795 153.289 186.936 160.472 185.638 165.419Z" fill="#E8BE03"/>
<path d="M177.955 167.744C173.677 167.896 169.095 169.426 166.956 171.949C166.863 172.078 166.806 172.229 166.792 172.388C166.777 172.546 166.805 172.705 166.873 172.849C166.94 172.993 167.045 173.117 167.176 173.207C167.307 173.297 167.459 173.351 167.618 173.362H178.017L177.955 167.744Z" fill="#FFB19E"/>
<path d="M200.347 110.109V118.75L192.606 127.615L192.552 127.516L190.449 122.999V118.16C188.467 117.868 186.621 116.978 185.157 115.61C183.694 114.242 182.684 112.46 182.26 110.502L181.16 104.518C185.089 103.9 188.72 102.052 191.532 99.24C192.457 100.867 193.585 102.37 194.888 103.713C196.329 105.135 198.316 105.502 199.076 106.271C199.558 106.778 199.921 107.385 200.141 108.048C200.36 108.711 200.431 109.415 200.347 110.109Z" fill="#FFB19E"/>
<path d="M198.233 102.631C198.007 100.31 197.444 98.0348 196.559 95.8772C194.984 92.299 192.747 88.1036 188.12 88.0947C188.12 88.0947 199.36 86.3503 201.24 101.987L198.233 102.631Z" fill="#FF4751"/>
<path d="M204.982 105.198C204.801 104.228 204.341 103.331 203.658 102.617C202.976 101.904 202.1 101.404 201.138 101.18C200.176 100.956 199.169 101.017 198.241 101.356C197.313 101.695 196.504 102.296 195.913 103.087C195.322 103.878 194.974 104.824 194.911 105.809C194.849 106.795 195.076 107.777 195.563 108.636C196.051 109.495 196.778 110.193 197.656 110.645C198.534 111.098 199.525 111.284 200.507 111.183C201.894 110.981 203.144 110.238 203.983 109.116C204.822 107.994 205.181 106.585 204.982 105.198Z" fill="#FF4751"/>
<path d="M201.448 110.655C200.166 110.684 198.918 110.25 197.931 109.431C196.945 108.613 196.288 107.466 196.081 106.201C195.874 104.937 196.131 103.64 196.805 102.551C197.479 101.461 198.523 100.651 199.747 100.27H199.327C197.92 100.476 196.649 101.219 195.779 102.342C194.909 103.466 194.508 104.882 194.661 106.295C194.814 107.707 195.508 109.006 196.599 109.917C197.689 110.829 199.09 111.282 200.508 111.183C201.343 111.095 202.14 110.786 202.817 110.289C202.382 110.48 201.92 110.604 201.448 110.655Z" fill="#CC3241"/>
<path d="M203 105.333C202.91 104.863 202.686 104.43 202.354 104.086C202.022 103.742 201.597 103.502 201.131 103.396C200.665 103.289 200.178 103.321 199.729 103.486C199.281 103.652 198.89 103.945 198.605 104.328C198.321 104.712 198.154 105.171 198.125 105.648C198.097 106.125 198.208 106.6 198.446 107.015C198.683 107.43 199.036 107.766 199.462 107.984C199.888 108.202 200.367 108.291 200.843 108.24C201.175 108.191 201.495 108.076 201.784 107.904C202.072 107.731 202.324 107.503 202.524 107.233C202.724 106.963 202.869 106.656 202.951 106.33C203.033 106.004 203.049 105.665 203 105.333Z" fill="#CC3241"/>
<path d="M197.771 114.492C196.676 115.912 195.463 117.237 194.146 118.455C193.859 118.698 193.629 119.003 193.474 119.347C193.32 119.69 193.243 120.064 193.252 120.441L192.571 127.516L190.468 122.999V118.177L190.513 118.124C190.513 118.124 195.373 117.39 197.771 114.492Z" fill="#F48F7A"/>
<path d="M194.461 114.125L194.381 113.633C197.209 113.15 199.276 109.348 199.294 109.312L199.732 109.545C199.607 109.715 197.531 113.597 194.461 114.125Z" fill="#FF4751"/>
<path d="M194.993 113.839C194.93 113.383 194.223 113.123 193.427 113.275C192.63 113.427 192.04 113.919 192.102 114.385C192.165 114.85 192.872 115.1 193.668 114.948C194.465 114.796 195.064 114.304 194.993 113.839Z" fill="#FF4751"/>
<path d="M157.172 120.138C157.172 120.138 158.273 111.094 157.279 110.763C156.286 110.432 155.293 114.287 155.293 114.287C155.293 114.287 151.104 106.129 148.232 107.015C145.359 107.9 150.639 120.433 150.639 120.433L157.172 120.138Z" fill="#FFB19E"/>
<path d="M185.619 165.347L217.488 162.663C217.746 162.642 217.997 162.566 218.224 162.441C218.451 162.316 218.649 162.144 218.806 161.937C218.962 161.731 219.073 161.493 219.131 161.241C219.189 160.988 219.193 160.726 219.143 160.472C217.962 154.523 214.561 137.446 214.355 137.956C214.15 138.466 217.568 158.047 213.461 160.024C210.713 161.42 185.619 165.347 185.619 165.347Z" fill="#E8BE03"/>
<path d="M207.302 259.605C207.055 259.66 206.837 259.807 206.694 260.016C204.662 262.834 202.863 263.505 199.31 263.979C199.077 264.02 198.85 264.095 198.639 264.203C198.917 263.791 200.098 261.85 199.283 260.106C198.721 258.908 198.04 257.77 197.252 256.707L202.452 253.612C202.452 253.612 205.638 257.288 207.302 259.605Z" fill="#FFB19E"/>
<path d="M211.148 266.207C210.253 267.102 195.397 275.197 191.871 277.228C191.441 277.478 190.564 277.935 190.403 277.46C190.161 276.727 196.569 264.355 199.352 263.989C202.932 263.506 204.722 262.835 206.736 260.017C206.83 259.878 206.957 259.765 207.105 259.687C207.253 259.609 207.418 259.568 207.586 259.568C207.753 259.568 207.918 259.609 208.067 259.687C208.215 259.765 208.342 259.878 208.436 260.017C209.823 262.191 211.882 265.536 211.148 266.207Z" fill="#202020"/>
<path d="M182.833 175.188C182.833 175.188 146.811 191.844 145.916 203.41C145.022 213.698 198.118 260.759 198.118 260.759L206.504 257.315L177.472 210.531C177.472 210.531 208.231 195.377 215.749 177.129L182.833 175.188Z" fill="#202020"/>
<path d="M159.883 200.378C157.44 205.074 155.65 211.631 154.397 217.58C158.478 222.41 163.615 227.858 168.931 233.216C165.002 217.714 161.521 202.167 162.72 199.948C165.02 195.699 180.27 184.41 191.054 178.801C191.054 178.766 165.548 189.5 159.883 200.378Z" fill="#202020"/>
<path d="M186.088 269.266C185.844 269.198 185.584 269.221 185.355 269.329C182.213 270.796 180.316 270.501 176.978 269.177C176.753 269.099 176.518 269.057 176.28 269.051C176.718 268.828 178.705 267.71 178.848 265.786C178.944 264.465 178.908 263.138 178.741 261.824L184.791 261.663C184.791 261.663 185.775 266.431 186.088 269.266Z" fill="#FFB19E"/>
<path d="M186.19 277.344C184.955 277.666 167.45 277.469 163.378 277.522C163.264 277.525 163.152 277.503 163.048 277.457C162.943 277.412 162.851 277.344 162.776 277.259C162.701 277.173 162.645 277.073 162.613 276.964C162.581 276.855 162.573 276.74 162.59 276.628C162.734 275.859 174.377 268.201 176.909 269.212C180.248 270.527 182.145 270.822 185.286 269.355C185.438 269.282 185.605 269.247 185.774 269.253C185.942 269.259 186.106 269.306 186.253 269.389C186.399 269.473 186.523 269.591 186.613 269.733C186.703 269.875 186.758 270.037 186.772 270.205C187.031 272.746 187.21 277.093 186.19 277.344Z" fill="#202020"/>
<path d="M231.469 176.888C231.469 176.888 234.485 197.265 216.255 202.418C206.439 205.077 196.468 207.129 186.4 208.563L187.474 266.431H177.862C177.862 266.431 160.232 204.556 162.72 199.949C165.557 194.716 188.002 178.838 197.623 175.975L231.469 176.888Z" fill="#202020"/>
<g style="mix-blend-mode:multiply" opacity="0.13">
<path d="M186.368 208.563C196.436 207.129 206.407 205.076 216.223 202.417C234.489 197.265 231.437 176.887 231.437 176.887L220.197 176.583C216.796 183.882 205.743 201.97 178.94 203.92L184.981 266.431H187.477L186.368 208.563Z" fill="#0E367C"/>
</g>
<path d="M67.4575 277.711L63.4392 277.684L80.1657 177.2L84.2108 177.173L67.4575 277.711Z" fill="white"/>
<path d="M233.147 277.684L237.416 277.711L216.68 176.055L212.438 176.091L233.147 277.684Z" fill="white"/>
<path d="M83.1106 182.746L84.2113 177.173L80.1662 177.2L79.0654 182.746H83.1106Z" fill="#E4EDF7"/>
<path d="M218.04 182.747L216.68 176.055L212.438 176.091L213.789 182.747H218.04Z" fill="#E4EDF7"/>
<path d="M241.072 173.309H59.6939C59.152 173.309 58.632 173.524 58.2479 173.906C57.8639 174.288 57.6469 174.807 57.6445 175.349C57.6445 175.892 57.8604 176.413 58.2448 176.797C58.6291 177.182 59.1504 177.397 59.6939 177.397H241.072C241.341 177.397 241.607 177.344 241.855 177.241C242.103 177.138 242.328 176.987 242.518 176.797C242.707 176.607 242.858 176.381 242.96 176.132C243.062 175.884 243.114 175.617 243.112 175.349C243.112 174.808 242.897 174.289 242.515 173.907C242.132 173.524 241.613 173.309 241.072 173.309Z" fill="white"/>
<path d="M169.405 84.2391L164.626 56.5709C164.534 55.9529 164.224 55.3883 163.751 54.9796C163.278 54.5709 162.674 54.3453 162.049 54.3435L117.579 54.8266C117.204 54.8263 116.834 54.9069 116.493 55.0627C116.153 55.2186 115.85 55.4461 115.605 55.7298C115.36 56.0134 115.18 56.3464 115.076 56.7062C114.972 57.066 114.946 57.4439 115.002 57.8143L119.19 82.0833L121.311 95.8324C121.336 95.993 121.409 96.1424 121.52 96.2609C121.631 96.3794 121.776 96.4615 121.934 96.4964C122.093 96.5312 122.259 96.5172 122.41 96.4562C122.56 96.3951 122.689 96.2899 122.779 96.1544L128.444 87.6384L166.828 87.2179C167.202 87.218 167.571 87.1376 167.911 86.9823C168.251 86.8269 168.554 86.6003 168.798 86.3176C169.043 86.035 169.223 85.7031 169.328 85.3445C169.433 84.9858 169.459 84.6088 169.405 84.2391Z" fill="#FFD100"/>
<path d="M153.592 62.9312H127.826C127.722 62.9298 127.618 62.9514 127.523 62.9944C127.427 63.0374 127.342 63.1008 127.274 63.1801C127.206 63.2594 127.156 63.3527 127.127 63.4535C127.099 63.5542 127.093 63.6599 127.11 63.7631L127.236 64.5146C127.261 64.6837 127.347 64.838 127.476 64.9496C127.606 65.0612 127.772 65.1226 127.943 65.1229H153.717C153.821 65.1216 153.924 65.0979 154.018 65.0533C154.113 65.0087 154.196 64.9443 154.263 64.8645C154.331 64.7847 154.38 64.6913 154.407 64.5908C154.435 64.4902 154.441 64.3849 154.424 64.282L154.308 63.5306C154.278 63.3623 154.19 63.21 154.059 63.1003C153.928 62.9906 153.763 62.9308 153.592 62.9312Z" fill="white"/>
<path d="M154.465 69.7654H128.691C128.587 69.7653 128.484 69.7878 128.39 69.8314C128.296 69.875 128.212 69.9385 128.145 70.0177C128.077 70.0969 128.028 70.1897 128 70.2898C127.973 70.3899 127.967 70.4948 127.984 70.5973L128.109 71.3487C128.135 71.5178 128.22 71.6722 128.35 71.7838C128.48 71.8954 128.645 71.9568 128.816 71.957H154.582C154.686 71.9584 154.79 71.9368 154.885 71.8938C154.981 71.8508 155.066 71.7875 155.134 71.7081C155.202 71.6288 155.252 71.5355 155.28 71.4348C155.309 71.334 155.315 71.2283 155.298 71.1251L155.172 70.3737C155.147 70.2046 155.061 70.0502 154.931 69.9386C154.802 69.827 154.636 69.7656 154.465 69.7654Z" fill="white"/>
<path d="M148.321 77.1899H136.392C136.288 77.1899 136.185 77.2124 136.091 77.256C135.997 77.2995 135.913 77.3631 135.846 77.4423C135.778 77.5214 135.729 77.6143 135.701 77.7144C135.674 77.8144 135.668 77.9194 135.685 78.0219L135.81 78.7733C135.836 78.9424 135.921 79.0967 136.051 79.2083C136.181 79.3199 136.346 79.3814 136.517 79.3816H148.447C148.551 79.3803 148.654 79.3566 148.748 79.312C148.842 79.2675 148.926 79.2031 148.993 79.1232C149.06 79.0434 149.109 78.95 149.137 78.8495C149.165 78.749 149.17 78.6436 149.154 78.5407L149.028 77.7893C149.001 77.6218 148.915 77.4696 148.785 77.3598C148.656 77.25 148.491 77.1898 148.321 77.1899Z" fill="white"/>
<path d="M350.043 40.3967L355.959 14.3745C356.052 14.1293 356.082 13.8643 356.045 13.6044C356.008 13.3446 355.905 13.0984 355.747 12.8891C355.589 12.6798 355.38 12.5142 355.14 12.4078C354.899 12.3015 354.636 12.2579 354.375 12.2813L312.375 12.7375C311.566 12.7896 310.791 13.0848 310.152 13.5844C309.514 14.084 309.041 14.7647 308.795 15.5374L303.605 38.3751L300.428 51.3012C300.258 51.981 301.072 52.1957 301.69 51.6054L310.209 43.5992L346.472 43.2056C347.282 43.1523 348.056 42.8555 348.693 42.3541C349.33 41.8528 349.801 41.1704 350.043 40.3967Z" fill="#FFEE32"/>
<path d="M342.546 20.7266H319.483C319.269 20.7426 319.065 20.8229 318.897 20.9569C318.729 21.091 318.606 21.2727 318.544 21.478L318.383 22.1489C318.36 22.2135 318.354 22.2827 318.365 22.3502C318.376 22.4176 318.403 22.4813 318.445 22.5355C318.487 22.5897 318.542 22.6326 318.604 22.6604C318.667 22.6881 318.735 22.6999 318.803 22.6946H341.911C342.125 22.6787 342.329 22.5984 342.497 22.4643C342.665 22.3302 342.788 22.1486 342.85 21.9432L343.011 21.2723C343.037 21.2038 343.043 21.1298 343.03 21.058C343.017 20.9862 342.986 20.9191 342.938 20.8635C342.891 20.808 342.83 20.7661 342.761 20.742C342.692 20.7179 342.618 20.7126 342.546 20.7266Z" fill="white"/>
<path d="M340.869 26.854H317.806C317.591 26.8639 317.384 26.9395 317.212 27.0706C317.041 27.2018 316.914 27.3822 316.849 27.5875L316.688 28.2584C316.665 28.323 316.659 28.3922 316.67 28.4597C316.681 28.5271 316.709 28.5909 316.75 28.645C316.792 28.6992 316.847 28.7421 316.909 28.7699C316.972 28.7976 317.04 28.8094 317.108 28.8041H340.171C340.385 28.7882 340.59 28.7079 340.757 28.5738C340.925 28.4397 341.048 28.258 341.111 28.0527L341.272 27.3818C341.292 27.3197 341.297 27.2536 341.286 27.1892C341.276 27.1247 341.249 27.0639 341.209 27.0119C341.17 26.96 341.118 26.9184 341.059 26.8909C340.999 26.8634 340.934 26.8507 340.869 26.854Z" fill="white"/>
<path d="M332.718 33.4924H322.042C321.827 33.5071 321.622 33.587 321.454 33.7213C321.287 33.8555 321.164 34.0379 321.102 34.2439L320.941 34.9148C320.918 34.9789 320.912 35.0478 320.922 35.115C320.933 35.1823 320.961 35.2457 321.003 35.2993C321.045 35.353 321.1 35.3951 321.163 35.4217C321.225 35.4483 321.294 35.4585 321.362 35.4515H332.038C332.244 35.43 332.439 35.348 332.598 35.2159C332.758 35.0837 332.874 34.9073 332.933 34.709L333.094 34.0381C333.115 33.9772 333.122 33.9121 333.113 33.8483C333.104 33.7844 333.081 33.7235 333.044 33.6704C333.008 33.6173 332.959 33.5735 332.903 33.5426C332.846 33.5117 332.783 33.4945 332.718 33.4924Z" fill="white"/>
<path d="M110.733 84.0425C110.86 84.1475 111.016 84.2111 111.181 84.2245C111.345 84.238 111.509 84.2008 111.652 84.1179C111.794 84.035 111.908 83.9104 111.977 83.761C112.047 83.6115 112.068 83.4444 112.04 83.2821L106.339 50.4256C106.26 49.9008 105.995 49.4219 105.593 49.0756C105.19 48.7293 104.677 48.5386 104.146 48.5381L66.4157 48.9496C66.0977 48.9488 65.7832 49.0165 65.4938 49.1483C65.2044 49.28 64.9469 49.4726 64.7387 49.7129C64.5306 49.9532 64.3768 50.2356 64.2878 50.5407C64.1988 50.8459 64.1767 51.1667 64.2231 51.4811L68.2772 74.9986C68.3544 75.525 68.6183 76.0061 69.0208 76.3542C69.4233 76.7023 69.9375 76.8943 70.4698 76.8951L99.5285 76.573C100.911 76.5586 102.253 77.0375 103.314 77.9238L110.733 84.0425Z" fill="#FFEE32"/>
<path d="M98.9816 58.3955H73.2072C73.1033 58.3954 73.0006 58.4179 72.9063 58.4615C72.812 58.5051 72.7283 58.5687 72.661 58.6478C72.5937 58.727 72.5445 58.8198 72.5167 58.9199C72.489 59.02 72.4834 59.1249 72.5002 59.2274L72.6166 59.9789C72.6459 60.1479 72.7336 60.3014 72.8644 60.4125C72.9952 60.5237 73.1609 60.5855 73.3325 60.5871H99.0979C99.2026 60.5885 99.3063 60.567 99.4017 60.524C99.4971 60.481 99.582 60.4176 99.6502 60.3382C99.7185 60.2589 99.7685 60.1656 99.7968 60.0649C99.8251 59.9642 99.8309 59.8584 99.8139 59.7552L99.6886 59.0038C99.6629 58.8347 99.5775 58.6804 99.4478 58.5688C99.3181 58.4572 99.1527 58.3957 98.9816 58.3955Z" fill="white"/>
<path d="M99.8503 65.2305H74.076C73.9712 65.2302 73.8676 65.2529 73.7725 65.297C73.6774 65.3411 73.5932 65.4055 73.5258 65.4857C73.4583 65.5659 73.4093 65.6599 73.3822 65.7611C73.3552 65.8623 73.3506 65.9682 73.369 66.0713L73.4853 66.8228C73.5131 66.9918 73.6007 67.1452 73.7321 67.2552C73.8634 67.3651 74.0299 67.4244 74.2013 67.4221H99.9667C100.071 67.4235 100.175 67.4019 100.27 67.3589C100.366 67.3159 100.451 67.2525 100.519 67.1732C100.587 67.0939 100.637 67.0006 100.666 66.8998C100.694 66.7991 100.7 66.6934 100.683 66.5902L100.557 65.8388C100.532 65.6696 100.446 65.5153 100.317 65.4037C100.187 65.2921 100.021 65.2307 99.8503 65.2305Z" fill="white"/>
<path d="M309.693 138.914L309.559 144.084L306.453 264.177H294.023L283.024 161.304L269.045 195.995L278.585 264.168H273.994L266.414 264.23C266.414 264.23 243.709 196.245 244.165 191.772C244.622 187.3 261.662 139.406 261.662 139.406L309.693 138.914Z" fill="#202020"/>
<path d="M310.879 64.5862L287.566 61.3837L287.011 61.3032L275.86 61.3479L275.762 61.3748L262.445 64.7025V139.567H310.879V64.5862Z" fill="#333533"/>
<path d="M350.784 79.1311C350.784 79.1311 352.476 68.5487 353.711 68.495C354.946 68.4413 354.802 73.1287 354.802 73.1287C354.802 73.1287 362.204 65.2657 365.157 67.1979C368.11 69.1301 358.069 81.6 358.069 81.6L350.784 79.1311Z" fill="#FFB19E"/>
<path d="M275.882 61.4105L277.144 144.084H259.71L258.475 121.461L235.332 121.085C234.776 121.096 234.225 120.976 233.722 120.736C233.22 120.496 232.781 120.142 232.44 119.703C232.098 119.263 231.864 118.75 231.756 118.205C231.647 117.659 231.668 117.096 231.815 116.559L243.342 76.5015C244 74.2015 245.252 72.1152 246.972 70.4522C248.692 68.7893 250.82 67.6084 253.142 67.0283L275.766 61.3748L275.882 61.4105Z" fill="#FFD100"/>
<path d="M358.818 81.9396L336.382 128.008C336.056 128.594 335.582 129.084 335.007 129.43C334.433 129.775 333.777 129.963 333.107 129.976C332.436 129.989 331.774 129.825 331.187 129.502C330.6 129.179 330.107 128.707 329.76 128.134L312.201 99.0522L311.306 144.083H292.682L287.465 61.4009H287.536L311.234 64.657C313.437 64.9904 315.526 65.8554 317.319 67.1771C319.112 68.4989 320.556 70.2376 321.526 72.2427L333.518 96.941C333.578 97.0897 333.677 97.2195 333.804 97.317C333.931 97.4145 334.082 97.476 334.241 97.4952C334.4 97.5144 334.562 97.4906 334.709 97.4261C334.855 97.3617 334.982 97.259 335.076 97.1289L350.29 78.925L358.818 81.9396Z" fill="#FFD100"/>
<path d="M258.367 121.676H281.098L281.322 110.038L258.59 109.707L258.367 121.676Z" fill="#FFD100"/>
<path d="M281.239 118.464C287.656 118.232 294.511 115.933 297.724 112.202C297.882 112.013 297.983 111.783 298.015 111.539C298.047 111.294 298.009 111.046 297.904 110.822C297.8 110.599 297.634 110.41 297.426 110.277C297.219 110.145 296.977 110.074 296.73 110.073H281.141L281.239 118.464Z" fill="#FFB19E"/>
<path opacity="0.41" d="M272.38 122.15L272.398 121.783L258.491 121.676L259.708 144.084L263.861 125.522L272.38 122.15Z" fill="#FFEE32"/>
<g style="mix-blend-mode:multiply" opacity="0.32">
<path d="M309.538 144.085L306.433 264.168H305.565L297.224 144.085H309.538Z" fill="#0E367C"/>
</g>
<path opacity="0.41" d="M281.29 109.957C281.29 109.957 250.441 112.194 250.647 111.603L256.017 93.1667L256.097 93.4441L256.617 106.308C256.67 108.097 279.679 109.501 281.29 109.957Z" fill="#FFD100"/>
<path opacity="0.41" d="M336.389 128.009L358.825 81.9397H358.718C356.337 81.9397 335.449 125.558 333.266 126.667C330.769 127.919 312.208 99.106 312.208 99.106L329.767 128.188C330.119 128.758 330.615 129.226 331.205 129.545C331.795 129.864 332.459 130.022 333.129 130.004C333.8 129.985 334.454 129.792 335.026 129.442C335.598 129.091 336.068 128.597 336.389 128.009Z" fill="#FFEE32"/>
<path d="M267.806 264.15C265.121 269.633 252.404 272.397 252.404 272.397C252.143 272.998 252.055 273.659 252.149 274.307C252.244 274.956 252.518 275.564 252.941 276.065C254.391 278.104 267.779 276.852 269.461 276.485C270.552 276.192 271.534 275.589 272.289 274.75C272.817 275.332 273.419 275.844 274.079 276.271C274.706 276.575 278.124 275.895 278.124 275.895C278.93 273.712 278.124 265.393 277.892 264.06L267.806 264.15Z" fill="#202020"/>
<path d="M305.267 264.15C307.952 269.633 320.66 272.397 320.66 272.397C320.923 272.997 321.014 273.658 320.92 274.306C320.827 274.955 320.554 275.564 320.132 276.065C318.673 278.104 305.285 276.852 303.611 276.485C302.505 276.2 301.506 275.596 300.739 274.75C300.21 275.331 299.608 275.842 298.949 276.271C298.322 276.575 294.904 275.895 294.904 275.895C294.098 273.712 294.904 265.393 295.127 264.06L305.267 264.15Z" fill="#202020"/>
<g style="mix-blend-mode:multiply" opacity="0.32">
<path d="M269.033 195.994L278.573 264.167H273.982C271.154 249.488 261.256 200.404 261.623 197.327C262.052 193.65 282.385 162.305 283.012 161.259L269.033 195.994Z" fill="#0E367C"/>
</g>
<path fill-rule="evenodd" clip-rule="evenodd" d="M287.514 61.4558C285.823 62.8065 281.733 65.678 281.733 65.678C281.733 65.678 277.58 62.8334 275.862 61.4647V51.6248H287.496L287.514 61.4558Z" fill="#FFB19E"/>
<path fill-rule="evenodd" clip-rule="evenodd" d="M287.514 51.5974V55.7213C285.878 57.0702 283.826 57.8125 281.706 57.8223C279.586 57.8321 277.527 57.1088 275.879 55.7749V51.5974H287.514Z" fill="#FFB19E"/>
<path fill-rule="evenodd" clip-rule="evenodd" d="M268.728 45.2191H294.94L295.343 37.9286C301.133 35.4775 296.793 21.6658 296.793 21.6658C297.124 25.0114 288.103 25.1187 284.532 24.5641C282.484 24.213 280.376 24.5264 278.518 25.4586C278.518 25.4586 267.153 23.0076 267.824 38.9394C267.896 41.0592 268.2 43.1648 268.728 45.2191Z" fill="#202020"/>
<path fill-rule="evenodd" clip-rule="evenodd" d="M292.17 37.92V44.486C292.172 45.8758 291.889 47.2514 291.34 48.5282C290.791 49.805 289.986 50.956 288.975 51.9107C288.635 52.2059 288.304 52.5279 287.955 52.8499C286.251 54.4539 283.999 55.3472 281.659 55.3472C279.319 55.3472 277.067 54.4539 275.363 52.8499L274.361 51.9107C273.347 50.963 272.539 49.8174 271.987 48.5449C271.434 47.2724 271.148 45.9 271.148 44.5128V39.4944C273.842 37.4737 276.266 35.1168 278.361 32.4812C278.361 32.4812 282.979 36.9092 292.17 37.92Z" fill="#FFB19E"/>
<path fill-rule="evenodd" clip-rule="evenodd" d="M287.514 53.2344V55.7212C285.878 57.0702 283.826 57.8125 281.706 57.8223C279.586 57.832 277.527 57.1087 275.879 55.7749V53.2702C277.524 54.6097 279.582 55.3382 281.703 55.3317C283.824 55.3252 285.878 54.584 287.514 53.2344Z" fill="#F48F7A"/>
<path fill-rule="evenodd" clip-rule="evenodd" d="M273.748 45.9895C274.218 45.3485 274.444 44.5602 274.383 43.7675C274.323 42.9747 273.98 42.2297 273.418 41.6675C272.855 41.1053 272.11 40.763 271.317 40.7025C270.524 40.642 269.735 40.8674 269.094 41.3378C268.836 41.4942 268.619 41.7086 268.459 41.964C267.992 42.6068 267.769 43.395 267.832 44.187C267.894 44.9789 268.237 45.7226 268.799 46.2844C269.361 46.8461 270.105 47.189 270.897 47.2514C271.69 47.3137 272.478 47.0915 273.121 46.6246C273.377 46.4646 273.591 46.2471 273.748 45.9895Z" fill="#FFB19E"/>
<path fill-rule="evenodd" clip-rule="evenodd" d="M294.689 45.9887C295.148 45.3673 295.376 44.6054 295.333 43.8343C295.29 43.0631 294.98 42.331 294.455 41.7641C293.93 41.1972 293.224 40.831 292.458 40.7285C291.693 40.6261 290.915 40.7939 290.26 41.2029C289.836 41.4339 289.488 41.7817 289.257 42.2048C288.861 42.8614 288.703 43.6346 288.812 44.3938C288.92 45.153 289.287 45.8515 289.851 46.3712C290.415 46.8909 291.142 47.1999 291.908 47.246C292.673 47.292 293.432 47.0722 294.054 46.6239C294.314 46.4666 294.532 46.2487 294.689 45.9887Z" fill="#FFB19E"/>
<path d="M294.591 39.0562H293.58V35.639C293.58 29.914 288.353 25.2534 281.946 25.2534H281.453C275.028 25.2534 269.819 29.914 269.819 35.639V39.092H268.826V35.639C268.826 29.3772 274.5 24.3052 281.471 24.3052H281.946C288.917 24.3052 294.591 29.3862 294.591 35.639V39.0562Z" fill="#A31919"/>
<path d="M293.76 37.2136C293.016 37.216 292.302 37.5127 291.776 38.0389C291.249 38.5652 290.953 39.2783 290.95 40.0225V45.0319C290.953 45.7762 291.249 46.4892 291.776 47.0155C292.302 47.5418 293.016 47.8384 293.76 47.8408C294.505 47.8384 295.218 47.5418 295.745 47.0155C296.271 46.4892 296.568 45.7762 296.57 45.0319V40.0225C296.568 39.2783 296.271 38.5652 295.745 38.0389C295.218 37.5127 294.505 37.216 293.76 37.2136Z" fill="#F95858"/>
<path d="M293.758 37.2136C293.473 37.2197 293.189 37.268 292.917 37.3568C293.489 37.536 293.988 37.893 294.342 38.3757C294.696 38.8585 294.887 39.4417 294.886 40.0404V45.0498C294.887 45.6485 294.696 46.2317 294.342 46.7145C293.988 47.1972 293.489 47.5542 292.917 47.7335C293.189 47.8222 293.473 47.8705 293.758 47.8766C294.503 47.8742 295.216 47.5775 295.743 47.0513C296.269 46.525 296.566 45.8119 296.569 45.0677V40.0583C296.572 39.6867 296.502 39.3182 296.363 38.9738C296.223 38.6294 296.017 38.316 295.756 38.0516C295.494 37.7872 295.184 37.577 294.841 37.4332C294.498 37.2894 294.13 37.2148 293.758 37.2136Z" fill="#CC3241"/>
<path d="M269.629 37.2136C268.885 37.216 268.171 37.5127 267.645 38.0389C267.119 38.5652 266.822 39.2783 266.819 40.0225V45.0319C266.822 45.7762 267.119 46.4892 267.645 47.0155C268.171 47.5418 268.885 47.8384 269.629 47.8408C270.374 47.8384 271.087 47.5418 271.614 47.0155C272.14 46.4892 272.437 45.7762 272.44 45.0319V40.0225C272.437 39.2783 272.14 38.5652 271.614 38.0389C271.087 37.5127 270.374 37.216 269.629 37.2136Z" fill="#F95858"/>
<path d="M269.632 37.2136C269.346 37.2197 269.063 37.268 268.791 37.3568C269.362 37.536 269.861 37.893 270.216 38.3757C270.57 38.8585 270.76 39.4417 270.76 40.0404V45.0498C270.76 45.6485 270.57 46.2317 270.216 46.7145C269.861 47.1972 269.362 47.5542 268.791 47.7335C269.063 47.8222 269.346 47.8705 269.632 47.8766C270.377 47.8742 271.09 47.5775 271.616 47.0513C272.143 46.525 272.44 45.8119 272.442 45.0677V40.0583C272.446 39.6867 272.376 39.3182 272.236 38.9738C272.097 38.6294 271.89 38.316 271.629 38.0516C271.368 37.7872 271.057 37.577 270.714 37.4332C270.372 37.2894 270.004 37.2148 269.632 37.2136Z" fill="#CC3241"/>
<path d="M286.166 50.9799V50.4163C289.37 50.2106 292.127 46.2299 292.153 46.1941L292.619 46.5072C292.458 46.6771 289.639 50.7562 286.166 50.9799Z" fill="#FF4751"/>
<path d="M286.785 50.7289C286.785 50.2011 286.015 49.8343 285.111 49.9059C284.207 49.9775 283.482 50.4605 283.5 50.9883C283.518 51.5161 284.27 51.8828 285.183 51.8023C286.095 51.7218 286.811 51.2477 286.785 50.7289Z" fill="#FF4751"/>
<path d="M300.096 75.8928H259.394C258.858 75.9047 258.33 76.0255 257.842 76.2478C257.354 76.47 256.916 76.7892 256.555 77.1857C256.194 77.5823 255.918 78.0481 255.743 78.5548C255.568 79.0614 255.498 79.5983 255.537 80.133L256.602 106.307C256.649 107.328 257.086 108.292 257.821 109.002C258.556 109.712 259.535 110.114 260.557 110.127H298.95C299.969 110.11 300.944 109.705 301.675 108.996C302.407 108.286 302.84 107.325 302.888 106.307L303.953 80.1151C303.989 79.5819 303.917 79.0469 303.741 78.5423C303.565 78.0378 303.288 77.5742 302.928 77.1796C302.567 76.7849 302.13 76.4674 301.644 76.2463C301.157 76.0251 300.63 75.9049 300.096 75.8928Z" fill="#202020"/>
<path d="M300.095 75.8928H259.393C258.861 75.8939 258.336 76.0076 257.851 76.2266C257.367 76.4456 256.934 76.7647 256.583 77.1631C256.921 77.0559 257.274 76.9986 257.63 76.9931H298.341C298.877 77.005 299.405 77.1258 299.893 77.3481C300.381 77.5703 300.818 77.8895 301.179 78.286C301.54 78.6826 301.816 79.1484 301.991 79.655C302.166 80.1617 302.237 80.6986 302.198 81.2332L301.124 107.425C301.082 108.375 300.697 109.278 300.041 109.966C300.835 109.724 301.534 109.242 302.043 108.587C302.553 107.932 302.847 107.136 302.887 106.307L303.952 80.1151C303.988 79.5819 303.916 79.0469 303.74 78.5423C303.564 78.0378 303.287 77.5742 302.926 77.1796C302.566 76.7849 302.129 76.4674 301.642 76.2463C301.156 76.0251 300.629 75.9049 300.095 75.8928Z" fill="#202020"/>
<path d="M284.06 93.6848C284.06 92.7736 283.79 91.8829 283.284 91.1253C282.777 90.3677 282.057 89.7772 281.215 89.4286C280.373 89.0799 279.446 88.9886 278.552 89.1664C277.658 89.3442 276.837 89.7829 276.192 90.4272C275.548 91.0715 275.109 91.8924 274.931 92.786C274.753 93.6797 274.845 94.606 275.193 95.4478C275.542 96.2896 276.133 97.0091 276.891 97.5153C277.649 98.0215 278.54 98.2917 279.451 98.2917C280.674 98.2917 281.846 97.8063 282.71 96.9423C283.575 96.0784 284.06 94.9066 284.06 93.6848Z" fill="white"/>
</svg>
