<svg width="730" height="573" viewBox="0 0 730 573" fill="none" xmlns="http://www.w3.org/2000/svg">
<path d="M489.892 528.635C501.85 466.555 498.775 428.459 498.76 427.98C498.729 427.024 500.448 426.155 501.374 426.125C502.299 426.095 506.436 425.844 506.915 426.662C507.539 427.732 509.948 474.67 492.123 528.635H489.892Z" fill="#A0795F"/>
<path d="M435.458 329.436L438.895 328.92C440.213 328.552 441.226 327.958 441.262 326.688L441.464 319.981C441.486 319.451 441.338 318.928 441.041 318.489C440.745 318.049 440.315 317.716 439.815 317.539C436.538 316.432 433.607 313.736 434.315 309.649C434.315 309.649 436.209 299.842 436.251 299.552L448.914 299.932C448.939 300.234 450.473 310.132 450.473 310.132C451.227 313.886 447.82 316.809 444.443 317.695C443.964 317.816 443.537 318.089 443.226 318.473C442.916 318.857 442.737 319.331 442.718 319.824L442.513 326.622C442.474 327.949 443.418 328.582 444.844 329.098L448.115 329.852C448.372 329.852 448.387 330.172 448.115 330.154L435.452 329.771C435.193 329.777 435.205 329.55 435.458 329.436Z" fill="#7693CE"/>
<path d="M434.899 311.7C435.502 315.15 438.653 317.388 442.192 317.493C445.732 317.599 449.244 315.156 449.944 312.011C450.079 311.394 450.102 310.759 450.01 310.135C449.929 309.605 449.815 309.082 449.67 308.567C449.615 308.37 448.286 299.914 448.286 299.914L436.798 299.567L435.007 308.663C434.974 308.805 434.944 308.965 434.923 309.094L434.89 309.251C434.869 309.396 434.845 309.535 434.826 309.679C434.756 310.353 434.78 311.033 434.899 311.7Z" fill="#EBF3FA"/>
<path d="M434.898 311.7C435.501 315.15 438.652 317.388 442.192 317.493C445.731 317.599 449.244 315.156 449.943 312.011C448.538 311.808 444.64 311.329 441.576 311.827C439.526 312.158 436.894 311.959 434.898 311.7Z" fill="#FFD100" fill-opacity="0.5"/>
<path opacity="0.7" d="M447.149 311.926C447.284 311.311 447.307 310.677 447.215 310.053C447.134 309.523 447.021 308.999 446.877 308.482C446.82 308.286 445.49 299.83 445.49 299.83L446.941 299.872C446.941 299.872 448.27 308.316 448.325 308.527C448.47 309.043 448.583 309.566 448.662 310.096C448.755 310.72 448.733 311.355 448.599 311.971C447.899 315.117 444.378 317.56 440.847 317.454C440.597 317.454 440.347 317.424 440.1 317.397C443.371 317.186 446.497 314.864 447.149 311.926Z" fill="white"/>
<path d="M469.381 432.92L491.466 506.565C491.466 506.565 501.566 504.098 505.293 498.169C505.293 498.169 502.802 426.583 487.504 415.892C472.206 405.201 469.381 432.92 469.381 432.92Z" fill="#202020"/>
<path d="M422.331 527.838H458.243C458.506 527.797 458.762 527.723 459.006 527.618C461.403 526.412 461.216 519.557 459.229 514.819C458.451 512.962 460.797 508.996 459.956 507.482C458.334 504.563 448.345 499.339 446.605 507.072C446.551 507.313 445.785 511.677 445.719 511.897C443.527 519.135 433.728 522.419 428.069 523.336C423.742 524.057 422.621 526.578 422.331 527.838Z" fill="#202020"/>
<path d="M560.17 283.897C560.17 283.897 551.747 293.895 541.019 289.712C541.019 289.712 538.713 284.13 538.679 280.013C538.679 279.506 538.679 279.018 538.661 278.55C538.604 273.915 538.447 271.312 538.447 271.312C538.936 271.11 554.846 264.575 554.831 265.118C554.572 277.652 560.17 283.897 560.17 283.897Z" fill="#FFB27D"/>
<path d="M484.925 527.838H496.714C499.187 527.838 501.933 525.363 502.621 520.833C503.308 516.303 508.389 513.827 509.486 510.118C510.583 506.408 504.963 501.185 504.963 501.185L504.02 499.979L503.043 498.718L493.696 500.914C493.696 500.914 493.467 503.139 493.322 505.971C493.202 508.13 493.19 510.294 493.286 512.455C493.561 517.401 491.899 522.727 487.506 523.689C483.113 524.651 484.925 527.838 484.925 527.838Z" fill="#202020"/>
<path d="M483.327 385.035L477.924 387.046C477.924 387.046 467.049 386.341 465.077 398.027C465.077 398.027 464.621 402.913 468.068 402.074C471.514 401.236 470.07 401.061 474.954 399.984C479.838 398.908 483.791 395.678 484.364 392.062L486.58 388.572L483.327 385.035Z" fill="#FFB27D"/>
<path d="M480.503 390.213C478.157 386.793 478.251 386.105 478.251 386.105C478.251 386.105 506.26 357.66 508.772 354.877C511.283 352.093 534.662 304.513 534.662 304.513L542.821 304.278C555.261 303.919 562.687 318.006 555.366 328.073C543.023 345.045 528.183 365.206 524.54 369.087C513.801 380.547 484.932 393.998 484.932 393.998C483.156 393.135 481.631 391.832 480.503 390.213Z" fill="#FFD100"/>
<path d="M568.742 394.616C569.502 375.418 571.154 358.728 573.108 347.072C576.238 328.507 579.057 317.819 579.09 317.714C579.503 316.079 585.461 309.474 598.709 309.679C611.957 309.885 610.699 318.546 610.699 318.546C610.701 318.805 610.669 319.064 610.603 319.315C610.476 319.761 598.317 364.974 598.844 423.36C598.844 424.177 598.944 425.594 598.887 426.538C598.887 426.538 568.187 427.35 568.181 426.538C567.105 421.427 567.63 407.292 568.742 394.616Z" fill="#D1A586"/>
<path d="M564.882 423.061C564.882 423.875 565.307 424.527 565.82 424.527C566.33 424.527 566.725 423.863 566.743 423.061H593.058C593.058 423.875 593.486 424.527 593.995 424.527C594.514 424.527 594.927 423.842 594.921 423.019C594.801 407.629 595.529 392.244 597.104 376.935C600.601 342.588 607.054 319.635 607.159 319.315C607.224 319.064 607.255 318.805 607.253 318.546C607.253 318.546 608.51 309.885 595.265 309.679C582.02 309.474 576.059 316.082 575.646 317.714C575.622 317.801 574.024 323.848 571.904 334.72C571.199 338.323 570.442 342.455 569.661 347.084C567.701 358.731 566.043 375.433 565.298 394.628C564.201 407.292 563.812 417.961 564.882 423.061Z" fill="#E5BD9E"/>
<path d="M564.882 423.061C564.882 423.875 565.307 424.527 565.82 424.527C566.33 424.527 566.725 423.863 566.743 423.061H593.058C593.058 423.875 593.486 424.527 593.996 424.527C594.514 424.527 594.927 423.842 594.921 423.019C594.801 407.629 595.53 392.244 597.104 376.934C592.753 355.136 575.944 338.468 571.904 334.713C571.199 338.317 570.442 342.449 569.661 347.078C567.701 358.725 566.043 375.427 565.298 394.622C564.201 407.291 563.812 417.961 564.882 423.061Z" fill="#DFB697"/>
<path d="M591.409 422.756H591.346L591.301 422.711C591.285 422.696 591.273 422.678 591.266 422.657C591.258 422.637 591.256 422.615 591.259 422.593C591.257 422.57 591.257 422.547 591.259 422.524C591.222 421.432 589.037 421.212 585.53 421.212C584.746 421.212 583.902 421.212 583.006 421.233C581.996 421.233 580.923 421.257 579.804 421.257C576.458 421.257 572.053 421.155 567.657 420.353C564.832 419.843 566.752 397.547 568.742 376.69C569.086 373.144 569.345 370.339 569.475 368.692C570.786 350.899 578.336 319.441 578.409 319.194C578.737 317.888 583.272 312.954 593.14 313.108C596.803 313.166 599.417 314.085 600.916 315.844C601.389 316.395 601.747 317.036 601.969 317.729C602.19 318.422 602.27 319.152 602.203 319.876C602.207 320.079 602.182 320.282 602.128 320.479C602.089 320.648 595.284 361.358 594.168 371.174C592.299 387.58 591.578 422.014 591.569 422.518V422.59V422.738L591.409 422.756ZM585.524 420.902C588.602 420.902 590.568 421.064 591.274 421.806C591.385 416.764 592.133 386.283 593.858 371.141C594.994 361.138 601.793 320.521 601.829 320.394C601.874 320.221 601.895 320.043 601.893 319.864C601.953 319.179 601.877 318.49 601.67 317.834C601.463 317.179 601.129 316.571 600.687 316.046C599.251 314.36 596.713 313.479 593.149 313.425C583.462 313.274 579.033 318.021 578.716 319.282C578.641 319.583 571.082 351.216 569.792 368.722C569.671 370.375 569.403 373.18 569.059 376.729C568.317 384.456 567.298 395.041 566.813 403.953C566.101 417.002 566.915 419.915 567.717 420.06C572.089 420.847 576.461 420.947 579.811 420.947C580.929 420.947 581.999 420.947 583.009 420.923C583.893 420.914 584.74 420.902 585.521 420.902H585.524Z" fill="#D1A586"/>
<path d="M596.884 424.527H493.743C493.743 424.527 496.155 414.574 555.877 416.043C598.151 417.084 596.884 424.527 596.884 424.527Z" fill="#E5BD9E"/>
<path d="M605.281 528.635C593.321 466.555 596.396 428.459 596.411 427.98C596.441 427.024 594.723 426.155 593.8 426.125C592.877 426.095 588.738 425.844 588.258 426.662C587.631 427.732 585.225 474.67 603.047 528.635H605.281Z" fill="#D1A586"/>
<path d="M508.977 528.635C520.934 466.555 517.859 428.459 517.844 427.98C517.814 427.024 519.532 426.155 520.458 426.125C521.383 426.095 525.52 425.844 525.996 426.662C526.624 427.732 529.033 474.67 511.223 528.635H508.977Z" fill="#D1A586"/>
<path d="M586.065 528.635C574.108 466.555 577.183 428.459 577.198 427.98C577.228 427.024 575.51 426.155 574.584 426.125C573.658 426.095 569.522 425.844 569.045 426.662C568.418 427.732 566.009 474.67 583.834 528.635H586.065Z" fill="#A0795F"/>
<path d="M596.796 427.708H493.706C493.139 427.708 492.595 427.483 492.194 427.082C491.793 426.681 491.568 426.137 491.568 425.57V424.092C491.568 423.525 491.793 422.981 492.194 422.58C492.595 422.179 493.139 421.954 493.706 421.954H596.796C597.363 421.954 597.907 422.179 598.308 422.58C598.708 422.981 598.934 423.525 598.934 424.092V425.57C598.933 426.137 598.707 426.68 598.307 427.081C597.906 427.482 597.363 427.707 596.796 427.708Z" fill="#D1A586"/>
<path d="M581.923 375.918C581.923 375.918 591.665 412.747 574.744 418.088C574.744 418.088 560.173 425.051 490.778 420.199C490.778 420.199 493.742 450.96 460.414 511.225C460.414 511.225 450.63 513.845 444.516 506.553C444.516 506.553 457.52 419.626 461.84 400.292C465.117 385.626 557.598 380.81 581.923 375.918Z" fill="#202020"/>
<path d="M449.759 320.017C449.311 319.906 448.902 319.673 448.577 319.346C448.251 319.019 448.021 318.608 447.911 318.16C446.825 313.92 443.711 311.893 443.364 312.342C443.093 312.698 444.211 314.972 444.41 315.829C437.777 315.699 439.858 311.441 434.214 310.659C433.086 310.506 431.982 315.452 436.463 321.414C439.306 325.199 440.081 323.875 448.719 325.784L452.822 326.815L453.866 320.443C452.485 320.455 451.108 320.312 449.759 320.017Z" fill="#FFB27D"/>
<path d="M553.26 268.707C551.725 271.551 546.461 277.118 538.673 279.151C538.615 274.515 538.458 271.913 538.458 271.913C538.899 271.789 553.703 267.863 553.26 268.707Z" fill="#ED975D"/>
<path d="M533.387 271.596C533.387 271.596 553.922 276.421 556.732 263.586C559.542 250.751 564.083 242.729 551.091 239.101C538.099 235.473 534.472 239.816 532.491 243.872C530.51 247.928 528.119 270.01 533.387 271.596Z" fill="#FFB27D"/>
<path d="M556.029 267.084C556.31 267.265 560.727 268.622 569.094 251.948C570.408 249.33 571.304 243.67 568.24 238.679C565.177 233.687 554.323 229.74 545.302 228.03C536.281 226.32 534.116 231.395 531.994 236.498C529.762 241.854 523.322 246.263 523.322 246.263C531.101 250.609 540.469 244.393 543.716 245.416C546.963 246.438 548.109 251.553 548.35 253.194C548.591 254.834 548.953 256.209 553.051 254.732C557.148 253.254 554.896 260.516 554.257 261.903C554.241 261.891 553.687 265.585 556.029 267.084Z" fill="#202020"/>
<path d="M523.108 332.795C524.23 336.354 522.87 360.749 525.677 375.689C527.33 384.498 531.638 386.974 531.738 387.053C535.054 389.631 549.008 395.623 559.455 400.048C582.752 409.915 588.001 397.143 587.796 394.239C587.703 392.936 577.961 321.749 571.28 301.072C567.408 289.085 562.958 279.636 556.744 276.002C555.933 275.547 553.126 277.326 549.116 279.899C545.411 282.275 541.949 282.365 538.154 282.034L532.814 287.296C528.768 291.998 524.465 298.259 523.289 307.155C523.199 307.813 523.124 308.509 523.06 309.266C522.732 312.876 520.971 326.022 523.108 332.795Z" fill="#FFD100"/>
<path d="M522.747 322.602C522.853 328.528 523.196 335.193 523.652 341.96C523.682 342.362 523.709 342.763 523.739 343.167C546.726 328.775 550.272 302.454 550.272 302.454C538.965 302.948 529.98 305.548 523.055 309.269C522.732 312.876 522.654 317.463 522.747 322.602Z" fill="#FFD100"/>
<path d="M448.414 322.952C449.62 319.221 451.884 319.173 451.884 319.173C451.884 319.173 490.341 325.117 493.811 324.149C497.282 323.181 526.675 294.92 526.675 294.92C526.675 294.92 537.93 283.158 547.313 285.912C555.454 288.294 558.722 294.19 559.877 299.784C561.255 306.449 558.032 313.096 551.851 316.549C537.982 324.3 508.787 340.709 502.22 342.413C487.6 346.207 449.3 328.35 449.3 328.35C449.3 328.35 447.515 325.75 448.414 322.952Z" fill="#FFD100"/>
<path d="M327.521 331.046L330.958 330.533C332.279 330.163 333.289 329.571 333.328 328.302L333.527 321.595C333.549 321.065 333.402 320.542 333.105 320.103C332.809 319.663 332.38 319.33 331.881 319.152C328.603 318.045 325.673 315.349 326.378 311.26C326.378 311.26 328.272 301.452 328.314 301.163L340.977 301.543C341.001 301.844 342.536 311.745 342.536 311.745C343.287 315.497 339.88 318.419 336.506 319.309C336.026 319.428 335.598 319.7 335.286 320.084C334.975 320.469 334.796 320.944 334.778 321.438L334.576 328.235C334.534 329.562 335.481 330.193 336.907 330.711L340.178 331.465C340.431 331.465 340.446 331.785 340.178 331.767L327.515 331.387C327.256 331.387 327.268 331.161 327.521 331.046Z" fill="#7693CE"/>
<path d="M326.962 313.313C327.565 316.763 330.716 319.001 334.256 319.107C337.795 319.212 341.308 316.769 342.007 313.624C342.142 313.008 342.163 312.372 342.071 311.748C341.991 311.219 341.878 310.695 341.733 310.18C341.676 309.984 340.346 301.525 340.346 301.525L328.859 301.181L327.071 310.273C327.035 310.417 327.007 310.562 326.986 310.708L326.953 310.865C326.935 311.009 326.908 311.148 326.893 311.293C326.82 311.966 326.843 312.647 326.962 313.313Z" fill="#EBF3FA"/>
<path d="M326.963 313.313C327.566 316.763 330.717 319.001 334.257 319.107C337.796 319.212 341.309 316.769 342.008 313.624C340.6 313.419 336.702 312.942 333.639 313.44C331.591 313.772 328.956 313.573 326.963 313.313Z" fill="#FFD100" fill-opacity="0.5"/>
<path opacity="0.7" d="M339.213 313.54C339.348 312.923 339.369 312.288 339.276 311.664C339.197 311.134 339.084 310.611 338.939 310.096C338.882 309.9 337.555 301.44 337.555 301.44L339.002 301.485C339.002 301.485 340.332 309.93 340.389 310.138C340.532 310.654 340.645 311.179 340.727 311.709C340.818 312.333 340.796 312.969 340.66 313.585C339.961 316.73 336.439 319.17 332.909 319.068C332.659 319.068 332.408 319.037 332.164 319.007C335.435 318.799 338.559 316.477 339.213 313.54Z" fill="white"/>
<path d="M242.22 393.561C241.46 374.362 239.808 357.673 237.854 346.017C234.724 327.451 231.905 316.763 231.872 316.658C231.459 315.023 225.501 308.419 212.253 308.624C199.005 308.829 200.262 317.49 200.262 317.49C200.26 317.75 200.293 318.008 200.359 318.259C200.486 318.706 212.645 363.918 212.118 422.304C212.118 423.121 212.018 424.539 212.075 425.483C212.075 425.483 242.774 426.294 242.783 425.483C243.854 420.371 243.332 406.227 242.22 393.561Z" fill="#D1A586"/>
<path d="M246.079 422.005C246.079 422.82 245.65 423.471 245.141 423.471C244.631 423.471 244.236 422.808 244.218 422.005H217.897C217.897 422.82 217.469 423.471 216.959 423.471C216.441 423.471 216.028 422.787 216.034 421.963C216.154 406.573 215.425 391.189 213.851 375.879C210.353 341.532 203.901 318.579 203.796 318.259C203.731 318.008 203.7 317.75 203.702 317.49C203.702 317.49 202.445 308.829 215.69 308.624C228.935 308.419 234.896 315.026 235.309 316.658C235.336 316.745 236.931 322.792 239.05 333.664C239.756 337.268 240.513 341.399 241.294 346.029C243.256 357.676 244.912 374.377 245.656 393.573C246.757 406.227 247.149 416.906 246.079 422.005Z" fill="#E5BD9E"/>
<path d="M246.079 422.006C246.079 422.82 245.651 423.471 245.141 423.471C244.632 423.471 244.237 422.808 244.219 422.006H217.897C217.897 422.82 217.469 423.471 216.96 423.471C216.441 423.471 216.028 422.787 216.034 421.963C216.155 406.573 215.426 391.189 213.851 375.879C218.199 354.081 235.011 337.413 239.051 333.658C239.757 337.262 240.513 341.393 241.294 346.023C243.257 357.67 244.912 374.371 245.657 393.567C246.757 406.227 247.149 416.906 246.079 422.006Z" fill="#DFB697"/>
<path d="M219.403 421.701V421.535V421.463C219.403 420.959 218.674 386.525 216.807 370.119C215.689 360.314 208.884 319.592 208.845 319.417C208.791 319.221 208.765 319.018 208.769 318.814C208.705 318.094 208.785 317.368 209.006 316.68C209.228 315.991 209.585 315.354 210.057 314.806C211.564 313.048 214.169 312.128 217.832 312.071C227.71 311.923 232.235 316.851 232.567 318.16C232.636 318.404 240.192 349.952 241.497 367.655C241.618 369.302 241.889 372.106 242.23 375.653C244.235 396.51 246.15 418.806 243.315 419.315C238.919 420.106 234.515 420.22 231.168 420.22C230.046 420.22 228.976 420.22 227.966 420.196C227.061 420.196 226.226 420.178 225.442 420.178C221.93 420.178 219.744 420.395 219.714 421.49C219.714 421.604 219.714 421.635 219.672 421.68L219.626 421.725L219.403 421.701ZM218.288 312.363H217.844C214.275 312.418 211.736 313.301 210.307 314.987C209.419 316.042 208.986 317.405 209.101 318.778C209.099 318.965 209.122 319.151 209.167 319.333C209.203 319.46 216.002 360.094 217.139 370.08C218.863 385.222 219.611 415.699 219.723 420.745C220.428 420.003 222.394 419.84 225.472 419.84C226.259 419.84 227.104 419.84 227.999 419.861C229.009 419.861 230.079 419.885 231.198 419.885C234.533 419.885 238.919 419.786 243.291 418.999C244.099 418.854 244.913 415.941 244.196 402.891C243.71 393.98 242.688 383.394 241.95 375.668C241.609 372.118 241.347 369.314 241.217 367.661C239.905 349.868 232.368 318.504 232.295 318.223C231.952 316.984 227.655 312.363 218.288 312.363Z" fill="#D1A586"/>
<path d="M214.068 423.471H317.21C317.21 423.471 314.798 413.519 255.076 414.988C212.811 416.04 214.068 423.471 214.068 423.471Z" fill="#E5BD9E"/>
<path d="M205.68 527.579C217.641 465.499 214.565 427.404 214.55 426.924C214.52 425.968 216.239 425.1 217.161 425.069C218.084 425.039 222.226 424.789 222.703 425.606C223.327 426.677 225.736 473.615 207.929 527.579H205.68Z" fill="#D1A586"/>
<path d="M301.984 527.579C290.026 465.499 293.101 427.404 293.116 426.924C293.146 425.968 291.428 425.1 290.502 425.069C289.577 425.039 285.44 424.789 284.964 425.606C284.337 426.677 281.928 473.615 299.752 527.579H301.984Z" fill="#D1A586"/>
<path d="M321.069 527.579C309.111 465.499 312.186 427.404 312.201 426.924C312.231 425.968 310.513 425.1 309.587 425.069C308.662 425.039 304.525 424.789 304.049 425.606C303.422 426.677 301.013 473.615 318.822 527.579H321.069Z" fill="#A0795F"/>
<path d="M224.894 527.579C236.852 465.499 233.777 427.404 233.762 426.924C233.731 425.968 235.45 425.1 236.376 425.069C237.301 425.039 241.438 424.789 241.917 425.606C242.541 426.677 244.95 473.615 227.125 527.579H224.894Z" fill="#A0795F"/>
<path d="M317.251 420.896H214.163C212.981 420.896 212.023 421.854 212.023 423.037V424.511C212.023 425.694 212.981 426.653 214.163 426.653H317.251C318.433 426.653 319.391 425.694 319.391 424.511V423.037C319.391 421.854 318.433 420.896 317.251 420.896Z" fill="#D1A586"/>
<path d="M263.955 231.567C263.955 231.567 249.968 227.134 239.729 241.354C229.49 255.573 221.693 256.487 224.443 262.766C227.192 269.045 219.92 272.718 222.661 278.514C225.402 284.311 228.389 283.671 225.513 289.41C222.028 296.347 226.683 304.963 228.977 307.782C234.887 315.045 232.321 329.107 241.339 330.79C241.339 330.79 285.594 312.771 289.486 307.032C293.379 301.293 291.85 291.968 286.04 284.476C280.23 276.985 290.626 277.594 288.334 270.869C286.043 264.144 284.511 263.369 286.652 256.041C288.793 248.712 284.207 249.62 282.22 243.962C280.233 238.305 281.159 237.026 275.75 233.772C270.003 230.295 263.955 231.567 263.955 231.567Z" fill="#202020"/>
<path d="M284.938 294.405C284.938 294.405 303.312 332.841 305.911 332.943C308.51 333.046 330.52 339.361 330.52 339.361V342.874H298.56C298.56 342.874 274.03 311.791 279.122 303.434C284.215 295.077 284.938 294.405 284.938 294.405Z" fill="#ED985F"/>
<path d="M350.363 413.718C350.363 413.718 376.63 506.565 383.83 514.418L372.445 511.704C372.445 511.704 372.716 509.328 372.445 508.604C366.891 493.766 339.379 473.584 335.378 429.412L350.363 413.718Z" fill="#ED985F"/>
<path d="M272.134 308.44C254.921 315.467 249.739 287.975 250.854 287.736C252.615 285.873 254.587 279.093 253.667 269.21L254.545 269.301L267.473 270.688C267.299 273.686 267.286 276.691 267.434 279.69C267.434 279.992 267.47 280.266 267.494 280.544C267.796 283.894 270.473 286.274 271.227 286.949C272.366 287.01 276.726 306.564 272.134 308.44Z" fill="#FFB27D"/>
<path d="M267.434 279.69C260.662 278.909 256.459 272.86 254.545 269.304L267.473 270.688C267.299 273.686 267.286 276.691 267.434 279.69Z" fill="#ED985F"/>
<path d="M272.326 274.702C272.326 274.702 253.205 276.723 252.126 264.796C251.046 252.868 247.856 245.093 260.019 243.299C272.182 241.505 274.964 245.841 276.3 249.735C277.636 253.628 277.271 273.867 272.326 274.702Z" fill="#FFB27D"/>
<path d="M244.466 284.772C244.466 284.772 256.068 278.439 272.849 285.167C274.409 285.793 275.822 286.737 276.998 287.938C278.174 289.14 279.088 290.572 279.681 292.146C282.434 299.474 279.422 307.261 279.814 312.4C279.814 312.4 273.57 342.105 272.895 355.61C272.219 369.115 281.035 382.64 277.685 383.587C271.236 385.418 230.928 406.417 231.353 391.027C231.61 381.763 249.281 363.282 249.356 353.828C249.432 344.373 231.103 290.276 244.466 284.772Z" fill="#FFB27D"/>
<path d="M240.492 370.616C240.492 370.616 218.329 397.759 226.843 412.358C237.2 430.127 325.004 417.539 331.079 420.154C331.079 420.154 323.014 435.555 329.346 477.222C330.751 486.459 337.185 503.655 332.912 511.237L342.735 506.158C342.735 506.158 342.289 471.446 352.836 415.211C352.836 415.211 352.682 403.718 347.391 400.892C336.235 394.936 240.492 370.616 240.492 370.616Z" fill="#FFB27D"/>
<path d="M354.197 523.034C354.197 523.034 351.918 522.359 351.001 521.135C350.085 519.91 345.876 512.992 344.012 509.955C342.149 506.918 342.134 499.653 342.134 499.653L333.957 497.286C333.957 497.286 337.217 507.238 332.911 511.237L338.543 517.543C338.543 517.543 345.547 524.117 346.057 524.268C346.566 524.419 352.087 525.492 352.087 525.492L354.197 523.034Z" fill="#FFB27D"/>
<path d="M347.39 400.892C347.39 400.892 345.705 413.212 337.037 425.848C331.698 433.71 324.537 440.164 316.164 444.657C309.956 447.996 302.536 450.571 293.684 451.877C293.684 451.877 297.627 425.965 290.246 423.773C289.926 423.681 289.594 423.632 289.261 423.628C280.55 423.51 227.911 425.573 222.475 408.248C217.111 391.181 243.74 356.466 243.643 354.959C241.231 316.658 237.061 294.459 239.506 290.746C242.708 285.876 253.074 282.356 253.074 282.356C253.074 282.356 265.21 298.913 275.331 303.591C278.928 305.252 272.838 285.194 272.838 285.194C272.838 285.194 281.367 286.036 287.786 297.861C287.786 297.861 284.06 301.706 282.462 303.389C282.462 303.389 285.896 312.481 286.233 315.925C286.583 319.478 285.968 323.121 284.005 331.45C283.853 332.1 283.668 332.77 283.451 333.462C281.503 339.699 277.155 347.98 274.179 360.773C274.064 361.456 274.064 362.153 274.179 362.836C274.918 368.711 280.764 381.03 284.94 381.564C289.71 382.161 343.112 396.655 347.39 400.892Z" fill="#FFEE32"/>
<path d="M274.191 360.758C274.076 361.441 274.076 362.138 274.191 362.821C247.02 329.134 245.334 295.056 245.334 295.056L283.475 333.447C281.515 339.684 277.167 347.965 274.191 360.758Z" fill="#FFEE32"/>
<path d="M243.114 290.007C242.662 291.404 240.684 297.357 241.561 298.533C247.211 306.094 279.894 341.825 289.35 343.658C299.788 345.685 326.971 319.782 326.971 319.782L323.655 318.208C323.655 318.208 293.299 330.977 291.65 329.415C289.669 327.536 267.427 301.335 262.464 295.939C254.921 287.733 245.616 282.308 243.114 290.007Z" fill="#FFB27D"/>
<path d="M393.736 523.035C393.736 523.035 390.118 521.527 388.195 519.416C382.493 513.134 381.999 512.244 379.267 507.012C378.149 504.867 372.45 511.234 372.45 511.234L383.093 524.344L389.265 526.584L393.736 523.035Z" fill="#ED985F"/>
<path d="M253.089 282.344C253.089 282.344 239.434 281.841 238.897 292.32C238.36 302.8 245.992 307.351 245.992 307.351C245.992 307.351 255.998 310.786 265.912 298.041C265.912 298.041 261.127 293.029 258.733 290.734C255.121 287.278 253.089 282.344 253.089 282.344Z" fill="#FFEE32"/>
<path d="M332.257 517.775L334.319 527.579H336.481V518.613L332.257 517.775Z" fill="#202020"/>
<path d="M371.792 517.775L373.855 527.579H376.016V518.613L371.792 517.775Z" fill="#202020"/>
<path d="M397.315 527.579H381.959C381.959 527.579 380.247 519.937 376.252 519.684C372.257 519.43 370.364 516.801 371.301 514.669C371.807 513.569 372.192 512.419 372.45 511.237C372.45 511.237 379.228 513.746 381.724 519.91C384.221 526.074 393.736 523.034 393.736 523.034C395.774 523.948 397.381 524.446 397.315 527.579Z" fill="#202020"/>
<path d="M357.78 527.579H342.424C342.424 527.579 340.712 519.937 336.717 519.684C332.722 519.43 330.828 516.801 331.766 514.669C332.272 513.57 332.656 512.419 332.912 511.237C332.912 511.237 339.689 513.746 342.189 519.91C344.688 526.074 354.198 523.034 354.198 523.034C356.239 523.948 357.852 524.446 357.78 527.579Z" fill="#202020"/>
<path d="M323.288 318.362C323.288 318.362 326.23 316.754 328.6 316.61C330.97 316.465 333.804 315.361 333.587 316.206C333.37 317.05 330.361 318.253 331.036 318.666C332.313 319.305 333.727 319.624 335.155 319.595C336.701 319.511 339.756 317.535 339.156 318.893C338.556 320.25 335.36 323.142 332.634 322.891C330.222 322.668 325.211 321.417 325.211 321.417L323.288 318.362Z" fill="#FFB27D"/>
<path d="M330.521 339.349C330.521 339.349 337.917 337.313 339.849 337.416C341.782 337.518 349.015 341.071 349.114 342.862H329.345L330.521 339.349Z" fill="#ED985F"/>
<path d="M275.14 243.151C271.859 239.834 269.695 240.814 268.537 242.005C250.172 235.696 242.324 252.536 242.324 252.536C242.324 252.536 235.962 290.743 242.224 285.523C243.753 284.25 246.774 282.73 248.628 283.548C251.643 284.872 262.884 286.012 256.832 274.829C252.72 267.235 256.127 264.485 256.127 264.485C265.341 259.186 269.884 245.383 270.144 243.935C271.407 244.882 274.461 247.702 274.832 250.024C275.697 255.48 277.892 256.659 279.695 256.267C279.695 256.258 280.057 248.139 275.14 243.151Z" fill="#202020"/>
<path d="M337.035 425.848C337.56 420.495 332.814 412.367 329.344 407.539C324.96 401.426 284.938 381.549 284.938 381.549C289.708 382.152 343.129 396.655 347.389 400.892C347.389 400.892 345.704 413.211 337.035 425.848Z" fill="#FFEE32"/>
<path d="M293.683 451.877C293.683 451.877 297.626 425.965 290.245 423.773C306.071 423.342 316.175 444.657 316.175 444.657C309.946 447.996 302.535 450.559 293.683 451.877Z" fill="#FFEE32"/>
<path d="M411.766 231.073C402.923 229.176 402.775 221.941 402.775 221.941C413.189 225.231 411.766 231.073 411.766 231.073Z" fill="#6BB7BF"/>
<path d="M412.375 229.423C412.375 229.423 417.893 231.661 421.815 226.034C421.803 226.034 415.447 224.954 412.375 229.423Z" fill="#6BB7BF"/>
<path d="M400.271 338.501L399.128 339.819C399.087 339.857 399.036 339.882 398.982 339.893C398.927 339.903 398.87 339.899 398.818 339.879C398.766 339.859 398.72 339.825 398.686 339.781C398.652 339.737 398.631 339.685 398.625 339.629C398.691 302.384 403.419 269.295 407.389 249.759C411.722 228.452 416.133 215.855 416.16 215.731C416.118 215.855 412.153 228.654 407.833 249.9C403.856 269.458 399.306 295.014 400.458 337.988C400.464 338.177 400.397 338.361 400.271 338.501Z" fill="#6BB7BF"/>
<path d="M416.076 210.668C414.668 211.802 409.265 216.633 414.505 220.361C414.505 220.361 418.521 221.631 419.851 218.536C420.867 216.175 421.141 213.542 421.214 212.426C421.222 212.288 421.176 212.151 421.084 212.046C420.993 211.941 420.864 211.876 420.725 211.865C420.337 211.831 419.956 211.743 419.592 211.606C419.094 211.413 418.841 210.662 418.168 210.499C417.734 210.372 417.281 210.321 416.83 210.348C416.552 210.378 416.29 210.489 416.076 210.668Z" fill="#FFEE32"/>
<path d="M413.087 219.01C413.55 219.412 413.89 219.936 414.069 220.523C414.247 221.11 414.256 221.735 414.094 222.327V223.084C414.252 222.503 414.553 221.972 414.969 221.538C415.386 221.104 415.905 220.782 416.479 220.602C416.479 220.602 414.697 220.816 413.087 219.01Z" fill="#6BB7BF"/>
<path d="M411.766 231.073C402.923 229.176 402.775 221.941 402.775 221.941C402.775 221.941 409.779 225.789 411.766 231.073Z" fill="#8AD8DB"/>
<path d="M403.273 226.115C403.273 226.115 397.71 228.244 393.902 222.538C393.902 222.538 400.288 221.585 403.273 226.115Z" fill="#6BB7BF"/>
<path d="M413.189 335.416L414.305 336.755C414.345 336.793 414.396 336.82 414.45 336.831C414.505 336.843 414.561 336.839 414.614 336.82C414.666 336.801 414.712 336.768 414.747 336.725C414.782 336.682 414.804 336.629 414.811 336.574C415.493 299.338 411.429 266.158 407.85 246.562C403.93 225.171 399.802 212.483 399.76 212.363C399.802 212.489 403.511 225.364 407.403 246.692C410.988 266.324 415.022 291.968 413.011 334.909C413.006 335.094 413.069 335.275 413.189 335.416Z" fill="#6BB7BF"/>
<path d="M399.939 207.29C401.326 208.451 406.629 213.391 401.317 217.013C401.317 217.013 397.277 218.204 396.007 215.083C395.039 212.7 394.819 210.062 394.768 208.946C394.762 208.806 394.812 208.669 394.906 208.565C395 208.461 395.132 208.399 395.272 208.391C395.66 208.364 396.043 208.284 396.411 208.156C396.912 207.972 397.18 207.227 397.852 207.076C398.289 206.959 398.743 206.918 399.194 206.955C399.47 206.99 399.729 207.107 399.939 207.29Z" fill="#FFEE32"/>
<path d="M402.769 215.692C402.293 216.086 401.939 216.607 401.749 217.195C401.559 217.782 401.541 218.412 401.696 219.01V219.77C401.55 219.186 401.259 218.648 400.851 218.206C400.442 217.764 399.929 217.432 399.359 217.239C399.359 217.239 401.123 217.463 402.769 215.692Z" fill="#6BB7BF"/>
<path d="M405.629 219.592C405.629 219.592 411.502 220.575 414.104 214.227C414.104 214.227 407.655 214.561 405.629 219.592Z" fill="#6BB7BF"/>
<path d="M417.598 328.688L416.769 330.223C416.737 330.268 416.693 330.304 416.642 330.325C416.591 330.347 416.535 330.355 416.481 330.347C416.426 330.339 416.374 330.317 416.331 330.281C416.289 330.246 416.256 330.2 416.238 330.148C408.179 293.783 405.58 260.462 405.2 240.542C404.784 218.802 406.325 205.559 406.34 205.417C406.34 205.55 405.248 218.904 405.664 240.582C406.047 260.534 407.172 286.47 417.67 328.157C417.713 328.337 417.687 328.526 417.598 328.688Z" fill="#6BB7BF"/>
<path d="M405.161 200.481C404.03 201.895 399.815 207.788 405.739 210.282C405.739 210.282 409.936 210.647 410.564 207.339C411.04 204.811 410.732 202.182 410.564 201.078C410.542 200.939 410.467 200.815 410.354 200.732C410.241 200.649 410.099 200.614 409.961 200.634C409.574 200.687 409.183 200.687 408.797 200.634C408.269 200.553 407.859 199.877 407.169 199.862C406.717 199.834 406.265 199.883 405.83 200.007C405.565 200.096 405.332 200.261 405.161 200.481Z" fill="#FFEE32"/>
<path d="M404.053 209.278C404.593 209.568 405.041 210.005 405.343 210.539C405.646 211.072 405.791 211.681 405.763 212.294L405.91 213.036C405.938 212.434 406.116 211.85 406.43 211.336C406.743 210.822 407.18 210.395 407.701 210.095C407.701 210.095 406.016 210.686 404.053 209.278Z" fill="#6BB7BF"/>
<path d="M410.477 213.05C410.477 213.05 410.477 208.4 414.484 206.94C414.484 206.94 415.367 210.822 410.477 213.05Z" fill="#6BB7BF"/>
<path d="M401.064 205.577C401.064 205.577 401.182 202.028 397.901 201.002C397.901 201.002 397.111 204.308 401.064 205.577Z" fill="#FFD100"/>
<path d="M411.833 226.929C411.954 227.032 413.546 223.476 410.304 220.617C410.304 220.617 408.95 224.423 411.833 226.929Z" fill="#FFD100"/>
<path d="M414.104 226.652C414.014 226.676 414.08 224.881 415.762 224.625C415.774 224.625 416.049 226.118 414.104 226.652Z" fill="#6BB7BF"/>
<path d="M397.315 220.617C397.315 220.617 395.895 217.677 391.348 218.186C391.351 218.186 392.03 221.359 397.315 220.617Z" fill="#6BB7BF"/>
<path d="M425.545 339.276L411.654 245.729C411.587 245.28 411.361 244.87 411.017 244.573C410.673 244.276 410.233 244.113 409.779 244.113H405.446C405.022 244.112 404.611 244.264 404.288 244.541C403.965 244.818 403.753 245.201 403.689 245.621L390.121 339.174C390.055 339.63 390.087 340.095 390.217 340.538C390.346 340.981 390.57 341.39 390.871 341.739C391.173 342.088 391.546 342.367 391.966 342.559C392.385 342.751 392.841 342.85 393.302 342.85H422.457C422.905 342.849 423.347 342.752 423.754 342.565C424.161 342.378 424.523 342.106 424.816 341.767C425.109 341.428 425.325 341.031 425.451 340.601C425.577 340.171 425.609 339.719 425.545 339.276Z" fill="#FFEE32"/>
<path d="M399.758 340.033L406.964 244.131C406.583 244.185 406.23 244.361 405.958 244.633C405.686 244.905 405.51 245.258 405.456 245.639L391.889 339.192C391.822 339.648 391.855 340.114 391.985 340.556C392.114 340.999 392.337 341.408 392.639 341.757C392.941 342.106 393.314 342.385 393.733 342.577C394.153 342.769 394.608 342.868 395.069 342.868H400.897C400.503 342.515 400.194 342.075 399.997 341.584C399.799 341.092 399.717 340.562 399.758 340.033Z" fill="#FFD100"/>
<path d="M416.136 342.862H424.217C424.893 342.863 425.551 342.644 426.092 342.238L416.136 342.862Z" fill="#FFB278"/>
<path d="M379.09 286.397V295.095C379.09 295.722 378.695 296.238 378.212 296.238H375.828C375.345 296.238 374.95 295.722 374.95 295.095V286.425C375.055 286.406 375.161 286.397 375.267 286.397H379.09Z" fill="#FFEE32"/>
<path d="M377.912 292.664H376.368C374.735 292.669 373.17 293.32 372.015 294.475C370.861 295.63 370.21 297.195 370.205 298.829V340.546C370.207 341.143 370.444 341.716 370.866 342.138C371.288 342.561 371.86 342.799 372.457 342.802H381.819C382.354 342.799 382.866 342.586 383.244 342.207C383.622 341.829 383.834 341.316 383.836 340.781V298.59C383.832 297.02 383.207 295.515 382.096 294.404C380.986 293.294 379.482 292.668 377.912 292.664Z" fill="#FFEE32"/>
<path d="M379.09 282.776V287.154C379.09 287.39 378.695 287.586 378.212 287.586H375.828C375.345 287.586 374.95 287.39 374.95 287.154V282.776C374.95 282.54 375.345 282.344 375.828 282.344H378.212C378.689 282.344 379.09 282.54 379.09 282.776Z" fill="#FFD100"/>
<path d="M383.836 301.579H370.205V327.795H383.836V301.579Z" fill="#FFD100"/>
<path d="M467.03 527.579C466.517 527.578 466.021 527.396 465.63 527.065C465.239 526.734 464.977 526.275 464.892 525.77L454.418 464.763L439.342 377.022L435.121 352.485L445.849 352.184L447.733 366.418L460.804 466.512L468.552 525.842C468.581 526.059 468.563 526.279 468.5 526.489C468.436 526.698 468.329 526.892 468.185 527.056C468.041 527.221 467.863 527.352 467.664 527.443C467.464 527.533 467.248 527.579 467.03 527.579Z" fill="#C69D7F"/>
<path d="M357.243 352.494L352.458 380.291L339.271 457.1L327.482 525.764C327.398 526.269 327.137 526.728 326.746 527.06C326.355 527.391 325.859 527.573 325.347 527.573C325.128 527.574 324.912 527.527 324.713 527.438C324.513 527.348 324.336 527.216 324.191 527.052C324.047 526.888 323.939 526.695 323.875 526.486C323.812 526.276 323.793 526.056 323.822 525.839L333.988 447.998L344.864 364.736L346.504 352.175L357.243 352.494Z" fill="#C69D7F"/>
<path d="M352.458 380.291C353.085 368.339 344.863 364.729 344.863 364.729L346.503 352.169L357.233 352.47L352.458 380.291Z" fill="#A0795F"/>
<path d="M447.732 366.418C440.779 369.573 439.353 377.028 439.353 377.028L435.132 352.492L445.86 352.19L447.732 366.418Z" fill="#A0795F"/>
<path d="M497.173 342.862H295.223C290.374 342.862 286.443 346.794 286.443 351.644V353.345C286.443 358.195 290.374 362.127 295.223 362.127H497.173C502.022 362.127 505.953 358.195 505.953 353.345V351.644C505.953 346.794 502.022 342.862 497.173 342.862Z" fill="#E0B594"/>
<path d="M729.158 404.474C730.517 413.679 731.604 423.047 732.42 432.577C732.525 433.813 732.625 435.052 732.719 436.294C733.612 447.863 734.08 459.657 734.125 471.675C731.859 473.738 729.428 475.61 726.854 477.273C716.48 483.835 717.905 477.755 718.756 469.305C719.606 460.855 730.383 452.485 731.774 448.152C733.165 443.82 727.448 446.323 722.098 452.325C716.748 458.327 719.426 466.885 710.95 476.756C702.474 486.628 678.476 475.914 678.476 475.914C686.837 471.711 694.972 457.037 693.277 454.389C691.581 451.741 674.691 468.423 671.386 470.322C668.082 472.221 658.286 471.379 650.91 457.933C643.534 444.487 664.731 430.503 664.731 430.503C664.731 430.503 694.911 437.406 698.89 434.433C702.869 431.46 674.244 423.49 674.244 423.49C680.488 416.195 706.161 407.75 706.161 407.75C706.161 407.75 726.004 430.593 729.132 426.729C732.261 422.864 710.528 407.397 710.528 407.397C716.339 404.402 724.497 404.258 729.158 404.474Z" fill="#FFEE32"/>
<path d="M732.419 432.577C732.524 433.814 732.623 435.053 732.717 436.294C720.707 435.253 699.549 438.406 662.329 453.352C662.329 453.352 705.837 432.169 732.419 432.577Z" fill="#FFD100"/>
<path d="M733.013 195.678C732.96 196.818 732.899 197.965 732.829 199.117C732.45 205.532 731.837 212.042 730.956 218.597C724.148 226.694 718.087 235.151 718.087 235.151C718.087 235.151 679.769 226.406 669.745 216.679C669.745 216.679 710.118 201.259 703.946 197.489C697.774 193.719 655.026 207.814 655.026 207.814C655.026 207.814 622.419 190.452 631.278 169.973C640.138 149.494 654.187 146.971 659.239 149.266C664.292 151.561 691.011 173.427 693.098 169.365C695.185 165.302 681.427 145.158 668.741 140.211C668.741 140.211 702.035 121.444 715.634 134.575C727.945 146.46 726.906 158.029 732.932 166.023C733.122 169.792 733.244 173.63 733.297 177.539C733.311 178.421 733.32 179.309 733.324 180.201C733.344 183.903 733.291 187.652 733.167 191.447L733.013 195.678Z" fill="#FFEE32"/>
<path d="M733.177 191.455C714.607 190.997 687.632 186.687 648.455 175.066C649.466 175.447 695.698 192.706 733.013 195.678L733.177 191.455Z" fill="#FFEE32"/>
<path d="M736.869 356.138C736.493 365.022 735.828 374.007 734.875 383.093C722.918 384.495 709.388 383.36 699.856 380.815C681.316 375.848 689.813 371.037 700.428 363.043C710.255 355.642 729.013 358.105 736.869 356.138Z" fill="#FFEE32"/>
<path d="M736.932 322.293C737.004 324.166 737.063 326.041 737.109 327.917C737.299 335.389 737.283 342.947 737.061 350.59C733.942 349.496 729.069 348.781 723.482 348.877C710.907 349.1 703.908 361.244 683.579 361.969C663.25 362.694 650.096 323.749 650.096 323.749C663.799 328.91 689.284 322.691 690.535 317.932C691.787 313.173 654.686 311.456 648.999 309.672C643.313 307.887 633.882 295.742 641.509 272.988C649.136 250.234 687.708 259.782 687.708 259.782C687.708 259.782 711.79 301.795 719.434 303.219C727.078 304.642 705.858 263.268 705.858 263.268C712.043 263.04 721.945 266.39 731.46 270.429C734.441 287.575 736.269 304.902 736.932 322.293Z" fill="#FFD100"/>
<path d="M658.906 281.271C659.631 281.555 704.91 299.332 736.934 322.292C737.006 324.166 737.065 326.04 737.111 327.917C721.822 315.148 697.44 299.588 658.906 281.271Z" fill="#FFEE32"/>
<path d="M714.462 527.432H116.902C116.408 527.432 116.007 527.833 116.007 528.327V529.307C116.007 529.802 116.408 530.203 116.902 530.203H714.462C714.956 530.203 715.357 529.802 715.357 529.307V528.327C715.357 527.833 714.956 527.432 714.462 527.432Z" fill="#A0795F"/>
</svg>
