<svg xmlns="http://www.w3.org/2000/svg" viewBox="0 0 32 32">
<path d="M1.69831 9.87337H7.12487C8.06131 9.87337 8.82318 10.6356 8.82318 11.5726V17.8185H10.8529C10.7401 17.4084 10.6983 16.9247 10.7257 16.3619V16.3618C10.7698 13.9831 11.2014 11.9784 12.0087 10.4032C12.6356 9.18031 13.3672 8.44712 13.9949 8.00881C13.2581 7.25125 12.8321 6.17356 12.8321 4.93062C12.8321 2.69431 14.6161 0.875 16.8087 0.875C19.0014 0.875 20.7854 2.69431 20.7854 4.93062C20.7854 5.18956 20.5755 5.39937 20.3166 5.39937H19.9981C20.0274 5.57625 20.0431 5.7565 20.0431 5.93956C20.0431 7.51556 18.9169 8.83275 17.4281 9.12794C17.5841 9.70744 17.6617 10.3907 17.6614 11.167L18.8305 12.1726L21.6752 12.4026L24.9566 11.3179C25.2574 11.2179 25.5982 11.1049 25.894 11.3181C26.1854 11.5284 26.1854 11.8966 26.1854 12.0176V14.4572C26.1854 14.7162 25.9756 14.926 25.7167 14.926H25.1586L26.0146 17.8837C26.0865 18.1324 25.9432 18.3924 25.6946 18.4643C25.4457 18.5366 25.1859 18.393 25.1139 18.1444L24.1826 14.926H22.8499C24.5074 19.9805 23.5617 23.3544 22.108 26.7688H22.9506L26.4602 22.8447L25.7181 20.2809C25.6461 20.0322 25.7893 19.7723 26.038 19.7004C26.2867 19.6284 26.5466 19.7717 26.6186 20.0203L27.3284 22.4726C29.5238 22.436 31.4876 23.9496 31.988 26.1273C32.0459 26.3796 31.8885 26.6311 31.6363 26.6891L30.9709 26.8422C31.1409 28.6079 29.9781 30.2739 28.2047 30.6821C27.9354 30.7441 27.6637 30.7747 27.394 30.7747C26.7287 30.7747 26.0752 30.5882 25.4971 30.2259C24.8187 29.8008 24.3132 29.1758 24.0396 28.4372L23.5146 28.558C23.3581 28.5942 23.2097 28.6125 23.0615 28.5327C22.9236 28.4584 22.8319 28.3244 22.7975 28.1731C22.7645 28.0196 22.7394 27.8637 22.7219 27.7063H12.9183C12.6048 29.6555 10.9464 31.1248 8.96568 31.1248C6.985 31.1248 5.3265 29.6555 5.013 27.7063H4.65525C4.65525 27.7063 4.58425 27.7071 4.56806 27.7071C4.434 27.7071 4.24037 27.6922 4.08137 27.5305C4.00181 27.4496 3.90843 27.3047 3.91562 27.0747C3.92881 26.6345 3.99487 26.2092 4.10762 25.8049C3.73425 23.5382 4.0935 22.1576 4.62606 21.0772C4.28937 20.8565 4.06612 20.4762 4.06612 20.0442V18.7559H1.69843C0.761995 18.7559 0.00012207 17.9937 0.00012207 17.0567V11.5726C-3.8147e-06 10.6356 0.761808 9.87337 1.69831 9.87337ZM25.9949 29.4317C26.595 29.8077 27.305 29.9273 27.9942 29.7686H27.9943C29.2629 29.4766 30.1093 28.3133 30.0476 27.0554L24.9631 28.2257C25.1734 28.721 25.5294 29.1399 25.9949 29.4317ZM23.6494 27.5651L30.941 25.8872C30.3783 24.3463 28.8641 23.3263 27.2089 23.4141L23.6369 27.4079C23.6401 27.4606 23.6442 27.5129 23.6494 27.5651ZM16.5691 19.3966C16.7052 19.7555 16.7052 20.1979 16.7052 20.8104V22.5792H18.4216V20.1525C18.4216 17.4089 16.9242 16.9199 16.2522 16.8392H11.6567C11.6752 17.4619 11.8157 17.9046 12.0824 18.1855C12.3933 18.5129 12.9252 18.6724 13.7087 18.6731L15.3913 18.6749C15.9913 18.6749 16.3876 18.9177 16.5691 19.3966ZM16.7052 23.5167V24.6359C16.7094 24.6359 16.7138 24.6359 16.7183 24.6359H20.0479C20.0104 24.2888 19.9023 24.0202 19.7247 23.8343C19.4606 23.5579 19.0886 23.5167 18.8904 23.5167H16.7052ZM11.6774 15.9018H15.9403C16.1115 15.3631 16.2641 14.7732 16.3896 14.167L15.0936 13.3257C14.3861 12.8663 14.018 12.2171 14.0837 11.5446C14.142 10.9484 14.5473 10.4158 15.1163 10.1879C15.6359 9.97975 16.1952 10.0451 16.6896 10.3612C16.6488 9.91281 16.5729 9.51256 16.4632 9.17281C16.2634 9.15219 16.0649 9.11312 15.8701 9.05581C15.4734 8.96369 15.1068 8.81687 14.7759 8.62219C13.8731 9.16156 11.8874 10.9111 11.6774 15.9018ZM19.8136 4.46194C19.5925 2.96419 18.3292 1.81256 16.8087 1.81256C15.133 1.81256 13.7696 3.21137 13.7696 4.93069C13.7696 6.32906 14.4402 7.45612 15.5214 7.95212V5.48569C15.5214 5.05862 15.6849 4.53475 16.4632 4.46387C16.4774 4.46256 16.4916 4.46194 16.5057 4.46194H19.8136ZM19.1055 5.93962C19.1055 5.75462 19.0844 5.57394 19.043 5.39944H16.5287C16.4998 5.40256 16.4787 5.40594 16.4636 5.409C16.4611 5.42637 16.459 5.45137 16.459 5.48569V8.22794C16.5707 8.24437 16.6831 8.25269 16.7954 8.25275C16.7964 8.25275 16.7975 8.25275 16.7985 8.25275C18.0707 8.25156 19.1055 7.21437 19.1055 5.93962ZM19.7132 13.1846L18.6029 13.0948C18.504 13.0869 18.4102 13.0477 18.3349 12.983L16.3311 11.2596L16.3308 11.2592C16.1371 11.0923 15.9302 11.0067 15.7289 11.0067C15.6392 11.0067 15.5507 11.0237 15.4649 11.0581C15.2172 11.1572 15.0413 11.384 15.0167 11.6356C14.9857 11.9523 15.1944 12.2733 15.6039 12.5393L17.8367 13.9886H19.7131V13.1846H19.7132ZM21.6942 13.3449L20.6507 13.2605V13.9887H21.8632C22.0204 13.9887 22.0587 13.8581 22.0632 13.7485C22.0658 13.6864 22.0599 13.3749 21.6942 13.3449ZM22.8036 13.0212C22.9448 13.2527 23.0107 13.5236 22.9999 13.7869C22.9971 13.8551 22.9884 13.9207 22.9763 13.9847C22.9763 13.9861 22.9771 13.9874 22.9768 13.9886H25.2478V12.2091L22.8018 13.0176C22.8026 13.0189 22.8029 13.0201 22.8036 13.0212ZM21.8606 14.9261H17.6981C17.6075 14.9261 17.5188 14.8999 17.4429 14.8506L17.2307 14.7128C17.1286 15.1639 17.0124 15.6029 16.8857 16.0176C17.8417 16.2997 19.3592 17.2117 19.3592 20.1524V22.6262C19.6881 22.6926 20.0771 22.846 20.4026 23.1866C20.7456 23.5456 20.9416 24.032 20.9886 24.6359H21.9342C22.8871 21.8897 23.2494 18.9675 21.8606 14.9261ZM21.088 26.7672C21.2612 26.3688 21.4282 25.9719 21.5855 25.5734H16.7184C16.0876 25.5734 15.7677 25.2862 15.7677 24.7199V23.0479V21.2791H12.0678C11.8089 21.2791 11.5991 21.0692 11.5991 20.8103C11.5991 20.5514 11.8089 20.3416 12.0678 20.3416H15.7644C15.7584 20.0753 15.7413 19.8576 15.6925 19.7289C15.6688 19.6664 15.6483 19.6124 15.3909 19.6124L13.7079 19.6106C12.6538 19.6096 11.8997 19.3546 11.4026 18.831C11.3796 18.8067 11.3578 18.7813 11.336 18.756H8.35437H5.00343V20.0443C5.00343 20.2054 5.13925 20.3416 5.3 20.3416H9.96656C10.2255 20.3416 10.4353 20.5514 10.4353 20.8103C10.4353 21.0692 10.2255 21.2791 9.96656 21.2791H5.57543C5.20494 21.9667 4.87169 22.8224 4.8915 24.1744C5.81887 22.8862 7.32018 22.0579 9.02406 22.0579C10.3924 22.0579 11.6764 22.5946 12.6396 23.5693C13.4943 24.4341 14.0076 25.5566 14.1132 26.7688L21.088 26.7672ZM8.96562 30.1874C10.431 30.1874 11.6669 29.1316 11.9659 27.7064H5.96537C6.26443 29.1315 7.50031 30.1874 8.96562 30.1874ZM5.43287 26.7689H12.4982H13.1717C12.9416 24.6494 11.1693 22.9954 9.02406 22.9954C7.14062 22.9954 5.55894 24.2373 5.03512 25.9759C5.03344 25.9814 5.03175 25.9869 5.02987 25.9923C4.95581 26.2417 4.9035 26.5014 4.87518 26.7689H5.43287ZM0.937496 17.0567C0.937496 17.4768 1.27881 17.8185 1.69831 17.8185H7.88568V15.3978H0.937496V17.0567ZM0.937496 14.4603H7.88568V13.4634H0.937496V14.4603ZM0.937496 12.5259H7.88568V11.5726C7.88568 11.1526 7.54437 10.8109 7.12487 10.8109H1.69831C1.27881 10.8109 0.937496 11.1526 0.937496 11.5726V12.5259Z"/>
</svg>