<svg xmlns="http://www.w3.org/2000/svg" viewBox="0 0 32 32">
<g clip-path="url(#clip0)">
<path d="M23.7871 12.8401L25.6672 12.7207C25.6704 12.7205 25.6738 12.7203 25.6772 12.72C27.0171 12.6067 28.2197 11.9035 28.977 10.79L30.4634 8.60504C31.7571 6.70288 32.2583 4.40543 31.8743 2.1361C31.7988 1.69041 31.5713 1.27969 31.2339 0.980036C30.8962 0.680133 30.4622 0.50303 30.0115 0.481503C27.7161 0.371425 25.5005 1.14564 23.771 2.66056L21.7842 4.40102C20.7717 5.28777 20.219 6.56834 20.2673 7.91497C20.2676 7.91815 20.2676 7.92157 20.2678 7.925L20.375 9.80929C20.4167 10.5439 20.1479 11.2687 19.6389 11.7966L4.11688 27.7736C3.70135 28.2078 3.48675 28.8034 3.51287 29.4509C3.54168 30.1637 3.8681 30.8638 4.38617 31.324C4.85419 31.7396 5.4975 31.9764 6.14057 31.9764C6.20941 31.9764 6.27826 31.9737 6.34687 31.9681C6.99164 31.9164 7.55634 31.6317 7.93867 31.1635L21.9053 13.8117C22.3684 13.2408 23.0544 12.8866 23.7871 12.8401ZM21.1596 13.207L7.19428 30.5573C6.9809 30.8186 6.65278 30.9795 6.27045 31.0101C5.81561 31.0466 5.34931 30.8949 5.02264 30.6048C4.69598 30.3144 4.48993 29.8687 4.47162 29.412C4.45599 29.0282 4.57587 28.6826 4.80682 28.4414L20.3276 12.4656C21.0234 11.7442 21.3896 10.7562 21.333 9.75474L21.2258 7.87534C21.1894 6.82128 21.6228 5.81908 22.4155 5.1246L24.4023 3.38415C25.9443 2.03361 27.9204 1.34403 29.9658 1.44139C30.1987 1.45264 30.4229 1.54413 30.5974 1.69921C30.772 1.85406 30.8894 2.06639 30.9285 2.29657C31.2708 4.31981 30.824 6.36776 29.6707 8.06345L28.1843 10.2486C27.5913 11.1204 26.6501 11.6716 25.6013 11.7618L23.7263 11.8807C22.7273 11.9443 21.7922 12.4272 21.1596 13.207Z" />
<path d="M31.1137 27.6522L20.7062 18.1544C20.5104 17.9756 20.2072 17.9898 20.0285 18.186C19.8502 18.3822 19.8644 18.6862 20.0602 18.865L30.465 28.3606C30.7126 28.5898 30.8529 28.9277 30.8605 29.3117C30.8695 29.7687 30.6906 30.2259 30.3818 30.5353C30.0732 30.8445 29.6176 31.0243 29.1606 31.015C28.7773 31.0074 28.4401 30.8668 28.2138 30.6214L18.9398 20.4198C18.7614 20.2234 18.4579 20.2095 18.2621 20.388C18.0663 20.5669 18.0521 20.8709 18.2306 21.0671L27.5067 31.2711C27.9145 31.7129 28.495 31.9634 29.1418 31.9761C29.1586 31.9763 29.1752 31.9766 29.1921 31.9766C29.8871 31.9766 30.5822 31.6941 31.06 31.2151C31.5497 30.7244 31.8337 30.0059 31.8195 29.2929C31.8068 28.6449 31.557 28.0632 31.1137 27.6522Z" />
<path d="M5.78806 12.7491C6.58201 13.482 7.61351 13.8998 8.69261 13.9258C8.69603 13.926 8.69945 13.926 8.70262 13.926L10.5864 13.9319C11.3208 13.9341 12.0266 14.2465 12.522 14.7873L13.3518 15.7C13.4465 15.8042 13.5762 15.857 13.7065 15.857C13.8218 15.857 13.9375 15.8157 14.0293 15.7318C14.2253 15.553 14.2395 15.2489 14.061 15.0527L13.23 14.1388C12.5532 13.3996 11.5908 12.9739 10.5896 12.9705L8.71092 12.9647C7.8762 12.9434 7.07811 12.6232 6.4597 12.0623L1.00045 5.55981C0.944789 5.49327 0.94894 5.39689 1.01022 5.33549C1.05221 5.29317 1.10153 5.28706 1.12716 5.28706C1.1528 5.28706 1.20211 5.29317 1.24435 5.33549L6.2136 10.3147C6.70481 10.8069 7.50413 10.8069 7.99534 10.3145L8.57933 9.72957V9.72933L9.6162 8.69043C9.6162 8.69043 9.61644 8.69043 9.61644 8.69019L9.61669 8.68994L10.2004 8.10506C10.6916 7.61289 10.6916 6.81201 10.2004 6.31984L5.23118 1.34087C5.16672 1.27629 5.16672 1.17086 5.23118 1.10628C5.29246 1.04489 5.38865 1.04073 5.45505 1.0965L11.9448 6.56666C12.5049 7.18603 12.8245 7.98593 12.8457 8.82204L12.8513 10.7046C12.8547 11.7076 13.2798 12.6718 14.0186 13.3514L14.9077 14.1628C15.1038 14.3416 15.407 14.3274 15.5855 14.1312C15.7637 13.9348 15.7495 13.631 15.5537 13.4522L14.666 12.642C14.1248 12.1444 13.8132 11.437 13.8108 10.7014L13.8049 8.81396C13.8049 8.81054 13.8049 8.80712 13.8047 8.80369C13.7788 7.72248 13.3618 6.68897 12.6304 5.89347C12.6167 5.87854 12.602 5.86436 12.5864 5.85115L6.07249 0.360932C5.62229 -0.0187153 4.96897 0.00966039 4.55295 0.42649C4.11423 0.866069 4.11423 1.58109 4.55295 2.02042L9.5222 6.99963C9.63939 7.11705 9.63939 7.30809 9.5222 7.42551L9.27733 7.67062L3.73899 2.1217C3.55173 1.93383 3.24802 1.93383 3.06076 2.1217C2.87351 2.30932 2.87351 2.61362 3.06076 2.80125L8.59911 8.35041L8.24022 8.70976L2.70187 3.16083C2.51462 2.97321 2.21091 2.97321 2.02365 3.16083C1.83615 3.34846 1.83615 3.65276 2.02365 3.84038L7.56175 9.38955L7.31712 9.6349C7.19993 9.75232 7.00926 9.75232 6.89207 9.6349L1.92257 4.65594C1.71017 4.44312 1.4277 4.32571 1.12716 4.32571C0.826625 4.32571 0.544154 4.44312 0.331751 4.65594C-0.0842658 5.07277 -0.112342 5.72737 0.266321 6.17869L5.74607 12.7051C5.75901 12.7208 5.77317 12.7354 5.78806 12.7491Z" />
</g>
<defs>
<clipPath id="clip0">
<rect width="32" height="32"/>
</clipPath>
</defs>
</svg>