<svg width="33" height="28" viewBox="0 0 33 28" fill="none" xmlns="http://www.w3.org/2000/svg">
<path d="M2.41376 5.61802C0.962119 6.54216 0 8.15941 0 10V19.6C0 24.2392 3.78375 28 8.45122 28H22.939C24.7909 28 26.418 27.0437 27.3477 25.6008L8.45122 25.6C5.1173 25.6 2.41463 22.9138 2.41463 19.6L2.41376 5.61802ZM27.7683 0H9.2561C6.46634 0 4.18657 2.17032 4.03266 4.90493L4.02439 5.2V18.8C4.02439 21.5728 6.20794 23.8387 8.95923 23.9918L9.2561 24H27.7683C30.558 24 32.8377 21.8296 32.9918 19.095L33 18.8V5.2C33 2.42715 30.8164 0.1612 28.0651 0.00822372L27.7683 0ZM6.43902 7.8384L17.9499 13.8619C18.2516 14.0197 18.6038 14.0422 18.9198 13.9296L19.0745 13.8619L30.5854 7.84V18.8C30.5854 20.2691 29.4471 21.4739 27.9993 21.5907L27.7683 21.6H9.2561C7.77807 21.6 6.56589 20.4686 6.44836 19.0296L6.43902 18.8V7.8384ZM9.2561 2.4H27.7683C29.2464 2.4 30.4585 3.53138 30.576 4.97035L30.5821 5.1296L18.5122 11.444L6.43994 5.12773C6.47851 3.61474 7.72458 2.4 9.2561 2.4Z" fill="#666666"/>
</svg>
