<?xml version="1.0" encoding="iso-8859-1"?>
<!-- Generator: Adobe Illustrator 19.0.0, SVG Export Plug-In . SVG Version: 6.00 Build 0)  -->
<svg version="1.1" id="Layer_1" xmlns="http://www.w3.org/2000/svg" xmlns:xlink="http://www.w3.org/1999/xlink" x="0px" y="0px"
	 viewBox="0 0 511.999 511.999" style="enable-background:new 0 0 511.999 511.999;" xml:space="preserve">
<g>
	<g>
		<path d="M452.385,303.234c-8.626-9.975-23.69-11.241-33.867-2.768l-70.465,58.669c-13.597,11.32-30.73,17.519-48.422,17.519
			h-83.315c-12.531,0-22.69-10.158-22.69-22.69c0-12.531,10.158-22.69,22.69-22.69h26.193h53.785c12.531,0,22.69-10.158,22.69-22.69
			c0-12.531-10.158-22.69-22.69-22.69H163.513c-25.464,0-48.987,13.617-61.668,35.7l-10.166,17.704
			c-7.012,12.211-15.721,23.365-25.866,33.131l-41.587,40.028l59.909,99.542l40.149-37.542
			c10.178-9.517,23.591-14.811,37.525-14.811h105.917c24.914,0,49.015-8.867,67.989-25.013l113.362-96.471
			C459.526,329.46,461.28,313.52,452.385,303.234z"/>
	</g>
</g>
<g>
	<g>
		<path d="M450.989,217.24c-7.549-84.89-70.772-154.006-152.815-170.476c0.571-2.634,0.878-5.366,0.878-8.168
			C299.052,17.314,281.739,0,260.458,0c-21.281,0-38.594,17.314-38.594,38.595c0,2.803,0.307,5.534,0.878,8.168
			C140.7,63.234,77.477,132.351,69.928,217.24H33.143v34.168h454.631V217.24H450.989z"/>
	</g>
</g>
<g>
</g>
<g>
</g>
<g>
</g>
<g>
</g>
<g>
</g>
<g>
</g>
<g>
</g>
<g>
</g>
<g>
</g>
<g>
</g>
<g>
</g>
<g>
</g>
<g>
</g>
<g>
</g>
<g>
</g>
</svg>
