<svg width="19" height="12" viewBox="0 0 19 12" fill="none" xmlns="http://www.w3.org/2000/svg">
<path d="M13.75 0.895419C13.9908 0.743894 14.2766 0.623697 14.5912 0.541693C14.9057 0.459688 15.2429 0.41748 15.5834 0.41748C15.9238 0.41748 16.261 0.459688 16.5756 0.541693C16.8901 0.623697 17.1759 0.743894 17.4167 0.895419C17.6575 1.04694 17.8484 1.22683 17.9787 1.42481C18.109 1.62278 18.1761 1.83498 18.1761 2.04926C18.1761 2.26355 18.109 2.47574 17.9787 2.67372C17.8484 2.8717 17.6575 3.05158 17.4167 3.20311L5.04168 10.9916L0 11.8569L1.375 8.68388L13.75 0.895419Z" fill="#FFD100"/>
</svg>
