<svg xmlns="http://www.w3.org/2000/svg" viewBox="0 0 30 32">
<path d="M29.5 0.5H25.5C25.3674 0.5 25.2402 0.552678 25.1465 0.646447C25.0527 0.740215 25 0.867392 25 1V1.5H14.5614C14.1094 1.50032 13.6646 1.61372 13.2676 1.82987L8.37244 4.5H2.5C1.65888 4.5 1 5.3785 1 6.5C1 7.54675 1.57406 8.38125 2.33444 8.48819L0.0801876 16.1194C0.0781876 16.1263 0.0763126 16.1331 0.0745626 16.1399C0.0250669 16.3382 2.65322e-05 16.5418 0 16.7462V31C0 31.1326 0.0526784 31.2598 0.146447 31.3536C0.240215 31.4473 0.367392 31.5 0.5 31.5H23C23.1326 31.5 23.2598 31.4473 23.3536 31.3536C23.4473 31.2598 23.5 31.1326 23.5 31V16.788C23.5 16.5492 23.4658 16.3116 23.3984 16.0826L21.3151 8.99956C21.9936 8.99459 22.6453 8.73487 23.1413 8.27189C23.6372 7.80892 23.941 7.17649 23.9926 6.5H25V7.5C25 7.63261 25.0527 7.75979 25.1465 7.85355C25.2402 7.94732 25.3674 8 25.5 8H29.5C29.6326 8 29.7598 7.94732 29.8536 7.85355C29.9473 7.75979 30 7.63261 30 7.5V1C30 0.867392 29.9473 0.740215 29.8536 0.646447C29.7598 0.552678 29.6326 0.5 29.5 0.5ZM2 6.5C2 5.88956 2.29613 5.5 2.5 5.5H16.7929L14.7929 7.5H2.5C2.29613 7.5 2 7.11044 2 6.5ZM17.5746 16.14C17.5251 16.3383 17.5 16.5419 17.5 16.7463V30.5H1V16.7462C1.00005 16.6268 1.01429 16.5079 1.04244 16.3919L3.37363 8.5H13.8883C13.6273 8.941 13.5282 9.45919 13.6081 9.96538C13.688 10.4716 13.9418 10.9341 14.326 11.2732C14.7101 11.6124 15.2005 11.8071 15.7127 11.8236C16.2248 11.8402 16.7268 11.6777 17.1321 11.3641L19.5375 9.49306L17.5802 16.1195C17.5782 16.1263 17.5763 16.1332 17.5746 16.14ZM20.5 29.2071L21.7929 30.5H19.2071L20.5 29.2071ZM22.4391 16.3649C22.4795 16.5023 22.5 16.6448 22.5 16.788V29.7929L21 28.2929V17.5C21 17.3674 20.9473 17.2402 20.8536 17.1464C20.7598 17.0527 20.6326 17 20.5 17C20.3674 17 20.2402 17.0527 20.1464 17.1464C20.0527 17.2402 20 17.3674 20 17.5V28.2929L18.5 29.7929V16.7462C18.5 16.6268 18.5143 16.5079 18.5424 16.3919L20.4987 9.76844L22.4391 16.3649ZM25 5.5H23.7983C23.5867 5.50025 23.3838 5.58444 23.2341 5.73409C23.0844 5.88375 23.0003 6.08666 23 6.29831C22.9995 6.74947 22.82 7.182 22.501 7.50102C22.182 7.82004 21.7495 7.99949 21.2983 8H20.0692C19.9132 8.00027 19.7617 8.05226 19.6384 8.14781L16.518 10.575C16.2767 10.7629 15.9728 10.8517 15.6682 10.8233C15.3637 10.7949 15.0814 10.6514 14.879 10.4221C14.6766 10.1928 14.5692 9.89497 14.5788 9.58926C14.5883 9.28355 14.7141 8.993 14.9305 8.77681L18.3535 5.35375C18.4235 5.28384 18.4712 5.19473 18.4905 5.09771C18.5098 5.0007 18.5 4.90012 18.4621 4.80872C18.4243 4.71732 18.3602 4.6392 18.2779 4.58424C18.1956 4.52929 18.0989 4.49997 18 4.5H10.4609L13.7466 2.70775C13.9966 2.57161 14.2767 2.50019 14.5614 2.5H25V5.5ZM29 7H26V1.5H29V7Z" />
</svg>