<svg xmlns="http://www.w3.org/2000/svg" version="1.1" xmlns:xlink="http://www.w3.org/1999/xlink" xmlns:svgjs="http://svgjs.com/svgjs" x="0" y="0" viewBox="0 0 512 512" style="enable-background:new 0 0 512 512" xml:space="preserve" class=""><g><g xmlns="http://www.w3.org/2000/svg" id="solid"><circle cx="320" cy="352" r="16" fill="#000000" data-original="#000000" style="" class=""></circle><circle cx="224" cy="232" r="16" fill="#000000" data-original="#000000" style="" class=""></circle><path d="m176 112a8.009 8.009 0 0 0 8-8v-32a8 8 0 0 0 -16 0v32a8.009 8.009 0 0 0 8 8z" fill="#000000" data-original="#000000" style="" class=""></path><path d="m368 112a8.009 8.009 0 0 0 8-8v-32a8 8 0 0 0 -16 0v32a8.009 8.009 0 0 0 8 8z" fill="#000000" data-original="#000000" style="" class=""></path><path d="m216 352a8 8 0 0 1 16 0v16h16v-20.687l-24-24-24 24v20.687h16z" fill="#000000" data-original="#000000" style="" class=""></path><path d="m80 112a8.009 8.009 0 0 0 8-8v-32a8 8 0 0 0 -16 0v32a8.009 8.009 0 0 0 8 8z" fill="#000000" data-original="#000000" style="" class=""></path><circle cx="128" cy="352" r="16" fill="#000000" data-original="#000000" style="" class=""></circle><path d="m449.347 115.146a12.043 12.043 0 0 0 -11.97-11.146h-5.377v320h39.408z" fill="#000000" data-original="#000000" style="" class=""></path><path d="m272 112a8.009 8.009 0 0 0 8-8v-32a8 8 0 0 0 -16 0v32a8.009 8.009 0 0 0 8 8z" fill="#000000" data-original="#000000" style="" class=""></path><path d="m368 128a24.028 24.028 0 0 1 -24-24h-48a24 24 0 0 1 -48 0h-48a24 24 0 0 1 -48 0h-48a24 24 0 0 1 -48 0h-22a2 2 0 0 0 -2 2v30h384v-32h-24a24.028 24.028 0 0 1 -24 24z" fill="#000000" data-original="#000000" style="" class=""></path><circle cx="128" cy="232" r="16" fill="#000000" data-original="#000000" style="" class=""></circle><path d="m32 438a2 2 0 0 0 2 2h380a2 2 0 0 0 2-2v-286h-384zm312-14h-40a8 8 0 0 1 0-16h40a8 8 0 0 1 0 16zm32-16h8a8 8 0 0 1 0 16h-8a8 8 0 0 1 0-16zm-77.657-197.657a8 8 0 0 1 11.314 0l9.805 9.805 34.392-41.269a8 8 0 1 1 12.292 10.242l-40 48a8 8 0 0 1 -5.784 2.871c-.121.005-.241.008-.362.008a8 8 0 0 1 -5.657-2.343l-16-16a8 8 0 0 1 0-11.314zm53.657 21.657a32 32 0 0 1 -53.336 23.85 8 8 0 0 1 10.671-11.922 16 16 0 0 0 26.665-11.928 8 8 0 0 1 16 0zm-32 88a32 32 0 1 1 -32 32 32.036 32.036 0 0 1 32-32zm-96-120a32 32 0 1 1 -32 32 32.036 32.036 0 0 1 32-32zm-40 144a8 8 0 0 1 2.343-5.657l32-32a8 8 0 0 1 11.314 0l32 32a8 8 0 0 1 2.343 5.657v32a8 8 0 0 1 -8 8h-64a8 8 0 0 1 -8-8zm-56-144a32 32 0 1 1 -32 32 32.036 32.036 0 0 1 32-32zm0 120a32 32 0 1 1 -32 32 32.036 32.036 0 0 1 32-32z" fill="#000000" data-original="#000000" style="" class=""></path></g></g></svg>