<svg xmlns="http://www.w3.org/2000/svg" version="1.1" xmlns:xlink="http://www.w3.org/1999/xlink" xmlns:svgjs="http://svgjs.com/svgjs" x="0" y="0" viewBox="0 0 512 512" style="enable-background:new 0 0 512 512" xml:space="preserve" class=""><g>
<g xmlns="http://www.w3.org/2000/svg">
	<g>
		<path d="M377,294.639c-9.404,4.175-20.614,6.372-31,6.372s-20.596-2.197-30-6.372c-9.404,4.175-19.614,6.372-30,6.372    c-5.068,0-10.087-0.56-15-1.582v91.582h121v-91.582C386.847,298.358,381.814,296.776,377,294.639z" fill="#000000" data-original="#000000" style="" class=""></path>
	</g>
</g>
<g xmlns="http://www.w3.org/2000/svg">
	<g>
		<path d="M497,451.011h-15V299.493c-4.849,0.989-9.864,1.518-15,1.518c-10.386,0-20.596-2.197-30-6.372    c-4.814,2.137-9.847,3.719-15,4.79v106.582c0,8.291-6.709,15-15,15H256c-8.291,0-15-6.709-15-15V299.429    c-4.913,1.022-9.932,1.582-15,1.582s-10.087-0.56-15-1.582v151.582h-30V299.429c-4.913,1.022-9.932,1.582-15,1.582    c-10.386,0-21.596-2.197-31-6.372c-4.814,2.137-9.847,3.719-15,4.79v151.582H90V299.429c-5.153-1.071-10.186-2.653-15-4.79    c-9.404,4.175-19.614,6.372-30,6.372c-5.136,0-10.151-0.529-15-1.518v151.518H15c-8.291,0-15,6.709-15,15c0,8.291,6.709,15,15,15    c4.484,0,372.682,0,482,0c8.291,0,15-6.709,15-15C512,457.72,505.291,451.011,497,451.011z" fill="#000000" data-original="#000000" style="" class=""></path>
	</g>
</g>
<g xmlns="http://www.w3.org/2000/svg">
	<g>
		<path d="M0,211.011v15c0,24.814,20.186,45,45,45c11.567,0,22.02-4.508,30-11.704c7.98,7.196,18.433,11.704,30,11.704    s22.02-4.508,30-11.704c7.98,7.196,19.433,11.704,31,11.704s22.02-4.508,30-11.704c7.98,7.196,18.433,11.704,30,11.704    s22.02-4.508,30-11.704c7.98,7.196,18.433,11.704,30,11.704c11.567,0,22.02-4.508,30-11.704c7.98,7.196,18.433,11.704,30,11.704    c11.567,0,23.02-4.508,31-11.704c7.98,7.196,18.433,11.704,30,11.704c11.567,0,22.02-4.508,30-11.704    c7.98,7.196,18.433,11.704,30,11.704c24.814,0,45-20.186,45-45v-15H0z" fill="#000000" data-original="#000000" style="" class=""></path>
	</g>
</g>
<g xmlns="http://www.w3.org/2000/svg">
	<g>
		<path d="M471.116,61.582l-3.955-1.128c-137.476-39.272-284.847-39.302-422.322,0l-3.955,1.128C34.438,63.428,30,69.317,30,76.011    v45h452v-45C482,69.317,477.562,63.428,471.116,61.582z" fill="#000000" data-original="#000000" style="" class=""></path>
	</g>
</g>
<g xmlns="http://www.w3.org/2000/svg">
	<g>
		<polygon points="491.272,151.011 20.728,151.011 5.728,181.011 506.272,181.011   " fill="#000000" data-original="#000000" style="" class=""></polygon>
	</g>
</g>
<g xmlns="http://www.w3.org/2000/svg">
</g>
<g xmlns="http://www.w3.org/2000/svg">
</g>
<g xmlns="http://www.w3.org/2000/svg">
</g>
<g xmlns="http://www.w3.org/2000/svg">
</g>
<g xmlns="http://www.w3.org/2000/svg">
</g>
<g xmlns="http://www.w3.org/2000/svg">
</g>
<g xmlns="http://www.w3.org/2000/svg">
</g>
<g xmlns="http://www.w3.org/2000/svg">
</g>
<g xmlns="http://www.w3.org/2000/svg">
</g>
<g xmlns="http://www.w3.org/2000/svg">
</g>
<g xmlns="http://www.w3.org/2000/svg">
</g>
<g xmlns="http://www.w3.org/2000/svg">
</g>
<g xmlns="http://www.w3.org/2000/svg">
</g>
<g xmlns="http://www.w3.org/2000/svg">
</g>
<g xmlns="http://www.w3.org/2000/svg">
</g>
</g></svg>