<svg xmlns="http://www.w3.org/2000/svg" viewBox="0 0 24 24" fill="none">
<path d="M11.9997 0.333252C18.443 0.333252 23.6663 5.5566 23.6663 11.9999C23.6663 18.4432 18.443 23.6666 11.9997 23.6666C5.55635 23.6666 0.333008 18.4432 0.333008 11.9999C0.333008 5.5566 5.55635 0.333252 11.9997 0.333252ZM11.9997 1.79159C6.36177 1.79159 1.79134 6.36201 1.79134 11.9999C1.79134 17.6378 6.36177 22.2083 11.9997 22.2083C17.6376 22.2083 22.208 17.6378 22.208 11.9999C22.208 6.36201 17.6376 1.79159 11.9997 1.79159ZM17.0361 8.27599C17.3209 8.56074 17.3209 9.02243 17.0361 9.30719L10.6194 15.7239C10.3347 16.0086 9.873 16.0086 9.58824 15.7239L6.96324 13.0989C6.67849 12.8141 6.67849 12.3524 6.96324 12.0677C7.248 11.7829 7.70968 11.7829 7.99444 12.0677L10.1038 14.1771L16.0049 8.27599C16.2897 7.99123 16.7514 7.99123 17.0361 8.27599Z" fill="#198754"/>
</svg>