<svg width="16" height="20" viewBox="0 0 16 20" fill="none" xmlns="http://www.w3.org/2000/svg">
<path d="M8.28992 0.400391C6.34271 0.402693 4.47592 1.17914 3.09904 2.55942C1.72216 3.93969 0.947617 5.81108 0.94532 7.76308C0.942988 9.35826 1.46277 10.9102 2.42492 12.1807C2.42492 12.1807 2.62523 12.4451 2.65795 12.4832L8.28992 19.1418L13.9246 12.4799C13.9539 12.4444 14.1549 12.1807 14.1549 12.1807L14.1556 12.1787C15.1173 10.9087 15.6368 9.35753 15.6345 7.76308C15.6322 5.81108 14.8577 3.93969 13.4808 2.55942C12.1039 1.17914 10.2371 0.402693 8.28992 0.400391ZM8.28992 10.4404C7.76169 10.4404 7.24533 10.2834 6.80612 9.98921C6.36692 9.69502 6.0246 9.27688 5.82245 8.78766C5.62031 8.29844 5.56742 7.76011 5.67047 7.24076C5.77352 6.72141 6.02789 6.24435 6.4014 5.86992C6.77492 5.49548 7.2508 5.24049 7.76888 5.13719C8.28695 5.03388 8.82396 5.0869 9.31197 5.28954C9.79999 5.49218 10.2171 5.83535 10.5106 6.27563C10.804 6.71592 10.9607 7.23356 10.9607 7.76308C10.9598 8.47289 10.6781 9.15337 10.1775 9.65527C9.67678 10.1572 8.99798 10.4395 8.28992 10.4404Z" fill="#333533"/>
</svg>
