<svg width="54" height="49" viewBox="0 0 54 49" fill="none" xmlns="http://www.w3.org/2000/svg">
<path d="M52.5431 21.3126L52.5394 21.3093L30.5117 1.3219C29.5728 0.469543 28.3244 0 26.9966 0C25.6688 0 24.4204 0.46917 23.4811 1.32153L1.46493 21.2988C1.45751 21.3055 1.4501 21.3126 1.44268 21.3194C-0.485418 23.079 -0.482122 25.9341 1.45216 27.6892C2.33587 28.4915 3.50303 28.9562 4.75094 29.0048C4.80161 29.0093 4.8527 29.0115 4.9042 29.0115H5.78214V43.721C5.78214 46.6317 8.39208 49 11.6006 49H20.2186C21.092 49 21.8006 48.3574 21.8006 47.5645V36.0322C21.8006 34.704 22.9913 33.6236 24.4551 33.6236H29.5382C31.0019 33.6236 32.1926 34.704 32.1926 36.0322V47.5645C32.1926 48.3574 32.9008 49 33.7746 49H42.3926C45.6011 49 48.2111 46.6317 48.2111 43.721V29.0115H49.0252C50.3526 29.0115 51.6009 28.5423 52.5406 27.69C54.477 25.9318 54.4778 23.0719 52.5431 21.3126Z" fill="#202020"/>
</svg>
